<svg width="36" height="36" viewBox="0 0 36 36" fill="none" xmlns="http://www.w3.org/2000/svg">
<path d="M17.558 0C20.0078 0 20.7776 1.75717 21.4235 3.51159C21.6947 4.2566 28.0611 21.6906 28.2525 22.2139C28.3034 22.3599 28.269 22.5995 28.0445 22.6863C27.8187 22.7716 24.5109 24.0578 24.3277 24.1267C24.1446 24.1969 23.9394 24.095 23.8733 23.9119C23.8045 23.7315 22.4315 19.9307 22.2773 19.5065H12.8414C12.6927 19.9307 11.3032 23.7397 11.2412 23.9119C11.1779 24.0868 10.9809 24.2052 10.7854 24.1267C10.5899 24.0496 7.26968 22.7634 7.07138 22.6863C6.88134 22.6119 6.79458 22.3957 6.86068 22.2139C7.09479 21.5612 13.3647 4.4067 13.6842 3.51159C14.3066 1.78334 15.1026 0 17.558 0ZM6.35667 31.1953C6.15837 31.1953 6 31.3606 6 31.5616V35.6364C6 35.8375 6.15837 36 6.35667 36H28.7496C28.952 36 29.1104 35.8375 29.1104 35.6364V31.5616C29.1104 31.3606 28.952 31.1953 28.7496 31.1953H6.35667ZM17.5359 5.69291L14.3466 15.2706H20.7776L17.5772 5.69291H17.5359Z" fill="#8793A3"/>
</svg>
