<svg width="36" height="36" viewBox="0 0 36 36" fill="none" xmlns="http://www.w3.org/2000/svg">
<path fill-rule="evenodd" clip-rule="evenodd" d="M18 4.5C10.5442 4.5 4.5 10.5442 4.5 18C4.5 25.4558 10.5442 31.5 18 31.5C25.4558 31.5 31.5 25.4558 31.5 18C31.5 10.5442 25.4558 4.5 18 4.5ZM1.5 18C1.5 8.8873 8.8873 1.5 18 1.5C27.1127 1.5 34.5 8.8873 34.5 18C34.5 27.1127 27.1127 34.5 18 34.5C8.8873 34.5 1.5 27.1127 1.5 18ZM16.4153 8.24999C16.427 8.25 16.4386 8.25 16.45 8.25H19.55C19.5614 8.25 19.573 8.25 19.5847 8.24999C19.7634 8.24992 19.9768 8.24984 20.1647 8.2652C20.3826 8.283 20.6946 8.32866 21.0215 8.49524C21.4448 8.71095 21.789 9.05515 22.0048 9.47852C22.1713 9.80544 22.217 10.1174 22.2348 10.3353C22.2502 10.5232 22.2501 10.7366 22.25 10.9153C22.25 10.927 22.25 10.9386 22.25 10.95V13.75H25.05C25.0614 13.75 25.073 13.75 25.0847 13.75C25.2634 13.7499 25.4768 13.7498 25.6647 13.7652C25.8826 13.783 26.1946 13.8287 26.5215 13.9952C26.9448 14.211 27.289 14.5552 27.5048 14.9785C27.6713 15.3054 27.717 15.6174 27.7348 15.8353C27.7502 16.0232 27.7501 16.2366 27.75 16.4153C27.75 16.427 27.75 16.4386 27.75 16.45V19.55C27.75 19.5614 27.75 19.573 27.75 19.5847C27.7501 19.7634 27.7502 19.9768 27.7348 20.1647C27.717 20.3826 27.6713 20.6946 27.5048 21.0215C27.2891 21.4448 26.9448 21.789 26.5215 22.0048C26.1946 22.1713 25.8826 22.217 25.6647 22.2348C25.4768 22.2502 25.2634 22.2501 25.0847 22.25C25.073 22.25 25.0614 22.25 25.05 22.25H22.25V25.05C22.25 25.0614 22.25 25.073 22.25 25.0847C22.2501 25.2634 22.2502 25.4768 22.2348 25.6647C22.217 25.8826 22.1713 26.1946 22.0048 26.5215C21.789 26.9448 21.4448 27.2891 21.0215 27.5048C20.6946 27.6713 20.3826 27.717 20.1647 27.7348C19.9768 27.7502 19.7634 27.7501 19.5847 27.75C19.573 27.75 19.5614 27.75 19.55 27.75H16.45C16.4386 27.75 16.427 27.75 16.4153 27.75C16.2366 27.7501 16.0232 27.7502 15.8353 27.7348C15.6174 27.717 15.3054 27.6713 14.9785 27.5048C14.5552 27.289 14.211 26.9448 13.9952 26.5215C13.8287 26.1946 13.783 25.8826 13.7652 25.6647C13.7498 25.4768 13.7499 25.2634 13.75 25.0847C13.75 25.073 13.75 25.0614 13.75 25.05V22.25H10.95C10.9386 22.25 10.927 22.25 10.9153 22.25C10.7366 22.2501 10.5232 22.2502 10.3353 22.2348C10.1174 22.217 9.80544 22.1713 9.47852 22.0048C9.05515 21.789 8.71095 21.4448 8.49524 21.0215C8.32866 20.6946 8.283 20.3826 8.2652 20.1647C8.24984 19.9768 8.24992 19.7634 8.24999 19.5847C8.25 19.573 8.25 19.5614 8.25 19.55V16.45C8.25 16.4386 8.25 16.427 8.24999 16.4153C8.24992 16.2366 8.24984 16.0232 8.2652 15.8353C8.283 15.6174 8.32866 15.3054 8.49524 14.9785C8.71095 14.5552 9.05516 14.2109 9.47852 13.9952C9.80544 13.8287 10.1174 13.783 10.3353 13.7652C10.5232 13.7498 10.7366 13.7499 10.9153 13.75C10.927 13.75 10.9386 13.75 10.95 13.75H13.75V10.95C13.75 10.9386 13.75 10.927 13.75 10.9153C13.7499 10.7366 13.7498 10.5232 13.7652 10.3353C13.783 10.1174 13.8287 9.80544 13.9952 9.47852C14.211 9.05516 14.5552 8.71095 14.9785 8.49524C15.3054 8.32866 15.6174 8.283 15.8353 8.2652C16.0232 8.24984 16.2366 8.24992 16.4153 8.24999ZM16.75 11.25V14.05C16.75 14.0614 16.75 14.073 16.75 14.0847C16.7501 14.2634 16.7502 14.4768 16.7348 14.6647C16.717 14.8826 16.6713 15.1946 16.5048 15.5215C16.289 15.9448 15.9448 16.289 15.5215 16.5048C15.1946 16.6713 14.8826 16.717 14.6647 16.7348C14.4768 16.7502 14.2634 16.7501 14.0847 16.75C14.073 16.75 14.0614 16.75 14.05 16.75H11.25V19.25H14.05C14.0614 19.25 14.073 19.25 14.0847 19.25C14.2634 19.2499 14.4768 19.2498 14.6647 19.2652C14.8826 19.283 15.1946 19.3287 15.5215 19.4952C15.9448 19.711 16.2891 20.0552 16.5048 20.4785C16.6713 20.8054 16.717 21.1174 16.7348 21.3353C16.7502 21.5232 16.7501 21.7366 16.75 21.9153C16.75 21.927 16.75 21.9386 16.75 21.95V24.75H19.25V21.95C19.25 21.9386 19.25 21.927 19.25 21.9153C19.2499 21.7366 19.2498 21.5232 19.2652 21.3353C19.283 21.1174 19.3287 20.8054 19.4952 20.4785C19.711 20.0552 20.0552 19.711 20.4785 19.4952C20.8054 19.3287 21.1174 19.283 21.3353 19.2652C21.5232 19.2498 21.7366 19.2499 21.9153 19.25C21.927 19.25 21.9386 19.25 21.95 19.25H24.75V16.75H21.95C21.9386 16.75 21.927 16.75 21.9153 16.75C21.7366 16.7501 21.5232 16.7502 21.3353 16.7348C21.1174 16.717 20.8054 16.6713 20.4785 16.5048C20.0552 16.2891 19.711 15.9448 19.4952 15.5215C19.3287 15.1946 19.283 14.8826 19.2652 14.6647C19.2498 14.4768 19.2499 14.2634 19.25 14.0847C19.25 14.073 19.25 14.0614 19.25 14.05V11.25H16.75Z" fill="#006EFF"/>
</svg>
