<svg width="35" height="36" viewBox="0 0 35 36" fill="none" xmlns="http://www.w3.org/2000/svg">
<path d="M14.0214 18.0291C14.0214 17.6858 14.0383 17.3424 14.0664 16.999H12.3834C12.3046 17.3311 12.2539 17.6745 12.2539 18.0291C12.2539 18.3894 12.3046 18.7327 12.3834 19.0704H14.0664C14.0383 18.7215 14.0214 18.3781 14.0214 18.0291Z" fill="#9BA5B2"/>
<path d="M12.8203 20.1958C13.2706 20.9951 13.9686 21.6368 14.8017 22.0308C14.5484 21.5017 14.357 20.8713 14.2219 20.1958H12.8203Z" fill="#9BA5B2"/>
<path d="M12.8203 15.8731H14.2219C14.357 15.192 14.5484 14.5616 14.8017 14.0269C13.9686 14.4209 13.2706 15.0682 12.8203 15.8731Z" fill="#9BA5B2"/>
<path d="M16.6787 22.4535C17.1121 22.4535 17.6863 21.6148 17.9902 20.1963H15.3672C15.6711 21.6148 16.2453 22.4535 16.6787 22.4535Z" fill="#9BA5B2"/>
<path d="M16.6787 13.605C16.2453 13.605 15.6711 14.4493 15.3672 15.8734H17.9902C17.6863 14.4493 17.1121 13.605 16.6787 13.605Z" fill="#9BA5B2"/>
<path d="M15.1991 16.999C15.1653 17.3255 15.1484 17.6689 15.1484 18.0291C15.1484 18.395 15.1653 18.7384 15.1991 19.0704H18.1599C18.1937 18.7383 18.2106 18.395 18.2106 18.0291C18.2106 17.6689 18.1937 17.3255 18.1599 16.999H15.1991Z" fill="#9BA5B2"/>
<path d="M18.5547 22.0308C19.3878 21.6424 20.0857 20.9951 20.536 20.1958H19.1288C18.9994 20.8713 18.808 21.5017 18.5547 22.0308Z" fill="#9BA5B2"/>
<path d="M20.536 15.8731C20.0857 15.0682 19.3878 14.4209 18.5547 14.0269C18.808 14.5616 18.9994 15.192 19.1345 15.8731H20.536Z" fill="#9BA5B2"/>
<path d="M19.2891 16.999C19.3172 17.3424 19.3341 17.6857 19.3341 18.0291C19.3341 18.3781 19.3172 18.7215 19.2891 19.0704H20.9721C21.0509 18.7327 21.1016 18.3894 21.1016 18.0291C21.1016 17.6745 21.0509 17.3311 20.9721 16.999H19.2891Z" fill="#9BA5B2"/>
<path d="M25.4475 9.46777H7.32812V32.0002H25.4475C26.0779 32.0002 26.5902 31.4879 26.5902 30.8575V10.6105C26.5902 9.98008 26.0779 9.46777 25.4475 9.46777ZM19.2444 28.91H14.1109C13.7956 28.91 13.548 28.6567 13.548 28.3471C13.548 28.0375 13.7956 27.7842 14.1109 27.7842H19.2444C19.5596 27.7842 19.8073 28.0375 19.8073 28.3471C19.8073 28.6567 19.5596 28.91 19.2444 28.91ZM20.4658 26.6246H12.8895C12.5799 26.6246 12.3266 26.3713 12.3266 26.0617C12.3266 25.7522 12.5799 25.4989 12.8895 25.4989H20.4658C20.7754 25.4989 21.0287 25.7522 21.0287 26.0617C21.0287 26.3713 20.7754 26.6246 20.4658 26.6246ZM21.9181 19.8419C21.9181 19.8475 21.9124 19.8531 21.9124 19.8588C21.1525 22.0203 19.098 23.5794 16.6777 23.5794C14.2574 23.5794 12.2027 22.0202 11.4429 19.8588C11.4429 19.8531 11.4373 19.8475 11.4373 19.8419C11.2403 19.2734 11.1277 18.6655 11.1277 18.0294C11.1277 17.399 11.2403 16.7911 11.4373 16.2169C11.4373 16.2169 11.4429 16.2169 11.4429 16.2113C12.1972 14.0442 14.2574 12.4795 16.6777 12.4795C19.0925 12.4795 21.1469 14.0331 21.907 16.1944C21.9183 16.2113 21.9239 16.2338 21.9296 16.2563C22.1209 16.8136 22.2279 17.4102 22.2279 18.0294C22.2279 18.6655 22.1151 19.2734 21.9181 19.8419Z" fill="#9BA5B2"/>
<path d="M22.6946 4.67739L23.083 4.53667V3L7.89062 8.34175H13.2324L22.6946 4.67739Z" fill="#9BA5B2"/>
<path d="M15.9805 8.34198H25.2568V6.57454C25.2568 5.78088 24.4688 5.22923 23.7202 5.50504L23.0841 5.73582L15.9805 8.34198Z" fill="#9BA5B2"/>
</svg>
