<svg width="36" height="36" viewBox="0 0 36 36" fill="none" xmlns="http://www.w3.org/2000/svg">
<path d="M35.5711 17.8106C35.4874 17.4105 35.3419 16.9971 35.1471 16.5878C34.6507 15.5465 33.8977 14.6711 32.9801 14.0172H34.1437C34.6542 14.0172 35.048 13.6221 35.0452 13.1123C35.0438 12.8402 35.0353 12.5575 35.0149 12.3248C34.9798 11.7707 34.8342 10.9326 34.7435 10.6324C34.5945 10.1395 34.0327 9.66275 33.4505 9.55377C33.0954 9.49189 32.6138 9.43072 31.9669 9.43002C31.8846 9.43002 31.8059 9.43143 31.7292 9.43353C31.5633 8.64603 31.3945 7.84096 31.2216 7.01408C30.9438 5.68939 30.2555 4.41814 29.2838 3.43307C28.2635 2.39877 26.9733 1.72799 25.6472 1.54307C20.5727 0.846973 15.4259 0.846973 10.3472 1.54307C9.02461 1.72729 7.73438 2.39807 6.71414 3.43307C5.74242 4.41814 5.05477 5.68939 4.77633 7.01549C4.60336 7.84236 4.43461 8.64744 4.26937 9.43353C4.19273 9.43143 4.11398 9.43072 4.03172 9.43002C3.38484 9.43072 2.9032 9.49189 2.54813 9.55377C1.96594 9.66275 1.40344 10.1395 1.25508 10.6324C1.16437 10.9326 1.01883 11.7707 0.983672 12.3248C0.963281 12.5575 0.954141 12.8402 0.953438 13.1123C0.950625 13.6221 1.34367 14.0172 1.85484 14.0172H3.01852C2.10164 14.6711 1.34789 15.5465 0.851484 16.5878C0.656016 16.9971 0.510469 17.4105 0.426797 17.8113C0.213047 18.9124 0.00351563 20.3728 0 22.3063C0.0028125 24.2392 0.214453 25.6335 0.430312 26.6699C0.760078 28.1374 2.06648 29.5239 3.53602 30.0963C3.50719 30.5428 3.5782 31.7374 3.7132 32.5305C3.76242 32.8673 3.84469 33.2765 3.93539 33.6703C4.10273 34.4078 4.80516 34.9795 5.54414 34.9795H9.675C10.414 34.9795 11.0482 34.4078 11.1284 33.6703C11.172 33.2765 11.2057 32.8673 11.2148 32.5305C11.2444 31.9624 11.2163 31.1882 11.1677 30.6306C14.1173 30.7199 17.0747 30.7811 18 30.7713C18.9253 30.7818 21.8827 30.7206 24.8323 30.6306C24.7838 31.1882 24.7556 31.9624 24.7852 32.5305C24.7943 32.8673 24.828 33.2765 24.8716 33.6703C24.9518 34.4078 25.586 34.9795 26.325 34.9795H30.4559C31.1948 34.9795 31.8973 34.4078 32.0646 33.6703C32.1546 33.2765 32.2369 32.8673 32.2868 32.5305C32.4218 31.7367 32.4928 30.5421 32.464 30.0963C33.9335 29.5246 35.2399 28.1374 35.5697 26.6699C35.7855 25.6335 35.9972 24.2392 36 22.3063C35.9965 20.3721 35.787 18.9124 35.5732 17.8113L35.5711 17.8106ZM5.75016 24.427C4.03242 24.427 2.64023 23.0348 2.64023 21.3171C2.64023 19.5993 4.03242 18.2071 5.75016 18.2071C7.46789 18.2071 8.86008 19.5993 8.86008 21.3171C8.86008 23.0348 7.46789 24.427 5.75016 24.427ZM24.3787 21.3171C24.3787 22.2831 23.5955 23.0664 22.6294 23.0664H13.3671C12.401 23.0664 11.6177 22.2831 11.6177 21.3171C11.6177 20.351 12.401 19.5677 13.3671 19.5677H22.6287C23.5948 19.5677 24.378 20.351 24.378 21.3171H24.3787ZM17.9979 11.7229C13.6723 11.7391 9.63141 12.1849 7.04391 12.6124C7.37578 11.0542 7.71891 9.4265 8.0782 7.70596C8.37422 6.29619 9.57445 5.05729 10.8084 4.88502C15.5779 4.23041 20.4144 4.23041 25.1838 4.88502C26.4206 5.05729 27.6216 6.29689 27.9169 7.70455C28.2762 9.42439 28.6193 11.0521 28.9519 12.6124C26.3651 12.1849 22.3235 11.7391 17.9979 11.7229ZM30.2456 24.427C28.5279 24.427 27.1357 23.0348 27.1357 21.3171C27.1357 19.5993 28.5279 18.2071 30.2456 18.2071C31.9634 18.2071 33.3555 19.5993 33.3555 21.3171C33.3555 23.0348 31.9634 24.427 30.2456 24.427Z" fill="#9BA5B2"/>
</svg>
