<svg class="avito_svg" xmlns="http://www.w3.org/2000/svg" width="35" height="32" viewBox="0 0 35 32" fill="none">
    <path d="M11.1286 31.7762C16.7655 31.7762 21.3353 27.2065 21.3353 21.5695C21.3353 15.9325 16.7655 11.3628 11.1286 11.3628C5.49158 11.3628 0.921875 15.9325 0.921875 21.5695C0.921875 27.2065 5.49158 31.7762 11.1286 31.7762Z" fill="#D1D5DB"/>
    <path class="avito_dark_path" d="M28.8316 30.4879C32.2379 30.4879 34.9991 27.7265 34.9991 24.3203C34.9991 20.9141 32.2379 18.1528 28.8316 18.1528C25.4254 18.1528 22.6641 20.9141 22.6641 24.3203C22.6641 27.7265 25.4254 30.4879 28.8316 30.4879Z" fill="#9BA5B2"/>
    <path d="M13.0783 10.0321C15.1862 10.0321 16.8949 8.32336 16.8949 6.21552C16.8949 4.10767 15.1862 2.39893 13.0783 2.39893C10.9705 2.39893 9.26172 4.10767 9.26172 6.21552C9.26172 8.32336 10.9705 10.0321 13.0783 10.0321Z" fill="#D1D5DB"/>
    <path class="avito_dark_path" d="M26.4391 16.821C31.0221 16.821 34.7375 13.1056 34.7375 8.52258C34.7375 3.93946 31.0221 0.224121 26.4391 0.224121C21.8559 0.224121 18.1406 3.93946 18.1406 8.52258C18.1406 13.1056 21.8559 16.821 26.4391 16.821Z" fill="#9BA5B2"/>
</svg>