<svg class="beeline_svg" xmlns="http://www.w3.org/2000/svg" width="36" height="36" viewBox="0 0 36 36" fill="none">
    <path d="M17.9977 35.9803C27.7983 36.1245 35.8513 28.0714 35.9955 18.0006C35.8333 7.9118 27.7803 -0.141245 17.9977 0.00288133C8.19717 -0.141245 0.144126 7.9118 0 18.0006C0.144126 28.0714 8.19717 36.1245 17.9977 35.9803Z" fill="#D1D5DB"/>
    <path d="M25.7286 31.4044C19.6213 34.9355 12.9915 35.5661 8.75781 33.4582C14.3787 36.8091 21.3148 36.8452 26.9717 33.5843C32.5746 30.4136 36.0337 24.3242 35.9616 17.7305C35.7094 22.4506 31.836 27.8733 25.7286 31.4044Z" fill="#9BA5B2"/>
    <path d="M20.2669 1.33585C21.5099 3.47973 18.5193 7.53327 13.583 10.3798C8.6467 13.2262 3.65633 13.8027 2.41325 11.6589C2.3592 11.5508 2.30515 11.4427 2.26912 11.3346C2.03492 10.0194 2.39523 8.68628 3.25999 7.6774C3.40411 7.46121 3.56625 7.26303 3.7284 7.04684C5.16966 5.17321 6.97123 3.60584 9.00701 2.43481C11.0428 1.22776 13.2948 0.471095 15.6188 0.164827C15.889 0.128796 16.1412 0.0927643 16.3935 0.0747485C17.6906 -0.159456 19.0238 0.182843 20.0507 1.0476C20.1227 1.13768 20.2128 1.22776 20.2669 1.33585Z" fill="#9BA5B2"/>
    <path d="M27.9255 3.64223C30.0874 7.38951 25.7275 13.9472 18.1789 18.3071C10.6303 22.6669 2.75747 23.1533 0.613592 19.406C0.253277 18.7755 0.0551038 18.0728 0.0190723 17.3342C-0.0710064 19.9105 0.379387 22.4687 1.37025 24.8468C1.51438 25.2071 1.67652 25.5674 1.85668 25.9277L1.87469 25.9818C2.55929 27.1168 3.53214 28.0356 4.68515 28.6301C8.91885 30.9001 16.0711 30.1254 22.773 26.252C29.4568 22.3966 33.7085 16.5775 33.8707 11.7853C33.9427 10.4702 33.6365 9.17307 32.9879 8.03807C32.7357 7.67776 32.4835 7.31744 32.2132 6.97514C30.6458 4.95738 28.6821 3.29993 26.4482 2.12891C27.0607 2.50724 27.5652 3.02969 27.9255 3.64223Z" fill="#9BA5B2"/>
    <path d="M17.9977 35.9803C27.7983 36.1245 35.8513 28.0714 35.9955 18.0006C35.8333 7.9118 27.7803 -0.141245 17.9977 0.00288133C8.19717 -0.141245 0.144126 7.9118 0 18.0006C0.144126 28.0714 8.19717 36.1245 17.9977 35.9803Z" fill="url(#paint0_radial_3461_56659)"/>
    <defs>
        <radialGradient id="paint0_radial_3461_56659" cx="0" cy="0" r="1" gradientUnits="userSpaceOnUse" gradientTransform="translate(17.994 17.998) scale(17.9865 17.9924)">
            <stop offset="0.5" stop-color="white" stop-opacity="0"/>
            <stop offset="1" stop-color="white" stop-opacity="0.35"/>
        </radialGradient>
    </defs>
</svg>