<svg width="36" height="36" viewBox="0 0 36 36" fill="none" xmlns="http://www.w3.org/2000/svg">
<g clip-path="url(#clip0_2543_33164)">
<path d="M31.5178 5.19628C30.3851 4.59792 29.2123 4.02206 28.0261 3.47643C23.3419 4.99237 17.8498 6.98854 12.3134 9.46776C11.7811 9.70305 11.325 10.0823 10.9967 10.5628C10.6684 11.0434 10.4808 11.606 10.455 12.1874C10.3685 14.8593 10.3418 17.617 10.377 20.3437C10.3798 20.4237 10.3569 20.5024 10.3117 20.5684C10.2664 20.6344 10.2012 20.6842 10.1256 20.7104C10.05 20.7366 9.96798 20.7379 9.8916 20.714C9.81522 20.6901 9.7485 20.6424 9.70125 20.5778C9.11625 19.8278 8.54391 19.0863 7.98422 18.3531C7.94297 18.2958 7.88167 18.2561 7.8125 18.2419C7.74333 18.2277 7.67135 18.2401 7.61086 18.2765C7.17633 18.5339 6.74953 18.7884 6.33047 19.0401C6.09562 19.1807 5.80664 18.993 5.80523 18.704C5.79117 15.9878 5.85938 13.2646 6.00422 10.6251C6.06539 9.51206 6.76359 8.4637 7.79719 7.95323C13.1065 5.33338 18.7716 3.19096 23.6055 1.60542C22.4805 1.16526 21.3619 0.761666 20.2699 0.379166C18.7976 -0.126389 17.1987 -0.126389 15.7263 0.379166C12.0827 1.63565 8.10375 3.27674 4.47914 5.19628C2.27625 6.35151 0.963516 8.6894 0.905156 11.0182C0.760781 15.6728 0.760781 20.3275 0.905156 24.9822C0.961406 27.311 2.27625 29.6489 4.47914 30.8041C8.10375 32.7236 12.0827 34.3647 15.7291 35.6212C17.2015 36.1268 18.8004 36.1268 20.2727 35.6212C23.9163 34.3654 27.8953 32.7236 31.5227 30.8041C33.7242 29.6489 35.0384 27.311 35.096 24.9822C35.2399 20.3275 35.2399 15.6728 35.096 11.0182C35.0355 8.6894 33.72 6.35151 31.5178 5.19628Z" fill="#9BA5B2"/>
</g>
<defs>
<clipPath id="clip0_2543_33164">
<rect width="36" height="36" fill="white"/>
</clipPath>
</defs>
</svg>
