<svg width="36" height="36" viewBox="0 0 36 36" fill="none" xmlns="http://www.w3.org/2000/svg">
<path fill-rule="evenodd" clip-rule="evenodd" d="M17.9996 1.50024C18.828 1.50024 19.4996 2.17182 19.4996 3.00024V10.7308H32.9992C33.8276 10.7308 34.4992 11.4023 34.4992 12.2308V30.6918C34.4992 31.7016 34.098 32.6701 33.3839 33.3842C32.6699 34.0982 31.7014 34.4994 30.6915 34.4994H5.30763C4.29778 34.4994 3.3293 34.0982 2.61523 33.3842C1.90116 32.6701 1.5 31.7016 1.5 30.6918V12.2308C1.5 11.4023 2.17157 10.7308 3 10.7308H16.4996V3.00024C16.4996 2.17182 17.1712 1.50024 17.9996 1.50024ZM4.5 13.7308V30.6918C4.5 30.906 4.58509 31.1114 4.73655 31.2629C4.88801 31.4143 5.09343 31.4994 5.30763 31.4994H30.6915C30.9057 31.4994 31.1112 31.4143 31.2626 31.2629C31.4141 31.1114 31.4992 30.906 31.4992 30.6918V13.7308H4.5ZM19.961 27.2303C19.961 26.4019 20.6326 25.7303 21.461 25.7303H27.2301C28.0585 25.7303 28.7301 26.4019 28.7301 27.2303C28.7301 28.0588 28.0585 28.7303 27.2301 28.7303H21.461C20.6326 28.7303 19.961 28.0588 19.961 27.2303Z" fill="#006EFF"/>
<path fill-rule="evenodd" clip-rule="evenodd" d="M10.4385 1.5005C10.5 1.5 11.25 1.50001 11.25 1.50001H25.5228C26.6605 1.50061 27.7762 1.81857 28.7431 2.41812C29.709 3.0171 30.4889 3.8734 30.9952 4.89092L30.9967 4.89387L34.3402 11.5575C34.7117 12.298 34.4126 13.1994 33.6721 13.5709C32.9317 13.9424 32.0303 13.6433 31.6588 12.9029L28.3127 6.23401L28.3101 6.22883C28.0522 5.70983 27.6546 5.27306 27.1621 4.96763C26.8067 4.74729 26.25 4.5 25.5 4.5C25.5 4.5 10.6594 4.50005 10.4982 4.49992M10.4982 4.49992C9.93803 4.51744 9.39284 4.68576 8.92018 4.98728C8.44263 5.29192 8.05718 5.72099 7.8053 6.22834L7.79311 6.25235L4.33166 12.9212C3.95003 13.6565 3.04458 13.9431 2.3093 13.5615C1.57401 13.1799 1.28732 12.2745 1.66896 11.5392L5.12463 4.88148C5.61919 3.89117 6.37334 3.05359 7.30673 2.45817C8.24417 1.86017 9.32691 1.52907 10.4385 1.5005" fill="#006EFF"/>
</svg>
