<svg width="36" height="36" viewBox="0 0 36 36" fill="none" xmlns="http://www.w3.org/2000/svg">
<g clip-path="url(#clip0_2848_29527)">
<path d="M0.0507812 27.1695C0.703984 32.0914 4.89602 35.8841 9.97188 35.8841C15.0477 35.8841 19.2391 32.0872 19.8923 27.1695H0.0507812ZM19.8923 24.4857C19.2391 19.5638 15.047 15.7719 9.97188 15.7719C4.89672 15.7719 0.704688 19.5666 0.0507812 24.4857H19.8923ZM35.2281 23.2074L31.9938 15.5173C28.8834 15.6971 25.8277 16.4141 22.9621 17.6366C22.1352 17.9872 21.3318 18.3755 20.5518 18.8016C21.9677 20.952 22.7009 23.48 22.6552 26.0542C22.6096 28.6285 21.7872 31.1289 20.2959 33.2277C21.5779 34.5365 23.2246 35.4287 25.0212 35.7876C26.8178 36.1466 28.6809 35.9558 30.3674 35.24C35.0172 33.2663 37.1969 27.879 35.2281 23.2074ZM27.8123 5.57727C25.8477 0.906408 20.485 -1.28031 15.8352 0.694064C11.1855 2.66774 9.0093 8.05508 10.9745 12.7266L11.1489 13.1422C14.0364 13.4113 16.7429 14.667 18.813 16.6979C19.8182 16.1277 20.8554 15.6157 21.9194 15.1644C24.7738 13.9466 27.8018 13.1848 30.8927 12.9066L27.8123 5.57727ZM24.8725 8.36727C24.7108 8.43528 24.5372 8.47077 24.3618 8.47171C24.1864 8.47265 24.0124 8.43902 23.85 8.37275C23.6876 8.30648 23.5398 8.20886 23.415 8.08547C23.2903 7.96208 23.1911 7.81532 23.1231 7.6536C22.8637 7.0296 22.4635 6.47407 21.9538 6.03044C21.444 5.58681 20.8386 5.26711 20.1848 5.09633C19.8446 5.00376 19.5548 4.78046 19.3785 4.47511C19.2023 4.16976 19.1539 3.80712 19.2439 3.46624C19.3339 3.12536 19.555 2.83387 19.859 2.65532C20.163 2.47677 20.5252 2.42563 20.8668 2.51305C21.9166 2.78697 22.8889 3.29996 23.7076 4.01193C24.5263 4.7239 25.1692 5.61554 25.5862 6.61719C25.6543 6.77895 25.6899 6.95255 25.6909 7.12807C25.6919 7.30359 25.6583 7.47759 25.592 7.64011C25.5257 7.80264 25.428 7.95051 25.3046 8.07528C25.1811 8.20005 25.0343 8.29927 24.8725 8.36727Z" fill="#69788C"/>
</g>
<defs>
<clipPath id="clip0_2848_29527">
<rect width="36" height="36" fill="white"/>
</clipPath>
</defs>
</svg>
