<svg width="36" height="36" viewBox="0 0 36 36" fill="none" xmlns="http://www.w3.org/2000/svg">
<g clip-path="url(#clip0_2848_46515)">
<path d="M15.0944 13L25.5 12.5839C22.3465 9.43087 16.0548 3.26531 13.9575 1.16958C13.2064 0.415336 12.2047 0 11.1372 0C9.34983 0 8.25387 1.94245 9.14002 3.46402C10.4335 5.69855 13.4741 10.2032 15.0944 13Z" fill="#69788C"/>
<path d="M31.5198 13.6927L7.25241 14.6631L5.32135 11.7665C5.22505 11.622 5.09457 11.5036 4.94149 11.4216C4.78842 11.3397 4.61747 11.2968 4.44385 11.2968H1.05471C0.898816 11.2969 0.744863 11.3314 0.60393 11.3981C0.462997 11.4647 0.338589 11.5618 0.239655 11.6823C0.140721 11.8028 0.0697213 11.9437 0.0317642 12.0949C-0.00619296 12.2461 -0.0101641 12.4038 0.0201364 12.5568L1.10878 18.0452L0.0208395 23.4399C-0.0100579 23.593 -0.00656021 23.7511 0.0310799 23.9027C0.0687201 24.0543 0.139563 24.1956 0.23849 24.3165C0.337417 24.4374 0.461958 24.5348 0.603114 24.6016C0.744271 24.6685 0.898519 24.7032 1.05471 24.7032H4.44378C4.79646 24.7032 5.12574 24.5269 5.32128 24.2335L7.25234 21.3369L31.5193 22.3073C33.9696 22.4057 36 20.4358 36 18.0006V17.9994C36 15.5564 33.9606 13.5933 31.5198 13.6927Z" fill="#69788C"/>
<path d="M9.14135 32.5347C8.72644 33.2473 8.72545 34.1321 9.13861 34.8455C10.1131 36.5517 12.5828 36.2119 13.9557 34.8333C16.0545 32.7361 22.347 26.5692 25.5004 23.4162L15.0944 23C13.3936 25.9355 10.8413 29.5987 9.14135 32.5347Z" fill="#69788C"/>
</g>
<defs>
<clipPath id="clip0_2848_46515">
<rect width="36" height="36" fill="white"/>
</clipPath>
</defs>
</svg>
