<svg width="36" height="36" viewBox="0 0 36 36" fill="none" xmlns="http://www.w3.org/2000/svg">
<g clip-path="url(#clip0_2912_35387)">
<path d="M18.3978 12.1596H15.7875V17.723H18.3978C19.9799 17.723 20.7709 16.8443 20.7709 15.0863V14.7964C20.7708 13.0387 19.9798 12.1596 18.3978 12.1596Z" fill="#9BA5B2"/>
<path d="M27.497 6.13294H8.50296C7.19606 6.13294 6.1328 7.1962 6.1328 8.50303V27.497C6.1328 28.8039 7.19606 29.8671 8.50296 29.8671H27.4969C28.8038 29.8671 29.8671 28.8038 29.8671 27.497V8.50296C29.8671 7.19606 28.8039 6.13294 27.497 6.13294ZM24.884 14.77C24.884 16.862 24.2908 18.4045 23.1043 19.3975C21.9177 20.3908 20.3489 20.8872 18.3977 20.8872H15.7874V26.5825C15.7874 26.9871 15.585 27.2989 15.1809 27.5186C14.7763 27.7385 14.2931 27.8481 13.7307 27.8481C13.1679 27.8481 12.6847 27.7385 12.2805 27.5186C11.8759 27.2989 11.674 26.9871 11.674 26.5825V9.81295C11.674 9.47925 11.8145 9.18914 12.0959 8.94283C12.3768 8.69688 12.746 8.57377 13.2034 8.57377H18.6614C20.5421 8.57377 22.0496 9.06152 23.1833 10.0371C24.3171 11.0127 24.8839 12.5466 24.8839 14.6382L24.884 14.77Z" fill="#9BA5B2"/>
<path d="M27.6503 0H8.34975C3.74569 0 0 3.74569 0 8.34968V27.6503C0 32.2543 3.74562 36 8.34975 36H27.6504C32.2543 36 36 32.2543 36 27.6502V8.34968C35.9999 3.74569 32.2543 0 27.6503 0ZM27.497 31.9761H8.50296C6.03309 31.9761 4.02377 29.9667 4.02377 27.497V8.50296C4.02377 6.03309 6.03316 4.02384 8.50296 4.02384H27.4969C29.9668 4.02384 31.9761 6.03323 31.9761 8.50296V27.4969C31.9762 29.9668 29.9668 31.9761 27.497 31.9761Z" fill="#9BA5B2"/>
</g>
<defs>
<clipPath id="clip0_2912_35387">
<rect width="36" height="36" fill="white"/>
</clipPath>
</defs>
</svg>
