<svg width="36" height="36" viewBox="0 0 36 36" fill="none" xmlns="http://www.w3.org/2000/svg">
<g clip-path="url(#clip0_2543_33884)">
<path d="M9.20329 32.8402C10.989 32.299 11.9979 30.4127 11.4567 28.627C10.9155 26.8413 9.02922 25.8324 7.24352 26.3736C5.45782 26.9147 4.44894 28.801 4.99011 30.5867C5.53129 32.3724 7.41759 33.3813 9.20329 32.8402Z" fill="#9BA5B2"/>
<path d="M27.5934 32.9897C29.4593 32.9897 30.972 31.4771 30.972 29.6112C30.972 27.7453 29.4593 26.2327 27.5934 26.2327C25.7275 26.2327 24.2149 27.7453 24.2149 29.6112C24.2149 31.4771 25.7275 32.9897 27.5934 32.9897Z" fill="#9BA5B2"/>
<path d="M35.5254 18.4062C34.5319 16.6621 33.4013 14.9998 32.1441 13.4351C31.5564 12.708 30.8163 12.1188 29.9761 11.7089C29.1359 11.299 28.216 11.0784 27.2812 11.0627C26.1562 11.0445 25.0474 11.0339 24.2142 11.0339H24.2058C24.0296 10.1471 23.5706 4.84127 22.8977 4.23734C22.2248 3.63341 21.3742 3.2639 20.4736 3.18422C19.2607 3.07734 14.5041 3 12.2259 3C9.94781 3 5.19469 3.07734 3.97828 3.18422C3.00032 3.27057 2.08394 3.69833 1.38973 4.39254C0.695514 5.08675 0.267754 10.5031 0.181406 11.4811C0.0773437 12.694 0 16.1259 0 18.4034C0 20.6808 0.0773438 24.112 0.184922 25.3256C0.258126 26.1529 0.576022 26.9396 1.09808 27.5855C1.62014 28.2315 2.32272 28.7073 3.11625 28.9523C3.27915 27.6813 3.91061 26.5168 4.887 25.6868C5.8634 24.8569 7.11441 24.4212 8.39513 24.4652C9.67584 24.5092 10.894 25.0296 11.8112 25.9246C12.7283 26.8196 13.2784 28.0247 13.3537 29.3039C14.8795 29.2927 16.8602 29.261 18.3902 29.2167C19.6102 29.2547 21.1268 29.2828 22.4585 29.2976C22.5374 28.0155 23.093 26.8093 24.0161 25.916C24.9392 25.0228 26.1631 24.5073 27.4471 24.4707C28.7311 24.4341 29.9823 24.8792 30.9548 25.7184C31.9273 26.5576 32.5506 27.7302 32.7023 29.0058C33.5382 28.7896 34.2867 28.3199 34.8448 27.6612C35.4029 27.0025 35.7434 26.1871 35.8193 25.327C35.9121 24.2808 35.9824 22.2403 36 20.2371C36.0058 19.5956 35.8421 18.964 35.5254 18.4062ZM32.1019 19.4834H24.4533C24.4533 19.1051 24.4582 18.7416 24.4582 18.4034C24.4582 16.834 24.4209 14.7162 24.3633 13.1545C25.1641 13.1545 26.2048 13.1658 27.2496 13.1827C27.8739 13.1932 28.4883 13.3408 29.0493 13.615C29.6103 13.8893 30.1041 14.2834 30.4959 14.7696C31.3505 15.8316 32.1424 16.9425 32.8676 18.0968C32.9539 18.2336 33.0019 18.3911 33.0066 18.5529C33.0113 18.7146 32.9725 18.8746 32.8943 19.0163C32.8161 19.1579 32.7013 19.2759 32.5619 19.3581C32.4225 19.4403 32.2637 19.4835 32.1019 19.4834Z" fill="#9BA5B2"/>
</g>
<defs>
<clipPath id="clip0_2543_33884">
<rect width="36" height="36" fill="white"/>
</clipPath>
</defs>
</svg>
