<svg width="34" height="36" viewBox="0 0 34 36" fill="none" xmlns="http://www.w3.org/2000/svg">
<path d="M5.33719 22.6774C6.3227 22.0569 7.5272 20.4508 6.7242 19.2828C6.32269 19.8668 5.41019 20.0858 4.78968 20.3048C4.13267 20.5238 3.43917 20.9984 2.78216 21.1444C2.78216 20.6333 2.70916 20.0128 2.23465 19.7208C1.43165 20.3413 1.68714 21.5459 1.97915 22.3489C0.884137 21.8379 0.117632 20.3413 0.00813053 19.2098C-0.101371 18.0053 0.920633 17.1293 1.54114 16.1803C2.89165 14.1728 7.0892 13.8443 8.54921 13.7348C10.8122 12.6033 11.7977 11.8733 13.7688 11.2163C15.8493 10.5227 17.0538 10.9243 19.2438 10.9243C20.2293 10.9243 21.1418 10.9608 22.0543 11.2163C23.1129 11.5448 24.2444 12.1653 25.1934 12.7493C25.9599 13.2603 26.4709 13.8443 27.4199 13.2968C28.4419 12.7128 28.6244 11.3258 28.5514 10.1942C28.3689 8.11372 26.8724 6.79971 26.1424 4.97469C25.6679 3.84318 25.6679 2.31017 26.2154 1.21515C26.4709 0.70415 26.9819 0.0836435 27.5659 0.0106428C28.3324 -0.0988583 28.6609 0.667649 29.3179 0.886651C29.8289 1.06915 31.4349 1.36116 31.3984 1.54366C31.3619 1.68966 29.9384 2.20066 29.5734 2.16416C28.6609 2.05466 27.9309 2.85767 27.9674 3.91618C28.0404 5.3032 28.9894 6.54421 29.7559 7.60272C31.3619 10.0482 30.8874 12.6033 29.2814 14.8663C28.7704 15.5233 28.1499 16.2533 27.7849 16.9833C27.4929 17.6038 27.6754 18.0783 27.6754 18.7353C27.6389 19.2463 27.5659 19.6843 27.3834 20.1588C27.0184 21.1079 26.2154 21.8379 25.4124 22.4219C23.6969 23.6629 21.8353 23.1519 19.9373 22.9694C18.9518 22.8599 17.9298 22.7504 16.9078 22.7139C15.7763 22.7139 14.7543 23.0059 13.6958 23.2979C12.7833 23.5534 11.8708 23.5169 10.9947 23.9184C10.1917 24.2834 9.64422 25.1594 9.27922 25.9259C9.09672 26.3274 8.80471 26.7289 8.69521 27.1669C8.54921 27.6414 8.54922 28.1524 8.43972 28.6634C8.25721 29.6124 8.07471 30.5979 7.89221 31.5105C7.81921 31.912 7.89221 32.5325 7.70971 32.861C7.52721 33.226 6.97969 33.4085 6.65119 33.591C5.92118 34.029 5.22768 34.686 4.42468 34.978C4.05967 35.124 3.65817 35.1605 3.32967 35.343C3.95017 34.7955 3.62166 33.737 4.46117 33.372C4.05966 32.0945 5.55618 32.3135 5.99419 31.766C6.50519 31.182 6.68769 29.7949 6.9067 29.0284C7.2717 27.8969 7.3812 26.7289 7.3812 25.5609C7.3812 24.9769 7.2717 24.4294 7.3082 23.8454C7.3447 23.2614 7.34471 23.2614 7.89221 23.0789C8.65872 22.7869 10.1187 22.4584 10.6297 21.7284C9.82673 22.0204 8.91422 21.9109 8.07471 22.1299C7.34471 22.3489 6.3227 23.0789 5.51969 22.6044M19.4628 24.2834C20.3753 25.5244 19.7183 26.9844 19.6088 27.1669C19.3898 27.4954 19.1343 27.8604 20.8863 28.9919C23.0399 30.3789 25.2299 31.328 27.0184 33.226C27.3834 33.591 28.0769 33.9925 28.3324 34.248C28.7339 34.832 28.5149 35.3065 29.2084 35.6715C29.5734 35.8175 29.9019 35.927 30.1574 35.562C30.5589 36.3285 32.4569 35.781 33.114 36C33.114 35.7445 32.9315 35.416 32.822 35.2335C32.457 34.8685 31.0699 34.8685 30.6319 34.5035C30.0479 34.102 29.6829 33.4815 29.2084 33.007C28.2594 31.9485 26.9454 31.328 25.8139 30.4519C24.3539 29.3204 22.5288 28.7729 21.8353 27.3129C21.5068 26.5464 21.7988 25.1594 21.8718 24.1374C21.2878 24.1374 20.1198 23.9914 19.5358 23.7724L19.4628 24.2834Z" fill="#9BA5B2"/>
</svg>
