<svg width="36" height="36" viewBox="0 0 36 36" fill="none" xmlns="http://www.w3.org/2000/svg">
<g clip-path="url(#clip0_3541_57362)">
<path d="M16.2172 2.25057C15.7952 1.82876 15.223 1.5918 14.6264 1.5918C14.0298 1.5918 13.4576 1.82876 13.0357 2.25057L0.329921 14.9541C0.118676 15.1653 -4.45165e-09 15.4518 0 15.7506C4.45165e-09 16.0493 0.118676 16.3358 0.329921 16.5471C0.541166 16.7583 0.827676 16.877 1.12642 16.877C1.42517 16.877 1.71168 16.7583 1.92292 16.5471L2.25142 16.2163V28.1256C2.25142 29.0207 2.607 29.8791 3.23994 30.5121C3.87287 31.145 4.73132 31.5006 5.62642 31.5006H6.86392C6.78873 31.1303 6.75104 30.7534 6.75142 30.3756V21.1843C6.21397 20.9941 5.73345 20.6709 5.3547 20.2448C4.97596 19.8186 4.71133 19.3035 4.58552 18.7475C4.4597 18.1914 4.4768 17.6125 4.63521 17.0649C4.79362 16.5172 5.08819 16.0186 5.49142 15.6156L17.5357 3.56907L16.2172 2.25057Z" fill="#D1D5DB"/>
<path d="M19.7857 4.50057C20.2076 4.07876 20.7798 3.8418 21.3764 3.8418C21.973 3.8418 22.5452 4.07876 22.9672 4.50057L27.0014 8.53482V5.62557C27.0014 5.3272 27.1199 5.04105 27.3309 4.83007C27.5419 4.61909 27.8281 4.50057 28.1264 4.50057H30.3764C30.6748 4.50057 30.9609 4.61909 31.1719 4.83007C31.3829 5.04105 31.5014 5.3272 31.5014 5.62557V13.0348L35.6729 17.2041C35.8842 17.4153 36.0028 17.7018 36.0028 18.0006C36.0028 18.2993 35.8842 18.5858 35.6729 18.7971C35.4617 19.0083 35.1752 19.127 34.8764 19.127C34.5777 19.127 34.2912 19.0083 34.0799 18.7971L33.7514 18.4663V30.3756C33.7514 31.2707 33.3958 32.1291 32.7629 32.7621C32.13 33.395 31.2715 33.7506 30.3764 33.7506H12.3764C11.4813 33.7506 10.6229 33.395 9.98994 32.7621C9.357 32.1291 9.00142 31.2707 9.00142 30.3756V18.4663L8.67292 18.7971C8.56832 18.9017 8.44415 18.9846 8.30748 19.0412C8.17082 19.0979 8.02434 19.127 7.87642 19.127C7.7285 19.127 7.58202 19.0979 7.44536 19.0412C7.30869 18.9846 7.18452 18.9017 7.07992 18.7971C6.97532 18.6925 6.89235 18.5683 6.83574 18.4316C6.77914 18.295 6.75 18.1485 6.75 18.0006C6.75 17.8526 6.77914 17.7062 6.83574 17.5695C6.89235 17.4328 6.97532 17.3087 7.07992 17.2041L19.7857 4.50057Z" fill="#9BA5B2"/>
</g>
<defs>
<clipPath id="clip0_3541_57362">
<rect width="36" height="36" fill="white"/>
</clipPath>
</defs>
</svg>
