<svg width="36" height="36" viewBox="0 0 36 36" fill="none" xmlns="http://www.w3.org/2000/svg">
<path d="M7.5 14.25C7.5 14.25 3.64275 15.75 3 21M28.5 14.25C28.5 14.25 32.3572 15.75 33 21M13.5 14.25C13.5 14.25 17.1 15.1252 18 19.5C18.9 15.1252 22.5 14.25 22.5 14.25M15 25.5C15 25.5 11.85 26.0625 10.5 30M21 25.5C21 25.5 24.15 26.0625 25.5 30" stroke="#9BA5B2" stroke-width="3" stroke-linecap="round"/>
<path d="M18 27C20.0711 27 21.75 25.3211 21.75 23.25C21.75 21.1789 20.0711 19.5 18 19.5C15.9289 19.5 14.25 21.1789 14.25 23.25C14.25 25.3211 15.9289 27 18 27Z" stroke="#9BA5B2" stroke-width="3" stroke-linecap="round" stroke-linejoin="round"/>
<path d="M25.5 15C27.9853 15 30 12.9853 30 10.5C30 8.01472 27.9853 6 25.5 6C23.0147 6 21 8.01472 21 10.5C21 12.9853 23.0147 15 25.5 15Z" stroke="#9BA5B2" stroke-width="3" stroke-linecap="round" stroke-linejoin="round"/>
<path d="M10.5 15C12.9853 15 15 12.9853 15 10.5C15 8.01472 12.9853 6 10.5 6C8.01472 6 6 8.01472 6 10.5C6 12.9853 8.01472 15 10.5 15Z" stroke="#9BA5B2" stroke-width="3" stroke-linecap="round" stroke-linejoin="round"/>
</svg>
