<svg width="31" height="31" viewBox="0 0 31 31" fill="none" xmlns="http://www.w3.org/2000/svg">
<path d="M0.450469 28.4199L14.8505 14.0199L12.7505 11.8899L11.6705 12.9549C11.5317 13.0939 11.3669 13.2042 11.1854 13.2795C11.0039 13.3548 10.8094 13.3935 10.613 13.3935C10.4165 13.3935 10.222 13.3548 10.0405 13.2795C9.85907 13.2042 9.69424 13.0939 9.55547 12.9549L8.49047 11.8899C8.35141 11.7511 8.24109 11.5863 8.16582 11.4048C8.09055 11.2233 8.0518 11.0288 8.0518 10.8324C8.0518 10.6359 8.09055 10.4414 8.16582 10.2599C8.24109 10.0785 8.35141 9.91363 8.49047 9.77486L16.9805 1.28486C17.1192 1.1458 17.2841 1.03548 17.4655 0.960209C17.647 0.884937 17.8415 0.846191 18.038 0.846191C18.2344 0.846191 18.4289 0.884937 18.6104 0.960209C18.7919 1.03548 18.9567 1.1458 19.0955 1.28486L20.1605 2.34986C20.7455 2.93486 20.7455 3.87986 20.1605 4.46486L19.0955 5.49986L21.2255 7.64486C21.3642 7.5058 21.5291 7.39548 21.7105 7.32021C21.892 7.24494 22.0865 7.20619 22.283 7.20619C22.4794 7.20619 22.6739 7.24494 22.8554 7.32021C23.0369 7.39548 23.2017 7.5058 23.3405 7.64486C23.9255 8.22986 23.9255 9.18986 23.3405 9.77486L25.4555 11.8899L26.5205 10.8249C27.1055 10.2399 28.0655 10.2399 28.6505 10.8249L29.7005 11.8899C30.2855 12.4749 30.2855 13.4349 29.7005 14.0199L21.2255 22.4949C20.6405 23.0799 19.6805 23.0799 19.0955 22.4949L18.0455 21.4449C17.903 21.3065 17.7898 21.1409 17.7125 20.958C17.6352 20.775 17.5954 20.5785 17.5954 20.3799C17.5954 20.1813 17.6352 19.9847 17.7125 19.8018C17.7898 19.6188 17.903 19.4533 18.0455 19.3149L19.0955 18.2499L16.9805 16.1349L2.56547 30.5499C2.4267 30.6889 2.26187 30.7992 2.08041 30.8745C1.89895 30.9498 1.70442 30.9885 1.50797 30.9885C1.31152 30.9885 1.11699 30.9498 0.935532 30.8745C0.754072 30.7992 0.589239 30.6889 0.450469 30.5499C-0.134531 29.9649 -0.134531 29.0049 0.450469 28.4199ZM27.0005 26.4999C27.7961 26.4999 28.5592 26.8159 29.1218 27.3785C29.6844 27.9411 30.0005 28.7042 30.0005 29.4999V30.9999H15.0005V29.4999C15.0005 28.7042 15.3165 27.9411 15.8791 27.3785C16.4418 26.8159 17.2048 26.4999 18.0005 26.4999H27.0005Z" fill="#9BA5B2"/>
</svg>
