<svg width="36" height="36" viewBox="0 0 36 36" fill="none" xmlns="http://www.w3.org/2000/svg">
<path d="M24.477 5.74664C24.4287 6.21107 24.2221 6.64476 23.8919 6.97493C23.5617 7.30511 23.128 7.51168 22.6636 7.56C21.9823 7.63102 19.0559 7.66406 18.0012 7.66406C16.9465 7.66406 14.0201 7.6282 13.3388 7.55719C12.8748 7.50898 12.4414 7.30281 12.1113 6.9732C11.7812 6.6436 11.5743 6.21057 11.5254 5.74664C11.4548 5.09441 11.4191 4.43886 11.4185 3.78281C11.4185 3.78281 11.4038 2.6093 11.5254 1.92094C11.5734 1.45633 11.7799 1.02241 12.1101 0.692071C12.4403 0.36173 12.8742 0.155094 13.3388 0.106875C14.0201 0.0358594 16.9465 0 18.0012 0C19.0559 0 21.9823 0.0358594 22.6636 0.106875C23.1282 0.155094 23.562 0.36173 23.8922 0.692071C24.2225 1.02241 24.4289 1.45633 24.477 1.92094C24.5514 2.53873 24.5871 3.16057 24.5838 3.78281C24.5838 3.78281 24.586 4.97109 24.477 5.74664Z" fill="#9BA5B2"/>
<path d="M26.9167 6.00047C26.8097 7.02536 26.3537 7.98233 25.625 8.71098C24.8964 9.43963 23.9394 9.89566 22.9145 10.0027C21.9766 10.1004 18.4905 10.125 17.9983 10.125C17.5061 10.125 14.02 10.1032 13.082 10.0055C12.0569 9.89855 11.0997 9.44235 10.371 8.71339C9.64227 7.98444 9.1864 7.02707 9.07984 6.00187L8.96031 3.75187C7.54984 4.2306 6.30625 5.10381 5.37704 6.26794C4.44784 7.43206 3.87199 8.83826 3.71781 10.3198C3.44641 12.9284 3.30859 15.4441 3.30859 19.4801C3.30859 23.516 3.44922 26.0311 3.71781 28.6397C3.90297 30.42 4.69481 32.0825 5.96047 33.3481C7.22613 34.6138 8.88859 35.4056 10.6689 35.5908C10.6689 35.5908 13.2761 36 17.8035 36C22.3591 36 25.327 35.5908 25.327 35.5908C27.1073 35.4056 28.7697 34.6138 30.0354 33.3481C31.301 32.0825 32.0929 30.42 32.278 28.6397C32.5495 26.0311 32.6873 23.5146 32.6873 19.4801C32.6873 15.4455 32.5466 12.9291 32.278 10.3198C32.1248 8.83739 31.5493 7.43013 30.6201 6.26506C29.6908 5.09998 28.4467 4.22603 27.0355 3.74695L26.9167 6.00047ZM18.9981 25.2977H10.8805C10.4742 25.2891 10.0875 25.1216 9.8032 24.8312C9.5189 24.5408 9.35969 24.1506 9.35969 23.7442C9.35969 23.3378 9.5189 22.9476 9.8032 22.6572C10.0875 22.3667 10.4742 22.1993 10.8805 22.1906H18.9981C19.2049 22.1862 19.4105 22.2232 19.6029 22.2993C19.7952 22.3753 19.9704 22.4891 20.1182 22.6338C20.266 22.7785 20.3834 22.9512 20.4636 23.1419C20.5438 23.3326 20.5851 23.5373 20.5851 23.7442C20.5851 23.951 20.5438 24.1558 20.4636 24.3465C20.3834 24.5371 20.266 24.7099 20.1182 24.8546C19.9704 24.9993 19.7952 25.113 19.6029 25.1891C19.4105 25.2652 19.2049 25.3021 18.9981 25.2977ZM25.1153 18.6504H10.8805C10.4684 18.6504 10.0732 18.4867 9.78177 18.1953C9.49036 17.9038 9.32664 17.5086 9.32664 17.0965C9.32664 16.6844 9.49036 16.2891 9.78177 15.9977C10.0732 15.7063 10.4684 15.5426 10.8805 15.5426H25.116C25.5281 15.5426 25.9234 15.7063 26.2148 15.9977C26.5062 16.2891 26.6699 16.6844 26.6699 17.0965C26.6699 17.5086 26.5062 17.9038 26.2148 18.1953C25.9234 18.4867 25.5274 18.6504 25.1153 18.6504Z" fill="#9BA5B2"/>
</svg>
