<svg width="36" height="36" viewBox="0 0 36 36" fill="none" xmlns="http://www.w3.org/2000/svg">
<path fill-rule="evenodd" clip-rule="evenodd" d="M29.7129 20.9068V17.3908C29.7129 16.9651 29.3679 16.6197 28.9418 16.6197H22.8041C22.3781 16.6197 22.0327 16.9651 22.0327 17.3908V20.9068H18.517C18.0909 20.9068 17.7456 21.2522 17.7456 21.6779V27.8159C17.7456 28.2416 18.0909 28.587 18.517 28.587H22.0327V32.103C22.0327 32.5288 22.3781 32.8741 22.8041 32.8741H28.9418C29.3679 32.8741 29.7129 32.5288 29.7129 32.103V28.587H33.2289C33.655 28.587 34 28.2416 34 27.8159V21.6779C34 21.2522 33.655 20.9068 33.2289 20.9068H29.7129ZM8.92295 2.87438L8.92073 2.87586C8.87853 2.90399 8.83929 2.93583 8.80301 2.97136L3.79923 7.90481C3.30947 8.32905 3 8.9554 3 9.65394C3 13.9725 3 26.1497 3 30.4683C3 31.7462 4.03578 32.782 5.31365 32.782H18.4271C18.8528 32.782 19.1985 32.4366 19.1985 32.0109C19.1985 31.5852 18.8528 31.2394 18.4271 31.2394H5.31365C4.88757 31.2394 4.54219 30.8944 4.54219 30.4683C4.54219 26.1497 4.54219 13.9725 4.54219 9.65394C4.54219 9.43442 4.63399 9.23637 4.78133 9.09607C4.80021 9.08126 4.81835 9.06534 4.83612 9.04832C4.96753 8.94466 5.13337 8.88284 5.31365 8.88284H7.60139C8.86002 8.88284 9.88803 7.87668 9.91468 6.61842L9.96391 4.29737C9.9728 3.87795 10.3152 3.54256 10.735 3.54256H24.3304C24.7565 3.54256 25.1019 3.88757 25.1019 4.31365C25.1019 7.45097 25.1019 14.2812 25.1019 14.2812C25.1019 14.707 25.4473 15.0527 25.873 15.0527C26.2987 15.0527 26.6441 14.707 26.6441 14.2812C26.6441 14.2812 26.6441 7.45097 26.6441 4.31365C26.6441 3.03578 25.6083 2 24.3304 2C21.1483 2 13.8893 2 10.735 2C10.002 2 9.34756 2.34094 8.92295 2.87438ZM28.1707 21.6779C28.1707 22.104 28.5157 22.4494 28.9418 22.4494H32.4578V27.0445H28.9418C28.5157 27.0445 28.1707 27.3899 28.1707 27.8159V31.3316H23.5752V27.8159C23.5752 27.3899 23.2298 27.0445 22.8041 27.0445H19.2881V22.4494H22.8041C23.2298 22.4494 23.5752 22.104 23.5752 21.6779V18.1623H28.1707V21.6779ZM9.53561 22.7944H14.9555C15.3812 22.7944 15.7266 22.449 15.7266 22.0233C15.7266 21.5976 15.3812 21.2518 14.9555 21.2518H9.53561C9.1099 21.2518 8.76451 21.5976 8.76451 22.0233C8.76451 22.449 9.1099 22.7944 9.53561 22.7944ZM9.53561 18.1652H14.9555C15.3812 18.1652 15.7266 17.8198 15.7266 17.3941C15.7266 16.9684 15.3812 16.623 14.9555 16.623H9.53561C9.1099 16.623 8.76451 16.9684 8.76451 17.3941C8.76451 17.8198 9.1099 18.1652 9.53561 18.1652ZM9.53561 13.5301H20.3754C20.8011 13.5301 21.1464 13.1844 21.1464 12.7587C21.1464 12.333 20.8011 11.9876 20.3754 11.9876H9.53561C9.1099 11.9876 8.76451 12.333 8.76451 12.7587C8.76451 13.1844 9.1099 13.5301 9.53561 13.5301ZM8.3947 5.54008L6.56858 7.34028H7.60139C8.02118 7.34028 8.36361 7.0049 8.37249 6.58548L8.3947 5.54008Z" fill="#9BA5B2"/>
</svg>
