<svg width="36" height="36" viewBox="0 0 36 36" fill="none" xmlns="http://www.w3.org/2000/svg">
<path d="M23.4147 18.0005C23.4147 20.9863 20.9858 23.4151 18 23.4151C15.0143 23.4151 12.5854 20.9863 12.5854 18.0005C12.5854 15.0147 15.0143 12.5858 18 12.5858C20.9858 12.5858 23.4147 15.0147 23.4147 18.0005ZM18 0.000488281C8.07525 0.000488281 0 8.0758 0 18.0005C0 27.9252 8.07525 36.0005 18 36.0005C21.636 36.0005 25.1427 34.9182 28.1397 32.8696L28.1913 32.8336L25.7658 30.0143L25.7253 30.0413C23.418 31.5252 20.7462 32.3105 18 32.3105C10.1093 32.3105 3.69 25.8912 3.69 18.0005C3.69 10.1098 10.1093 3.69049 18 3.69049C25.8908 3.69049 32.31 10.1098 32.31 18.0005C32.31 19.0231 32.1963 20.0581 31.9725 21.0762C31.5203 22.9336 30.2198 23.5028 29.2433 23.4275C28.2612 23.3476 27.1125 22.6478 27.1047 20.9356V19.6306V18.0005C27.1047 12.9796 23.0208 8.89583 18 8.89583C12.9792 8.89583 8.89538 12.9796 8.89538 18.0005C8.89538 23.0213 12.9792 27.1051 18 27.1051C20.439 27.1051 22.7262 26.1511 24.4508 24.4175C25.4532 25.9778 27.0878 26.9566 28.9473 27.1051C29.1072 27.1186 29.2703 27.1253 29.4323 27.1253C30.7407 27.1253 32.0388 26.6877 33.0852 25.8923C34.164 25.0733 34.9695 23.8887 35.415 22.4656C35.4858 22.2361 35.6163 21.7096 35.6175 21.7063L35.6208 21.6871C35.883 20.5453 36 19.4068 36 18.0005C36 8.0758 27.9248 0.000488281 18 0.000488281Z" fill="#9BA5B2"/>
</svg>
