<svg class="microcredit" xmlns="http://www.w3.org/2000/svg" width="36" height="36" viewBox="0 0 36 36" fill="none">
    <path d="M4.758 10.758C6.0225 9.492 7.845 9.138 10.878 9.039L13.128 9.003C13.7145 9 14.34 9 15 9H21C21.6615 9 22.2855 9 22.872 9.003L25.122 9.039C28.155 9.138 29.9775 9.492 31.242 10.758C33 12.5145 33 15.3435 33 21C33 26.6565 33 29.4855 31.242 31.242C29.4855 33 26.6565 33 21 33H15C9.3435 33 6.5145 33 4.758 31.242C3 29.4855 3 26.6565 3 21C3 15.3435 3 12.5145 4.758 10.758Z" fill="#D1D5DB"/>
    <path d="M19.1298 15C19.1298 14.7016 19.0113 14.4155 18.8003 14.2045C18.5893 13.9935 18.3032 13.875 18.0048 13.875C17.7064 13.875 17.4203 13.9935 17.2093 14.2045C16.9983 14.4155 16.8798 14.7016 16.8798 15V15.015C15.2463 15.426 13.8798 16.7145 13.8798 18.4995C13.8798 20.685 15.9273 22.125 18.0048 22.125C19.2408 22.125 19.8798 22.9245 19.8798 23.5005C19.8798 24.0765 19.2408 24.8745 18.0048 24.8745C16.7688 24.8745 16.1298 24.0765 16.1298 23.5005C16.1298 23.2021 16.0113 22.916 15.8003 22.705C15.5893 22.494 15.3032 22.3755 15.0048 22.3755C14.7064 22.3755 14.4203 22.494 14.2093 22.705C13.9983 22.916 13.8798 23.2021 13.8798 23.5005C13.8798 25.2855 15.2463 26.5725 16.8798 26.985V27C16.8798 27.2984 16.9983 27.5845 17.2093 27.7955C17.4203 28.0065 17.7064 28.125 18.0048 28.125C18.3032 28.125 18.5893 28.0065 18.8003 27.7955C19.0113 27.5845 19.1298 27.2984 19.1298 27V26.985C20.7633 26.574 22.1298 25.2855 22.1298 23.5005C22.1298 21.315 20.0823 19.875 18.0048 19.875C16.7688 19.875 16.1298 19.0755 16.1298 18.4995C16.1298 17.9235 16.7688 17.1255 18.0048 17.1255C19.2408 17.1255 19.8798 17.9235 19.8798 18.4995C19.8798 18.7979 19.9983 19.084 20.2093 19.295C20.4203 19.506 20.7064 19.6245 21.0048 19.6245C21.3032 19.6245 21.5893 19.506 21.8003 19.295C22.0113 19.084 22.1298 18.7979 22.1298 18.4995C22.1298 16.7145 20.7633 15.426 19.1298 15.015V15ZM18.0828 1.875H17.9268C16.5798 1.875 15.4548 1.875 14.5638 1.995C13.6218 2.121 12.7713 2.4 12.0888 3.0825C11.4048 3.7665 11.1258 4.617 10.9998 5.5575C10.9143 6.198 10.8903 7.7265 10.8828 9.0375L13.1328 9.003C13.1403 7.7325 13.1628 6.366 13.2303 5.8575C13.3233 5.166 13.4838 4.869 13.6803 4.674C13.8753 4.479 14.1708 4.3185 14.8638 4.224C15.5883 4.128 16.5588 4.125 18.0048 4.125C19.4508 4.125 20.4228 4.128 21.1473 4.2255C21.8388 4.3185 22.1358 4.479 22.3308 4.6755C22.5258 4.8705 22.6878 5.166 22.7808 5.8575C22.8483 6.3675 22.8708 7.7325 22.8768 9.003L25.1268 9.039C25.1208 7.7265 25.0968 6.198 25.0098 5.559C24.8838 4.617 24.6048 3.7665 23.9223 3.084C23.2383 2.4 22.3878 2.121 21.4473 1.995C20.5548 1.875 19.4313 1.875 18.0828 1.875Z" fill="#9BA5B2"/>
</svg>