<svg width="36" height="36" viewBox="0 0 36 36" fill="none" xmlns="http://www.w3.org/2000/svg">
<path d="M29.25 21.375C29.25 24.3587 28.0647 27.2202 25.955 29.33C23.8452 31.4397 20.9837 32.625 18 32.625C15.0163 32.625 12.1548 31.4397 10.045 29.33C7.93526 27.2202 6.75 24.3587 6.75 21.375C6.75 12.375 13.5 3.375 18 3.375C22.5 3.375 29.25 12.375 29.25 21.375Z" fill="#D1D5DB"/>
<path d="M26.2491 8.37563C23.6911 4.54078 20.6072 2.25 18 2.25C15.3928 2.25 12.3089 4.54078 9.75094 8.37563C7.12969 12.3103 5.625 17.048 5.625 21.375C5.625 24.6571 6.92879 27.8047 9.24955 30.1254C11.5703 32.4462 14.7179 33.75 18 33.75C21.2821 33.75 24.4297 32.4462 26.7504 30.1254C29.0712 27.8047 30.375 24.6571 30.375 21.375C30.375 17.048 28.8703 12.3103 26.2491 8.37563ZM18 31.5C15.3156 31.497 12.742 30.4293 10.8438 28.5312C8.94567 26.633 7.87798 24.0594 7.875 21.375C7.875 17.4811 9.24188 13.1977 11.6241 9.62438C13.6673 6.55875 16.2295 4.5 18 4.5C19.7705 4.5 22.3327 6.55875 24.3759 9.62438C26.7581 13.1977 28.125 17.4811 28.125 21.375C28.122 24.0594 27.0543 26.633 25.1562 28.5312C23.258 30.4293 20.6844 31.497 18 31.5Z" fill="#9BA5B2"/>
</svg>
