<svg class="mvd" width="36" height="36" viewBox="0 0 36 36" fill="none" xmlns="http://www.w3.org/2000/svg">
<path d="M24 21C27.561 22.7745 30 26.475 30 31.5V34.5H6V31.5C6 26.469 8.4465 22.7625 12 21M26.8545 10.5C27.1815 11.439 26.8545 12.4485 26.8545 13.5015C26.8545 18.471 22.89 22.5 18 22.5C13.107 22.5 9.1395 18.471 9.1395 13.5015C9.1395 12.4695 8.8245 11.4225 9.1395 10.5M9 12H27L31.5 6C28.632 3.3975 23.685 1.5 18 1.5C12.246 1.5 7.248 3.444 4.5 6L9 12ZM18 7.5C18.3978 7.5 18.7794 7.34196 19.0607 7.06066C19.342 6.77936 19.5 6.39782 19.5 6H16.5C16.5 6.39782 16.658 6.77936 16.9393 7.06066C17.2206 7.34196 17.6022 7.5 18 7.5Z" stroke="#9BA5B2" stroke-width="3"/>
</svg>
