<svg class="new_gos_users" width="36" height="36" viewBox="0 0 36 36" fill="none" xmlns="http://www.w3.org/2000/svg">
<path d="M29.1462 18.3319H28.0582C28.0405 18.3331 28.0239 18.3407 28.0114 18.3532C27.9989 18.3657 27.9914 18.3823 27.9902 18.3999V21.8519C27.7526 21.9199 27.5142 21.9539 27.2426 21.9539C26.5286 21.9539 26.3586 21.7331 26.3586 20.7807V18.3999C26.3574 18.3823 26.3498 18.3657 26.3373 18.3532C26.3248 18.3407 26.3082 18.3331 26.2906 18.3319H25.2034C25.1857 18.3331 25.1691 18.3407 25.1566 18.3532C25.1441 18.3657 25.1366 18.3823 25.1354 18.3999V20.8999C25.1354 22.4639 25.6622 23.0595 27.0046 23.0595C27.7694 23.0595 28.6362 22.8555 29.1462 22.6683C29.163 22.6511 29.1798 22.6343 29.1798 22.6171V18.4003C29.2138 18.3663 29.1798 18.3323 29.1462 18.3323V18.3319ZM6.10096 18.3491H4.99616C4.96216 18.3491 4.94536 18.3659 4.94536 18.3999C4.77536 19.0799 4.41856 20.2363 3.94256 21.4439L2.83816 18.3831C2.82096 18.3659 2.80416 18.3491 2.78696 18.3491H1.66536C1.64816 18.3491 1.63136 18.3659 1.61416 18.3831C1.59736 18.3999 1.59736 18.4171 1.61416 18.4339L3.27976 22.9915C3.13185 23.303 2.97308 23.6092 2.80376 23.9095C2.68496 24.1135 2.58296 24.3175 2.48096 24.5387C2.46416 24.5559 2.46416 24.5727 2.48096 24.5899C2.49816 24.6067 2.51496 24.6239 2.53216 24.6239H3.73856C3.75576 24.6239 3.78976 24.6067 3.78976 24.5899C4.04063 24.1 4.27305 23.6008 4.48656 23.0935C5.20016 21.4267 5.76096 19.8623 6.18616 18.4339C6.18616 18.4171 6.18616 18.3999 6.16896 18.3831C6.13496 18.3491 6.11816 18.3491 6.10096 18.3491ZM10.061 21.8519C10.0604 21.8431 10.0566 21.8348 10.0504 21.8285C10.0441 21.8222 10.0358 21.8185 10.027 21.8179H9.97576C9.70376 21.9199 9.21096 21.9879 8.87096 21.9879C8.10656 21.9879 7.74936 21.7839 7.74936 20.6279C7.74936 19.6923 7.86856 19.2671 8.87096 19.2671C9.16016 19.2671 9.41496 19.3011 9.75496 19.4031C9.78896 19.4031 9.80576 19.4031 9.82296 19.3691L10.2646 18.4851V18.4339C10.264 18.4251 10.2602 18.4168 10.254 18.4105C10.2477 18.4042 10.2394 18.4005 10.2306 18.3999C9.76213 18.2576 9.27572 18.1831 8.78616 18.1787C7.20576 18.1787 6.49176 18.9271 6.49176 20.6107C6.49176 22.3111 7.20576 23.0763 8.78616 23.0763C9.17696 23.0763 9.97576 22.9915 10.3498 22.8383C10.3838 22.8211 10.4006 22.7871 10.3838 22.7531L10.061 21.8519ZM20.4106 18.3491H19.3062C19.2722 18.3491 19.255 18.3659 19.255 18.3999C19.085 19.0971 18.7282 20.2363 18.2522 21.4439L17.1478 18.3831C17.1306 18.3659 17.1138 18.3491 17.0966 18.3491H15.975C15.9582 18.3491 15.941 18.3659 15.9242 18.3831C15.907 18.3999 15.907 18.4171 15.9242 18.4339L17.5894 22.9915C17.4414 23.303 17.2827 23.6092 17.1134 23.9095C16.9946 24.1135 16.8926 24.3175 16.7906 24.5387C16.7738 24.5559 16.7738 24.5727 16.7906 24.5899C16.8078 24.6067 16.8246 24.6239 16.8418 24.6239H18.0482C18.0654 24.6239 18.0994 24.6067 18.0994 24.5899C18.3502 24.1 18.5827 23.6008 18.7962 23.0935C19.493 21.4267 20.0706 19.8623 20.4958 18.4339C20.4958 18.4171 20.4958 18.3999 20.4786 18.3831C20.4446 18.3491 20.4278 18.3491 20.4106 18.3491ZM24.4894 18.3319H21.2774C21.2597 18.3331 21.2431 18.3407 21.2306 18.3532C21.2181 18.3657 21.2106 18.3823 21.2094 18.3999V22.8723C21.2094 22.9063 21.2434 22.9403 21.2774 22.9403H22.3654C22.399 22.9403 22.4334 22.9063 22.4334 22.8723V19.4031H24.1154C24.1326 19.4031 24.1666 19.3863 24.1666 19.3691C24.3026 19.0631 24.4214 18.7399 24.5574 18.4171V18.3659C24.5234 18.3491 24.5066 18.3319 24.4894 18.3319Z" fill="#D1D5DB"/>
<path d="M7.39286 11.4615C5.82926 11.4615 5.21766 12.1415 5.21766 13.8591C5.21766 15.6107 5.82966 16.2911 7.39286 16.2911C8.97326 16.2911 9.58486 15.6107 9.58486 13.8591C9.58486 12.1415 8.97326 11.4615 7.39286 11.4615ZM7.39286 15.3047C6.67926 15.3047 6.45806 15.1175 6.45806 13.8931C6.45806 12.6011 6.69606 12.4819 7.39286 12.4819C8.10686 12.4819 8.34486 12.6007 8.34486 13.8931C8.34486 15.1007 8.12366 15.3047 7.39286 15.3047ZM13.9361 15.1175C13.9355 15.1087 13.9317 15.1004 13.9255 15.0941C13.9192 15.0879 13.9109 15.0841 13.9021 15.0835H13.8509C13.5789 15.1855 13.0861 15.2535 12.7465 15.2535C11.9817 15.2535 11.6245 15.0495 11.6245 13.8935C11.6245 12.9575 11.7265 12.5327 12.7465 12.5327C13.0353 12.5327 13.2905 12.5667 13.6301 12.6687C13.6641 12.6687 13.6809 12.6687 13.6981 12.6347L14.1397 11.7507V11.6995C14.1391 11.6907 14.1353 11.6824 14.1291 11.6761C14.1228 11.6699 14.1145 11.6661 14.1057 11.6655C13.6374 11.5232 13.1511 11.4487 12.6617 11.4443C11.0809 11.4443 10.3669 12.1923 10.3669 13.8763C10.3669 15.5763 11.0809 16.3419 12.6613 16.3419C13.0521 16.3419 13.8509 16.2567 14.2249 16.1039C14.2589 16.0867 14.2757 16.0527 14.2589 16.0187L13.9361 15.1175ZM1.66566 11.5975C1.64802 11.5987 1.63142 11.6063 1.61892 11.6188C1.60642 11.6313 1.59887 11.6479 1.59766 11.6655V16.1375C1.59766 16.1719 1.63166 16.2055 1.66566 16.2055H2.75366C2.78726 16.2055 2.82166 16.1719 2.82166 16.1375V12.6687H4.50366C4.52086 12.6687 4.55486 12.6519 4.55486 12.6347C4.69086 12.3287 4.80966 12.0055 4.94566 11.6827V11.6315C4.92846 11.6143 4.91166 11.5975 4.89446 11.5975H1.66566Z" fill="#9BA5B2"/>
<path fill-rule="evenodd" clip-rule="evenodd" d="M34.2278 22.464V22.396C34.2278 22.362 34.2278 22.3108 34.245 22.2768C34.2958 21.6476 34.3298 20.8824 34.3638 19.998V19.93L34.3978 18.0256C34.3978 17.3624 34.381 16.716 34.3638 16.1208V16.0528L34.245 13.7744C34.245 13.74 34.245 13.6892 34.2278 13.6552V13.5872C34.2278 13.5192 34.211 13.468 34.211 13.4V13.332C34.1598 12.6688 34.1258 12.2608 34.109 12.2268C34.109 12.1588 34.0918 12.0908 34.0918 12.0396V11.9888C34.0774 11.874 34.0546 11.7604 34.0238 11.6488C34.0238 11.6316 34.0238 11.6144 34.007 11.5976C33.7182 10.22 32.9534 8.7068 32.0014 7.5672C31.6278 7.1252 31.2366 6.734 30.829 6.428C29.2936 5.29587 27.6994 4.24574 26.053 3.282C23.555 1.8024 21.3118 0.782 21.023 0.646C21.0058 0.646 21.0058 0.6292 21.0058 0.6292C20.343 0.34 19.5442 0.136 18.6778 0.0512C18.5078 0.034 18.3378 0.0172 18.1678 0.0172C18.0146 0.0172 17.8618 0 17.709 0H17.471C16.2982 0.0172 15.2278 0.238 14.3778 0.6292C14.2418 0.6804 11.9818 1.7172 9.41543 3.214L9.31343 3.2648C7.67359 4.24493 6.08002 5.30046 4.53783 6.428C3.89223 6.904 3.31423 7.516 2.78743 8.2984C2.66863 8.4856 2.66863 8.9276 3.17823 8.9276H4.48703C5.04783 8.9276 5.18383 8.5876 5.81263 8.1284C6.50943 7.6184 7.88583 6.598 10.401 5.1016C12.2194 4.0304 13.919 3.1968 14.7346 2.8056C14.7518 2.8056 14.7686 2.7888 14.7858 2.7888C14.7858 2.7888 14.8026 2.7888 14.8026 2.772C14.8026 2.772 14.8198 2.772 14.8198 2.7548C14.8366 2.7548 14.8538 2.738 14.8538 2.738C14.8706 2.738 14.8878 2.7208 14.9046 2.7208C15.1086 2.6188 15.2446 2.5676 15.2446 2.5676C15.8226 2.3128 16.6382 2.1428 17.5046 2.1256H17.8446C18.0998 2.1256 18.3546 2.1428 18.5926 2.1768C19.1194 2.2448 19.5954 2.3468 19.9862 2.5168C20.0202 2.5336 20.071 2.5508 20.105 2.5676C21.765 3.33993 23.3871 4.19117 24.9658 5.1184C26.5449 6.05015 28.0763 7.06048 29.5542 8.1456C29.877 8.3836 30.2002 8.7236 30.5062 9.0976C31.2706 10.084 31.8994 11.4276 32.0014 12.4648C32.0014 12.482 32.0526 12.89 32.1034 13.5872C32.1034 13.638 32.1034 13.672 32.1206 13.7232V13.8252C32.1206 13.8932 32.1374 13.9444 32.1374 14.0124V14.0804C32.1374 14.1144 32.1374 14.1652 32.1546 14.1992C32.1546 14.2844 32.1714 14.3692 32.1714 14.4544C32.1714 14.5056 32.1714 14.5564 32.1886 14.6076V14.6416C32.1886 14.7096 32.1886 14.7604 32.2054 14.8284V14.9644C32.3202 16.9924 32.3202 19.0244 32.2054 21.0524V21.1884C32.2054 21.2564 32.2054 21.3076 32.1886 21.3756V21.4096C32.1886 21.4604 32.1886 21.5116 32.1714 21.5624C32.1714 21.6476 32.1546 21.7328 32.1546 21.8176C32.1546 21.8688 32.1546 21.9028 32.1374 21.9368V22.0048C32.1374 22.0728 32.1206 22.1236 32.1206 22.1916V22.294C32.1206 22.3448 32.1206 22.396 32.1034 22.43C32.0526 23.1272 32.0014 23.552 32.0014 23.552C31.8994 24.5896 31.2706 25.9328 30.5058 26.9192C30.2002 27.3104 29.877 27.6336 29.5542 27.8712C29.5374 27.8712 29.0954 28.2116 28.3646 28.7216C25.7742 30.5189 23.0335 32.0893 20.173 33.4152L20.105 33.4492C20.071 33.4664 20.0202 33.4832 19.9862 33.5004C19.5954 33.6532 19.1194 33.7724 18.5926 33.8404C18.3546 33.8744 18.0998 33.8912 17.8446 33.8912H17.5046C16.6382 33.8744 15.8226 33.7212 15.2446 33.4492C15.2446 33.4492 15.1258 33.3984 14.9046 33.296C14.8878 33.2792 14.8538 33.2792 14.8366 33.262C14.8198 33.2452 14.8026 33.2452 14.7858 33.228C14.7686 33.228 14.7686 33.2112 14.7518 33.2112C14.7346 33.2112 14.7178 33.194 14.701 33.194C14.6838 33.1772 14.667 33.1772 14.633 33.16H14.6158C13.1734 32.4734 11.7614 31.7245 10.3838 30.9156C7.85183 29.436 6.49223 28.3988 5.79583 27.8884C5.16663 27.4292 5.03063 27.0892 4.46983 27.0892H3.17823C2.66863 27.0892 2.66863 27.5316 2.78743 27.7012C3.31423 28.484 3.89223 29.096 4.53783 29.572C4.62303 29.64 6.69623 31.1704 9.31383 32.718C9.44943 32.8032 9.58543 32.888 9.73823 32.956C12.1686 34.3504 14.259 35.3028 14.3782 35.3708C15.2106 35.7448 16.2982 35.966 17.4542 36H17.6918C17.845 36 17.9978 36 18.1506 35.9828C18.3206 35.9828 18.4906 35.966 18.6606 35.9488C19.5274 35.864 20.343 35.66 20.9886 35.3708C20.9886 35.3708 21.0058 35.3708 21.0058 35.354C21.2946 35.218 23.5378 34.1804 26.0362 32.718C27.2335 32.0091 28.4069 31.2604 29.5542 30.4732L30.8118 29.572C31.2198 29.266 31.6106 28.8748 31.9846 28.4328C32.9366 27.2932 33.701 25.78 33.9898 24.4024C33.9898 24.3856 33.9898 24.3684 34.007 24.3516C34.0238 24.2324 34.0578 24.1132 34.075 24.0116V23.96C34.0918 23.892 34.0918 23.824 34.0918 23.7728C34.0918 23.7388 34.143 23.3308 34.1938 22.6676V22.5996C34.2278 22.5824 34.2278 22.5148 34.2278 22.464Z" fill="#9BA5B2"/>
<path d="M15.0597 18.332H11.7285C11.6945 18.332 11.6777 18.3492 11.6605 18.3832C11.5757 19.8964 11.2869 21.512 10.8789 22.8384C10.8789 22.8552 10.8789 22.8724 10.8957 22.8892C10.9129 22.9064 10.9297 22.9064 10.9469 22.9064H12.0857C12.1193 22.9064 12.1365 22.8892 12.1365 22.8724C12.4593 21.8524 12.7145 20.5256 12.8165 19.4032H13.9041V22.8552C13.9041 22.8892 13.9381 22.9232 13.9721 22.9232H15.0597C15.0937 22.9232 15.1277 22.8892 15.1277 22.8552V18.3832C15.1277 18.366 15.0937 18.332 15.0597 18.332Z" fill="#D1D5DB"/>
<path d="M20.25 5.04L22.59 0H34.29L34.875 15.75H24.345L20.25 5.04Z" fill="white"/>
<path d="M33.641 11.9973C32.8577 10.6226 31.6346 9.55149 30.1687 8.95635C30.8977 8.40959 31.4362 7.64731 31.7079 6.77749C31.9796 5.90768 31.9707 4.97442 31.6826 4.10991C31.3944 3.24541 30.8415 2.49349 30.1023 1.96066C29.363 1.42783 28.4749 1.14111 27.5636 1.14111C26.6523 1.14111 25.7641 1.42783 25.0249 1.96066C24.2856 2.49349 23.7328 3.24541 23.4446 4.10991C23.1564 4.97442 23.1476 5.90768 23.4193 6.77749C23.691 7.64731 24.2295 8.40959 24.9585 8.95635C23.4925 9.55149 22.2695 10.6226 21.4862 11.9973C21.4377 12.0754 21.4053 12.1624 21.3911 12.2532C21.3769 12.3439 21.381 12.4367 21.4033 12.5258C21.4256 12.615 21.4657 12.6987 21.521 12.7721C21.5763 12.8455 21.6458 12.907 21.7254 12.953C21.805 12.9989 21.893 13.0284 21.9842 13.0397C22.0754 13.051 22.1679 13.0438 22.2563 13.0186C22.3447 12.9934 22.4271 12.9507 22.4987 12.8931C22.5702 12.8354 22.6294 12.7639 22.6728 12.6829C23.708 10.8936 25.5361 9.82642 27.5636 9.82642C29.5911 9.82642 31.4192 10.8942 32.4544 12.6829C32.5484 12.834 32.6974 12.9426 32.8701 12.9859C33.0427 13.0291 33.2254 13.0034 33.3795 12.9144C33.5336 12.8254 33.647 12.6799 33.6958 12.5088C33.7446 12.3376 33.7249 12.1542 33.641 11.9973ZM24.5929 5.48462C24.5929 4.89707 24.7671 4.32272 25.0935 3.83419C25.42 3.34566 25.8839 2.9649 26.4267 2.74005C26.9696 2.51521 27.5669 2.45638 28.1431 2.571C28.7194 2.68563 29.2487 2.96856 29.6642 3.38402C30.0796 3.79948 30.3626 4.32881 30.4772 4.90507C30.5918 5.48133 30.533 6.07864 30.3082 6.62146C30.0833 7.16429 29.7025 7.62825 29.214 7.95467C28.7255 8.2811 28.1511 8.45533 27.5636 8.45533C26.776 8.45442 26.0209 8.14114 25.464 7.58423C24.9071 7.02731 24.5938 6.27222 24.5929 5.48462Z" fill="#9BA5B2"/>
</svg>
