<svg width="36" height="36" viewBox="0 0 36 36" fill="none" xmlns="http://www.w3.org/2000/svg">
<g clip-path="url(#clip0_3095_56528)">
<path d="M31.4983 10.5C31.8807 10.5004 32.2484 10.6468 32.5264 10.9093C32.8044 11.1717 32.9717 11.5304 32.9941 11.9121C33.0165 12.2938 32.8923 12.6696 32.6469 12.9627C32.4016 13.2559 32.0535 13.4443 31.6738 13.4895L31.4983 13.5V28.5C31.8807 28.5004 32.2484 28.6468 32.5264 28.9093C32.8044 29.1717 32.9717 29.5304 32.9941 29.9121C33.0165 30.2938 32.8923 30.6696 32.6469 30.9627C32.4016 31.2559 32.0535 31.4443 31.6738 31.4895L31.4983 31.5H4.49834C4.11602 31.4996 3.74829 31.3532 3.47029 31.0907C3.19228 30.8283 3.02499 30.4696 3.00258 30.0879C2.98017 29.7062 3.10435 29.3304 3.34974 29.0373C3.59512 28.7441 3.94319 28.5557 4.32284 28.5105L4.49834 28.5V13.5C4.11602 13.4996 3.74829 13.3532 3.47029 13.0907C3.19228 12.8283 3.02499 12.4696 3.00258 12.0879C2.98017 11.7062 3.10435 11.3304 3.34974 11.0373C3.59512 10.7441 3.94319 10.5557 4.32284 10.5105L4.49834 10.5H31.4983ZM28.4983 13.5H7.49834V28.5H10.4983V18C10.4983 17.6022 10.6564 17.2206 10.9377 16.9393C11.219 16.658 11.6005 16.5 11.9983 16.5C12.3962 16.5 12.7777 16.658 13.059 16.9393C13.3403 17.2206 13.4983 17.6022 13.4983 18V28.5H16.4983V18C16.4983 17.6022 16.6564 17.2206 16.9377 16.9393C17.219 16.658 17.6005 16.5 17.9983 16.5C18.3962 16.5 18.7777 16.658 19.059 16.9393C19.3403 17.2206 19.4983 17.6022 19.4983 18V28.5H22.4983V18C22.4983 17.6022 22.6564 17.2206 22.9377 16.9393C23.219 16.658 23.6005 16.5 23.9983 16.5C24.3962 16.5 24.7777 16.658 25.059 16.9393C25.3403 17.2206 25.4983 17.6022 25.4983 18V28.5H28.4983V13.5ZM26.9983 6C27.3962 6 27.7777 6.15804 28.059 6.43934C28.3403 6.72064 28.4983 7.10218 28.4983 7.5C28.4983 7.89782 28.3403 8.27936 28.059 8.56066C27.7777 8.84196 27.3962 9 26.9983 9H8.99834C8.60051 9 8.21898 8.84196 7.93768 8.56066C7.65637 8.27936 7.49834 7.89782 7.49834 7.5C7.49834 7.10218 7.65637 6.72064 7.93768 6.43934C8.21898 6.15804 8.60051 6 8.99834 6H26.9983Z" fill="#9BA5B2"/>
</g>
<defs>
<clipPath id="clip0_3095_56528">
<rect width="36" height="36" fill="white"/>
</clipPath>
</defs>
</svg>
