<svg width="36" height="36" viewBox="0 0 36 36" fill="none" xmlns="http://www.w3.org/2000/svg">
<g clip-path="url(#clip0_2543_31047)">
<path d="M17.9955 0H18.0045C27.9292 0 36 8.073 36 18C36 27.4904 27.5691 36 17.9955 36C8.07075 36 0 27.9247 0 18C0 8.07525 8.07075 0 17.9955 0ZM7.52175 25.4182C7.956 26.6445 9.6795 27.6615 11.0543 27.9585C11.9948 28.1587 13.2232 28.3185 17.3587 26.604C22.6485 24.4125 26.055 19.0372 26.3205 18.6885C26.5747 18.3398 28.458 15.8422 28.458 13.2593C28.458 10.6763 27.1462 9.4185 26.6175 8.8785C26.1832 8.43525 25.4655 8.23275 24.777 8.23275C24.5542 8.23275 24.354 8.244 24.174 8.253C23.6453 8.2755 23.3798 8.307 23.031 9.14175C22.5968 10.188 21.5393 12.771 21.4132 13.0365C21.285 13.302 21.1567 13.662 21.3368 14.0108C21.5055 14.3708 21.654 14.5305 21.9195 14.8365C22.185 15.1425 22.437 15.3765 22.7025 15.705C22.9455 15.9908 23.22 16.2968 22.914 16.8255C22.608 17.343 21.5505 19.0687 19.9935 20.4548C17.9843 22.2435 16.3553 22.815 15.7725 23.058C15.3383 23.238 14.8207 23.1953 14.5035 22.8577C14.1007 22.4235 13.6035 21.7035 13.0972 20.9948C12.7372 20.4862 12.2827 20.4232 11.8057 20.6032C11.3197 20.772 8.748 22.0432 8.21925 22.3065C7.6905 22.572 7.34175 22.698 7.2135 22.9207C7.0875 23.1435 7.0875 24.1898 7.52175 25.4182Z" fill="#9BA5B2"/>
</g>
<defs>
<clipPath id="clip0_2543_31047">
<rect width="36" height="36" fill="white"/>
</clipPath>
</defs>
</svg>
