<svg width="36" height="36" viewBox="0 0 36 36" fill="none" xmlns="http://www.w3.org/2000/svg">
<path d="M0 9C0 4.02944 4.02944 0 9 0H27C31.9706 0 36 4.02944 36 9V27C36 31.9706 31.9706 36 27 36H9C4.02944 36 0 31.9706 0 27V9Z" fill="#9BA5B2"/>
<mask id="mask0_3095_56422" style="mask-type:luminance" maskUnits="userSpaceOnUse" x="5" y="9" width="26" height="18">
<path d="M30.2359 9.74951H5.24609V26.4885H30.2359V9.74951Z" fill="white"/>
</mask>
<g class='white' mask="url(#mask0_3095_56422)">
<path d="M26.0957 21.2471C26.2014 20.8048 26.3407 19.5115 26.3407 19.5115H25.099C25.0912 19.6437 25.0641 20.0853 25.0255 20.536C24.9674 21.2032 24.7747 21.8176 24.1035 21.8176H23.5865C23.5852 21.7615 23.5865 19.5115 23.5865 19.5115H22.3229V26.4891H23.5865V22.9465H24.3479L25.5883 26.4865H26.9441L25.4258 22.3985C25.7411 22.16 25.9861 21.7029 26.0957 21.2471ZM11.7795 13.4288C11.7898 11.5418 12.2488 10.9209 12.733 10.91C13.2165 10.9209 13.6755 11.5418 13.6858 13.4295V13.4301C13.6755 15.2739 13.2165 15.9038 12.733 15.9135C12.2495 15.9038 11.7898 15.2739 11.7788 13.4301L11.7795 13.4288ZM12.7046 17.0572L12.722 17.0578L12.733 17.0572L12.7439 17.0578L12.7614 17.0572C13.5969 17.0411 14.3969 16.5363 14.7438 15.107C14.8773 14.6215 14.9449 14.0187 14.9456 13.3966L14.943 13.1709C14.9211 12.1742 14.7528 11.4593 14.4917 10.9506C14.0798 10.0835 13.4247 9.75854 12.7478 9.7508L12.7439 9.74951H12.722L12.7175 9.7508C12.0406 9.75854 11.3856 10.0835 10.9742 10.9506C10.7131 11.4599 10.5449 12.1742 10.523 13.1716L10.5197 13.3972C10.5204 14.0187 10.5887 14.6215 10.7215 15.107C11.0684 16.5363 11.8691 17.0411 12.7046 17.0572ZM6.93907 25.4093C6.81658 25.4093 6.50777 25.3809 6.50777 25.3809V22.9246C6.50777 22.9246 6.60705 22.9014 6.71536 22.9014C7.35555 22.9014 8.11178 22.8627 8.11178 24.1547C8.11178 25.3377 7.28076 25.4093 6.93907 25.4093ZM7.09187 21.7944C6.8746 21.7944 6.68119 21.7996 6.50777 21.8086V20.672H8.77195V19.5115H5.24609V26.4872H7.16085C9.07045 26.4872 9.36572 24.7607 9.36572 24.1218C9.36572 23.3668 9.07238 21.7944 7.09187 21.7944ZM19.3998 21.7409H17.6675V19.5115H16.4084V26.4891H17.6675V22.9007H19.3998V26.4891H20.6596V19.5115H19.3998V21.7409ZM23.5775 16.905V11.0898H24.6257V9.93003H21.252V11.0905H22.3003V16.905H23.5775ZM18.5914 13.5371V16.905H19.8543V9.93003H18.5907V12.3593H17.9048C17.6211 12.3593 17.4103 12.2948 17.2762 12.1646C17.1808 12.0743 17.1343 11.9512 17.1343 11.7919V9.93003H15.8707V11.9221C15.8707 12.3805 16.0487 12.7686 16.4013 13.0774C16.7495 13.383 17.175 13.5371 17.6688 13.5371H18.5914ZM6.50777 11.0905H8.07116V16.905H9.33477V9.93003H5.24609V16.905H6.50777V11.0905ZM11.9974 21.9408C12 21.7989 12.0264 20.8061 12.0283 20.672L12.2514 20.6572C13.1714 20.6572 13.3396 20.837 13.4247 21.9401L11.9974 21.9408ZM12.5512 19.5115H10.8382L10.6055 26.4885H11.8536C11.8536 26.4885 11.9684 23.2534 11.9755 23.0993L13.553 23.1006C13.5672 23.2411 13.8025 26.4885 13.8025 26.4885H15.0919C15.0919 26.4885 14.6484 21.6964 14.6123 21.3889C14.4685 20.155 13.898 19.5115 12.5512 19.5115ZM27.1427 12.3593C27.1459 12.2174 27.1717 11.2246 27.1736 11.0905H27.4115C28.3302 11.0905 28.4843 11.2549 28.57 12.3593H27.1427ZM29.7576 11.808C29.6131 10.5734 29.0432 9.93003 27.6965 9.93003H25.9835L25.7501 16.9063H26.9989C26.9989 16.9063 27.1136 13.6712 27.1207 13.5184H28.6977C28.7125 13.6596 28.9478 16.9063 28.9478 16.9063H30.2366C30.2366 16.9063 29.793 12.1149 29.7576 11.808Z" fill="white"/>
</g>
</svg>
