<svg width="36" height="36" viewBox="0 0 36 36" fill="none" xmlns="http://www.w3.org/2000/svg">
<path d="M6 23.25V9.00001C6 7.67501 6.344 6.61851 7.032 5.83051C7.72 5.04251 8.626 4.44251 9.75 4.03051C10.875 3.61851 12.1565 3.34351 13.5945 3.20551C15.0325 3.06751 16.501 2.99901 18 3.00001C19.65 3.00001 21.2065 3.06901 22.6695 3.20701C24.1325 3.34501 25.4075 3.62001 26.4945 4.03201C27.5815 4.44401 28.4375 5.04401 29.0625 5.83201C29.6875 6.62001 30 7.67601 30 9.00001V23.25C30 24.725 29.494 25.969 28.482 26.982C27.47 27.995 26.226 28.501 24.75 28.5L27 30.75V31.5H24L21 28.5H15L12 31.5H9V30.75L11.25 28.5C9.775 28.5 8.531 27.994 7.518 26.982C6.505 25.97 5.999 24.726 6 23.25ZM18 6.00001C15.35 6.00001 13.4125 6.15651 12.1875 6.46951C10.9625 6.78251 10.125 7.12601 9.675 7.50001H26.475C26.1 7.07501 25.294 6.71901 24.057 6.43201C22.82 6.14501 20.801 6.00101 18 6.00001ZM9 15H16.5V10.5H9V15ZM24.75 18H9H27H24.75ZM19.5 15H27V10.5H19.5V15ZM12.75 24C13.4 24 13.9375 23.7875 14.3625 23.3625C14.7875 22.9375 15 22.4 15 21.75C15 21.1 14.7875 20.5625 14.3625 20.1375C13.9375 19.7125 13.4 19.5 12.75 19.5C12.1 19.5 11.5625 19.7125 11.1375 20.1375C10.7125 20.5625 10.5 21.1 10.5 21.75C10.5 22.4 10.7125 22.9375 11.1375 23.3625C11.5625 23.7875 12.1 24 12.75 24ZM23.25 24C23.9 24 24.4375 23.7875 24.8625 23.3625C25.2875 22.9375 25.5 22.4 25.5 21.75C25.5 21.1 25.2875 20.5625 24.8625 20.1375C24.4375 19.7125 23.9 19.5 23.25 19.5C22.6 19.5 22.0625 19.7125 21.6375 20.1375C21.2125 20.5625 21 21.1 21 21.75C21 22.4 21.2125 22.9375 21.6375 23.3625C22.0625 23.7875 22.6 24 23.25 24ZM11.25 25.5H24.75C25.4 25.5 25.9375 25.2875 26.3625 24.8625C26.7875 24.4375 27 23.9 27 23.25V18H9V23.25C9 23.9 9.2125 24.4375 9.6375 24.8625C10.0625 25.2875 10.6 25.5 11.25 25.5ZM18 7.50001H26.475H9.675H18Z" fill="#9BA5B2"/>
</svg>
