<svg width="36" height="36" viewBox="0 0 36 36" fill="none" xmlns="http://www.w3.org/2000/svg">
<g clip-path="url(#clip0_2543_40865)">
<path d="M24.0142 16.9797L29.9564 27.4107H17.9999L6.00743 27.3387L11.9857 16.9797L18.0359 6.63197L24.0142 16.9797Z" fill="#9BA5B2"/>
<path d="M35.1899 24.3383L23.2334 3.63159C22.7034 2.71245 21.9407 1.94909 21.022 1.41834C20.1032 0.887588 19.0609 0.608154 17.9999 0.608154C16.9389 0.608154 15.8966 0.887588 14.9779 1.41834C14.0592 1.94909 13.2964 2.71245 12.7664 3.63159L0.809933 24.3383C0.279453 25.2576 0.000128707 26.3003 4.44688e-08 27.3616C-0.000128618 28.423 0.278943 29.4657 0.8092 30.3851C1.33946 31.3045 2.10224 32.0682 3.02098 32.5996C3.93972 33.131 4.98208 33.4114 6.04343 33.4126H29.9553C31.0169 33.4117 32.0596 33.1315 32.9787 32.6001C33.8977 32.0687 34.6608 31.3049 35.1912 30.3853C35.7216 29.4657 36.0007 28.4227 36.0005 27.3611C36.0003 26.2995 35.7207 25.2577 35.1899 24.3383ZM32.0804 28.5875C31.8652 28.9603 31.5556 29.2698 31.1827 29.4848C30.8098 29.6999 30.3869 29.8129 29.9564 29.8126H6.04456C5.61384 29.8135 5.1905 29.7008 4.81721 29.4859C4.44392 29.271 4.13387 28.9615 3.91831 28.5886C3.70585 28.2154 3.59414 27.7934 3.59414 27.364C3.59414 26.9346 3.70585 26.5126 3.91831 26.1395L15.8883 5.43159C16.1014 5.05943 16.409 4.75015 16.78 4.53505C17.151 4.31995 17.5722 4.20667 18.0011 4.20667C18.4299 4.20667 18.8511 4.31995 19.2221 4.53505C19.5931 4.75015 19.9007 5.05943 20.1138 5.43159L32.0816 26.1383C32.294 26.5115 32.4057 26.9335 32.4057 27.3629C32.4057 27.7923 32.2929 28.2143 32.0804 28.5875Z" fill="#9BA5B2"/>
<path d="M4.79581 35.3937C4.47745 35.3937 4.17213 35.2673 3.94701 35.0421C3.7219 34.817 3.59543 34.5117 3.59543 34.1933V30.8813C3.59543 30.563 3.7219 30.2577 3.94701 30.0326C4.17213 29.8074 4.47745 29.681 4.79581 29.681C5.11417 29.681 5.41949 29.8074 5.6446 30.0326C5.86972 30.2577 5.99618 30.563 5.99618 30.8813V34.1945C5.99618 34.3521 5.96513 34.5082 5.90481 34.6538C5.84449 34.7995 5.75607 34.9318 5.6446 35.0433C5.53314 35.1547 5.40081 35.2431 5.25517 35.3035C5.10954 35.3638 4.95344 35.3937 4.79581 35.3937ZM31.2041 35.3937C30.8857 35.3937 30.5804 35.2673 30.3553 35.0421C30.1302 34.817 30.0037 34.5117 30.0037 34.1933V30.8813C30.0037 30.563 30.1302 30.2577 30.3553 30.0326C30.5804 29.8074 30.8857 29.681 31.2041 29.681C31.5224 29.681 31.8277 29.8074 32.0529 30.0326C32.278 30.2577 32.4044 30.563 32.4044 30.8813V34.1945C32.4044 34.5128 32.278 34.8181 32.0529 35.0433C31.8277 35.2684 31.5224 35.3937 31.2041 35.3937Z" fill="#9BA5B2"/>
</g>
<defs>
<clipPath id="clip0_2543_40865">
<rect width="36" height="36" fill="white"/>
</clipPath>
</defs>
</svg>
