<svg width="36" height="36" viewBox="0 0 36 36" fill="none" xmlns="http://www.w3.org/2000/svg">
<g clip-path="url(#clip0_3192_55432)">
<mask id="mask0_3192_55432" style="mask-type:luminance" maskUnits="userSpaceOnUse" x="0" y="11" width="36" height="14">
<path d="M0.996094 11.0381H35.9961V24.9626H0.996094V11.0381Z" fill="white"/>
</mask>
<g mask="url(#mask0_3192_55432)">
<path d="M5.8916 19.7174C6.26432 19.7174 6.5671 19.406 6.5671 19.0226V18.4394C6.5671 18.3692 6.62224 18.3125 6.69046 18.3125H9.59718C9.6654 18.3125 9.72054 18.3692 9.72054 18.4394V19.0235C9.72054 21.1979 8.00646 22.9609 5.89246 22.9609C3.77853 22.9609 2.06445 21.1979 2.06445 19.0235V17.5925C2.06447 17.5759 2.06129 17.5593 2.0551 17.5439C2.0489 17.5285 2.03982 17.5145 2.02836 17.5028C2.0169 17.491 2.0033 17.4816 1.98832 17.4753C1.97335 17.4689 1.9573 17.4656 1.94109 17.4656H1.11945C1.10325 17.4657 1.0872 17.4624 1.07222 17.456C1.05725 17.4496 1.04364 17.4403 1.03219 17.4285C1.02073 17.4167 1.01164 17.4027 1.00545 17.3873C0.999255 17.3719 0.996076 17.3554 0.996094 17.3388V15.0474C0.996094 14.9772 1.05124 14.9205 1.11945 14.9205H1.94017C1.95638 14.9205 1.97244 14.9173 1.98742 14.9109C2.0024 14.9045 2.01601 14.8952 2.02748 14.8834C2.03894 14.8716 2.04804 14.8576 2.05423 14.8422C2.06043 14.8268 2.06361 14.8103 2.06359 14.7936V13.3447C2.06359 13.2744 2.11867 13.2178 2.18695 13.2178H5.09274C5.16103 13.2178 5.2161 13.2744 5.2161 13.3447V14.7936C5.2161 14.8638 5.27125 14.9205 5.33953 14.9205H8.87618C8.9444 14.9205 8.99954 14.9772 8.99954 15.0474V17.3378C8.99956 17.3545 8.99639 17.371 8.9902 17.3864C8.98401 17.4018 8.97493 17.4158 8.96347 17.4276C8.95201 17.4394 8.9384 17.4488 8.92342 17.4551C8.90844 17.4615 8.89239 17.4648 8.87618 17.4648H5.33953C5.32332 17.4647 5.30726 17.468 5.29228 17.4744C5.2773 17.4807 5.26368 17.4901 5.25222 17.5019C5.24075 17.5136 5.23166 17.5276 5.22546 17.543C5.21927 17.5585 5.21609 17.575 5.2161 17.5916V19.0226C5.2161 19.406 5.51882 19.7174 5.8916 19.7174ZM14.0569 19.7174C14.4297 19.7174 14.7324 19.406 14.7324 19.0226V15.0474C14.7324 14.9772 14.7875 14.9205 14.8558 14.9205H17.822C17.892 14.9205 17.948 14.9817 17.9445 15.0537L17.885 19.0226C17.885 21.1969 16.1709 22.9601 14.0569 22.9601C11.943 22.9601 10.2289 21.1969 10.2289 19.0226V15.0474C10.2289 14.9772 10.284 14.9205 10.3523 14.9205H13.258C13.3263 14.9205 13.3814 14.9772 13.3814 15.0474V19.0226C13.3814 19.406 13.6842 19.7174 14.0569 19.7174Z" fill="#D1D5DB"/>
<path d="M22.6165 17.5268L22.2464 19.0712C22.1632 19.3853 22.3829 19.7074 22.6996 19.7165C22.9055 19.7224 23.1074 19.6569 23.2728 19.5306C23.4381 19.4042 23.5574 19.2243 23.6114 19.0198L23.7741 18.4043C23.7812 18.3775 23.7967 18.3538 23.8182 18.3369C23.8397 18.3199 23.866 18.3108 23.8931 18.3107H26.7902C26.8091 18.3107 26.8278 18.3152 26.8448 18.3239C26.8618 18.3325 26.8766 18.3451 26.8882 18.3606C26.8997 18.376 26.9076 18.3941 26.9112 18.4132C26.9148 18.4323 26.9142 18.4521 26.9092 18.4709L26.5539 19.8118C26.0613 21.6694 24.4207 22.9591 22.5482 22.9591C20.29 22.9591 18.6494 20.7506 19.2435 18.5087L19.4473 17.5934C19.4522 17.5746 19.4529 17.5549 19.4492 17.5358C19.4455 17.5167 19.4377 17.4987 19.4262 17.4832C19.4147 17.4677 19.3999 17.4551 19.3829 17.4465C19.3659 17.4378 19.3473 17.4333 19.3283 17.4332H18.5374C18.5184 17.4332 18.4997 17.4287 18.4827 17.42C18.4657 17.4114 18.4509 17.3989 18.4394 17.3834C18.4279 17.3679 18.42 17.3499 18.4164 17.3307C18.4127 17.3116 18.4134 17.2918 18.4184 17.273L19.0256 14.9817C19.0327 14.9548 19.0482 14.9311 19.0697 14.9142C19.0912 14.8973 19.1175 14.8881 19.1446 14.8881H20.0695C20.0965 14.888 20.1228 14.8789 20.1443 14.8619C20.1658 14.845 20.1813 14.8213 20.1885 14.7945L20.6347 13.2762C20.6418 13.2494 20.6573 13.2257 20.6788 13.2088C20.7003 13.1919 20.7266 13.1827 20.7537 13.1826H23.6507C23.6697 13.1826 23.6884 13.1871 23.7054 13.1958C23.7224 13.2044 23.7372 13.217 23.7487 13.2325C23.7602 13.2479 23.7681 13.266 23.7718 13.2851C23.7754 13.3042 23.7747 13.324 23.7697 13.3428L23.3585 14.7279C23.3536 14.7467 23.3529 14.7664 23.3566 14.7855C23.3603 14.8046 23.3682 14.8226 23.3797 14.8381C23.3912 14.8536 23.406 14.8661 23.4229 14.8748C23.4399 14.8834 23.4585 14.888 23.4775 14.8881H27.0019C27.0209 14.8881 27.0396 14.8926 27.0565 14.9012C27.0735 14.9099 27.0884 14.9224 27.0999 14.9379C27.1114 14.9534 27.1193 14.9714 27.1229 14.9905C27.1266 15.0097 27.1259 15.0294 27.1209 15.0482L26.5137 17.3396C26.5065 17.3664 26.491 17.3901 26.4695 17.4071C26.448 17.424 26.4217 17.4331 26.3947 17.4332H22.7364C22.6795 17.4341 22.6314 17.4719 22.6165 17.5268ZM32.8573 14.9961L31.7793 19.0666C31.7299 19.2535 31.6221 19.4185 31.4725 19.5361C31.3229 19.6537 31.1398 19.7174 30.9515 19.7174C30.6015 19.7174 30.347 19.3745 30.4388 19.027L31.4897 15.0626C31.4946 15.0438 31.4952 15.0241 31.4916 15.005C31.4879 14.9859 31.48 14.9679 31.4685 14.9524C31.457 14.937 31.4422 14.9244 31.4252 14.9157C31.4083 14.9071 31.3896 14.9025 31.3707 14.9025H28.4736C28.4185 14.9025 28.3695 14.9403 28.3546 14.9961L27.3834 18.6626C26.8103 20.8262 28.394 22.9591 30.5745 22.9591C32.5379 22.9591 34.259 21.6073 34.7752 19.6579L35.9932 15.0617C35.9981 15.0429 35.9987 15.0232 35.9951 15.0041C35.9914 14.985 35.9835 14.967 35.972 14.9516C35.9605 14.9361 35.9457 14.9235 35.9288 14.9149C35.9118 14.9062 35.8931 14.9017 35.8742 14.9016H32.9771C32.9211 14.9033 32.8721 14.9412 32.8573 14.9961Z" fill="#9BA5B2"/>
</g>
</g>
<defs>
<clipPath id="clip0_3192_55432">
<rect width="35" height="13.9245" fill="white" transform="translate(1 11.0376)"/>
</clipPath>
</defs>
</svg>
