<svg width="37" height="36" viewBox="0 0 37 36" fill="none" xmlns="http://www.w3.org/2000/svg">
<path d="M19.0112 35.2375C21.5593 27.5029 27.6616 21.4386 35.4417 18.9096C35.8513 18.7716 36.1269 18.3894 36.1269 17.9594C36.1269 17.5294 35.8513 17.1472 35.4417 17.0093C27.6616 14.4802 21.5593 8.41602 19.0112 0.681369C18.8723 0.274072 18.488 0 18.0555 0C17.6231 0 17.2388 0.274072 17.0999 0.681369C14.5551 8.41245 8.45926 14.4761 0.685233 17.0093C0.275626 17.1472 0 17.5294 0 17.9594C0 18.3894 0.275626 18.7716 0.685233 18.9096C8.46146 21.4413 14.5596 27.5051 17.1058 35.2375C17.247 35.6405 17.6292 35.9105 18.0584 35.9105C18.4876 35.9105 18.8699 35.6405 19.0112 35.2375Z" fill="#9BA5B2"/>
<path opacity="0.8" d="M0.683594 18.9102C8.45983 21.4418 14.558 27.5057 17.104 35.238C17.2429 35.6454 17.6272 35.9194 18.0597 35.9194C18.4921 35.9194 18.8766 35.6454 19.0153 35.238C21.5622 27.5047 27.6622 21.4406 35.4401 18.9102C31.7533 20.1054 25.5197 21.0598 18.0639 21.0598C10.6082 21.0598 4.37039 20.1054 0.683594 18.9102Z" fill="#D1D5DB"/>
</svg>
