<svg width="14" height="18" viewBox="0 0 14 18" fill="none" xmlns="http://www.w3.org/2000/svg">
<path d="M13.75 8.27869C13.75 12.4412 10.87 16.3337 7 17.2787C3.13 16.3337 0.25 12.4412 0.25 8.27869V3.77869L7 0.778687L13.75 3.77869V8.27869ZM7 15.7787C9.8125 15.0287 12.25 11.6837 12.25 8.44369V4.75369L7 2.41369L1.75 4.75369V8.44369C1.75 11.6837 4.1875 15.0287 7 15.7787ZM9.1 8.27869V7.15369C9.1 6.10369 8.05 5.27869 7 5.27869C5.95 5.27869 4.9 6.10369 4.9 7.15369V8.27869C4.45 8.27869 4 8.72869 4 9.17869V11.8037C4 12.3287 4.45 12.7787 4.9 12.7787H9.025C9.55 12.7787 10 12.3287 10 11.8787V9.25369C10 8.72869 9.55 8.27869 9.1 8.27869ZM8.125 8.27869H5.875V7.15369C5.875 6.55369 6.4 6.17869 7 6.17869C7.6 6.17869 8.125 6.55369 8.125 7.15369V8.27869Z" fill="white"/>
</svg>
