<svg width="24" height="24" viewBox="0 0 24 24" fill="none" xmlns="http://www.w3.org/2000/svg">
<g clip-path="url(#clip0_2043_18690)">
<path d="M22.7769 11.8922L22.7736 11.8594C22.6722 10.8821 22.2665 9.96126 21.6139 9.22675C20.9613 8.49223 20.0947 7.98107 19.1361 7.76531C19.1192 6.25688 19.0588 4.89375 18.9664 4.01109C18.8641 3.02877 18.4273 2.11146 17.7291 1.41294C17.0309 0.714406 16.1138 0.277118 15.1316 0.174375L15.1072 0.172031C14.9708 0.157969 14.8484 0.143906 14.7322 0.130781C14.0802 0.0576563 13.5659 0 11.9202 0C10.3508 0 9.92703 0.050625 9.34203 0.120937C9.20891 0.136875 9.06641 0.154219 8.89297 0.172031L8.87234 0.174375C7.88972 0.276782 6.97217 0.713901 6.27354 1.41244C5.57491 2.11099 5.13768 3.02848 5.03516 4.01109C4.94141 4.89375 4.88281 6.25688 4.86594 7.76531C3.90711 7.98081 3.04012 8.49186 2.38725 9.2264C1.73437 9.96093 1.32856 10.8819 1.22703 11.8594L1.22375 11.8917C1.08781 13.1958 0.980469 12.847 0.980469 15.5948C0.980469 18.3427 1.08781 18.2302 1.22375 19.5323L1.22703 19.5652C1.3386 20.6369 1.81539 21.6377 2.57739 22.3997C3.33939 23.1616 4.34024 23.6382 5.41203 23.7497C6.98469 23.917 9.57078 24 12.0003 24C14.4298 24 17.0159 23.917 18.5886 23.7534C19.6604 23.642 20.6612 23.1653 21.4232 22.4034C22.1852 21.6415 22.662 20.6407 22.7736 19.5689L22.7769 19.5356C22.9128 18.232 23.0202 18.3464 23.0202 15.5981C23.0202 12.8498 22.9128 13.1962 22.7769 11.8922ZM13.1441 16.567V18.75C13.1471 18.8982 13.1205 19.0454 13.066 19.1832C13.0114 19.3209 12.9298 19.4464 12.8261 19.5523C12.7224 19.6581 12.5986 19.7422 12.462 19.7996C12.3254 19.857 12.1787 19.8866 12.0305 19.8866C11.8824 19.8866 11.7357 19.857 11.5991 19.7996C11.4625 19.7422 11.3387 19.6581 11.235 19.5523C11.1313 19.4464 11.0497 19.3209 10.9951 19.1832C10.9405 19.0454 10.914 18.8982 10.917 18.75V16.5984C10.4271 16.3555 10.0332 15.9549 9.79844 15.461C9.56372 14.9671 9.5019 14.4086 9.6229 13.8753C9.74391 13.342 10.0407 12.865 10.4656 12.5207C10.8905 12.1765 11.4188 11.9852 11.9656 11.9775C12.5124 11.9697 13.0459 12.1461 13.4803 12.4782C13.9147 12.8103 14.2249 13.2789 14.3609 13.8085C14.4969 14.3382 14.4508 14.8982 14.2301 15.3985C14.0094 15.8988 13.6269 16.3104 13.1441 16.567ZM12.0003 7.42641C10.2959 7.42641 8.51422 7.46719 7.05969 7.54828C7.07938 6.21094 7.13516 4.99875 7.21438 4.23703C7.26445 3.75433 7.47915 3.30357 7.82239 2.9605C8.16563 2.61743 8.61649 2.40296 9.09922 2.35313H9.12031C9.30453 2.33391 9.45828 2.31562 9.60125 2.29875C10.1314 2.235 10.4816 2.19328 11.9202 2.19328C13.4431 2.19328 13.8584 2.24016 14.487 2.31047C14.6089 2.32406 14.7373 2.33859 14.8789 2.35313H14.9028C15.3855 2.40341 15.8361 2.61824 16.1791 2.96155C16.5221 3.30486 16.7365 3.75573 16.7863 4.23844C16.8655 5.00016 16.9213 6.21234 16.9409 7.54969C15.4864 7.46859 13.7047 7.42781 12.0003 7.42781V7.42641Z" fill="#8793A3"/>
</g>
<defs>
<clipPath id="clip0_2043_18690">
<rect width="24" height="24" fill="white"/>
</clipPath>
</defs>
</svg>
