<svg width="24" height="24" viewBox="0 0 24 24" fill="none" xmlns="http://www.w3.org/2000/svg">
<path fill-rule="evenodd" clip-rule="evenodd" d="M11.3787 1.00001L11.3817 1L12.6213 1C13.1311 1.00155 13.6268 1.16022 14.0434 1.45266C14.4593 1.74465 14.7761 2.15565 14.9557 2.62962C14.9557 2.62961 14.9557 2.62964 14.9557 2.62962C14.9558 2.63001 14.956 2.63045 14.9561 2.63084L15.4791 4.00813L17.0697 4.94167L18.4968 4.71959L18.5134 4.71715C19.0104 4.64832 19.5156 4.73202 19.9641 4.95618C20.4123 5.18023 20.7818 5.53347 21.0284 5.9681L21.0311 5.97284L21.6316 7.04501C21.8836 7.48505 21.9987 7.99062 21.9637 8.49604C21.9285 9.0024 21.744 9.4882 21.4317 9.88935C21.4309 9.8904 21.4301 9.89146 21.4293 9.89251L20.5403 11.0479V12.9448L21.4594 14.1075C21.7732 14.5093 21.9586 14.9963 21.9938 15.504C22.0289 16.0093 21.9138 16.5149 21.6618 16.9549L21.0612 18.0272L21.0585 18.0319C20.812 18.4665 20.4424 18.8198 19.9942 19.0438C19.5458 19.268 19.0406 19.3517 18.5435 19.2829L18.5269 19.2804L17.0998 19.0583L15.5093 19.9919L14.9863 21.3692C14.9862 21.3694 14.9864 21.3689 14.9863 21.3692C14.8068 21.8433 14.4896 22.2553 14.0735 22.5474C13.657 22.8398 13.1613 22.9985 12.6515 23L12.6485 23H11.3817L11.3787 23C10.8689 22.9985 10.3732 22.8398 9.95664 22.5474C9.54052 22.2552 9.22359 21.844 9.04408 21.3697C9.04401 21.3695 9.04415 21.3699 9.04408 21.3697L8.52087 19.9919L6.93035 19.0583L5.50323 19.2804L5.48662 19.2829C4.98956 19.3517 4.48436 19.268 4.03593 19.0438C3.58774 18.8198 3.2182 18.4665 2.97162 18.0319L2.96893 18.0272L2.36833 16.9549C2.11634 16.5149 2.00125 16.0093 2.03633 15.504C2.07146 14.9976 2.25594 14.5119 2.56825 14.1107L3.45971 12.9521V11.0552L2.54057 9.89252C2.22675 9.49076 2.0414 9.00373 2.00616 8.49604C1.97109 7.99066 2.08618 7.48512 2.33817 7.04511L2.94145 5.96809C3.18803 5.53346 3.55758 5.18022 4.00577 4.95618C4.4542 4.73202 4.9594 4.64832 5.45646 4.71715L5.47307 4.71959L6.90348 4.94219L8.52205 4.00502L9.04387 2.63084C9.044 2.6305 9.04413 2.63015 9.04426 2.62981C9.04424 2.62987 9.04429 2.62975 9.04426 2.62981C9.22381 2.15584 9.54071 1.74465 9.95664 1.45266C10.3732 1.16022 10.8689 1.00155 11.3787 1.00001ZM12.6164 3H11.3836C11.2862 3.00052 11.1895 3.03082 11.1058 3.08954C11.0216 3.14868 10.9538 3.23462 10.9145 3.3384L10.2656 5.04731C10.184 5.26225 10.0308 5.44251 9.83181 5.55772L7.59989 6.85002C7.40205 6.96457 7.17093 7.00788 6.94504 6.97273L5.17609 6.69745C5.08246 6.68569 4.98676 6.70176 4.90002 6.74513C4.81172 6.78926 4.73499 6.86067 4.68202 6.95322L4.07451 8.0378C4.01973 8.13286 3.99352 8.24449 4.00137 8.35757C4.00916 8.46986 4.04985 8.57501 4.1154 8.65963L5.24419 10.0876C5.38377 10.2641 5.45971 10.4826 5.45971 10.7077V13.2923C5.45971 13.5129 5.38677 13.7273 5.25225 13.9021L4.14692 15.3387C4.08059 15.4236 4.03937 15.5294 4.03153 15.6424C4.02368 15.7555 4.04983 15.8672 4.10461 15.9622L4.1107 15.9728L4.71118 17.045C4.71151 17.0456 4.71184 17.0462 4.71216 17.0467C4.76513 17.1393 4.84187 17.2107 4.93018 17.2549C5.01693 17.2982 5.11263 17.3143 5.20626 17.3026L6.9752 17.0273C7.2031 16.9918 7.43625 17.0362 7.63516 17.153L9.83693 18.4453C10.0335 18.5606 10.1847 18.7397 10.2656 18.9527L10.9145 20.6616C10.9538 20.7654 11.0216 20.8513 11.1058 20.9105C11.1894 20.9691 11.2861 20.9994 11.3834 21H12.6468C12.7441 20.9994 12.8408 20.9691 12.9244 20.9105C13.0086 20.8513 13.0764 20.7654 13.1156 20.6616L13.7646 18.9527C13.8455 18.7397 13.9967 18.5606 14.1932 18.4453L16.395 17.153C16.5939 17.0362 16.8271 16.9918 17.055 17.0273L18.8239 17.3026C18.9175 17.3143 19.0132 17.2982 19.1 17.2549C19.1883 17.2107 19.265 17.1393 19.318 17.0468C19.3183 17.0462 19.3186 17.0456 19.319 17.045L19.9255 15.9622C19.9803 15.8671 20.0065 15.7555 19.9986 15.6424C19.9908 15.5301 19.9501 15.425 19.8845 15.3403C19.8841 15.3398 19.8837 15.3392 19.8833 15.3387L18.7558 13.9125C18.6162 13.7359 18.5403 13.5174 18.5403 13.2923V10.7077C18.5403 10.4871 18.6132 10.2727 18.7477 10.0979L19.8531 8.66133C19.9194 8.57641 19.9606 8.47062 19.9685 8.35757C19.9763 8.24449 19.9502 8.13283 19.8954 8.03777L19.8893 8.0272L19.2888 6.95499C19.2885 6.95442 19.2882 6.95385 19.2878 6.95328C19.2349 6.86069 19.1581 6.78927 19.0698 6.74513C18.9831 6.70176 18.8874 6.68569 18.7937 6.69745L17.0248 6.97273C16.7969 7.00819 16.5637 6.96379 16.3648 6.84704L14.1631 5.55473C13.9665 5.43938 13.8153 5.26036 13.7344 5.04731L13.0855 3.3384C13.0462 3.23462 12.9784 3.14868 12.8942 3.08954C12.8105 3.03082 12.7138 3.00052 12.6164 3ZM9.15315 9.12428C9.90472 8.35756 10.9283 7.92308 12 7.92308C12.7988 7.92308 13.578 8.16483 14.2389 8.61535C14.8996 9.06569 15.4115 9.70366 15.7131 10.4463C16.0145 11.1888 16.0931 12.0047 15.9397 12.7917C15.7862 13.5787 15.407 14.3043 14.8468 14.8757C14.2865 15.4474 13.5702 15.839 12.7873 15.9978C12.0043 16.1567 11.1929 16.075 10.4565 15.7638C9.72046 15.4528 9.09455 14.9275 8.65565 14.2574C8.2169 13.5875 7.98388 12.802 7.98388 12C7.98388 10.9251 8.40226 9.89031 9.15315 9.12428ZM12 9.92308C11.4718 9.92308 10.9611 10.1369 10.5814 10.5243C10.201 10.9123 9.98388 11.4428 9.98388 12C9.98388 12.4152 10.1047 12.8194 10.3287 13.1615C10.5527 13.5034 10.8689 13.7668 11.235 13.9216C11.601 14.0762 12.0024 14.1163 12.3895 14.0378C12.7768 13.9592 13.1353 13.7647 13.4186 13.4757C13.7021 13.1865 13.8974 12.8156 13.9766 12.4089C14.056 12.0021 14.0151 11.5807 13.86 11.1987C13.705 10.8169 13.4437 10.4938 13.1124 10.2679C12.7813 10.0422 12.3943 9.92308 12 9.92308Z" fill="#006EFF"/>
</svg>
