<svg width="24" height="24" viewBox="0 0 24 24" fill="none" xmlns="http://www.w3.org/2000/svg">
<g clip-path="url(#clip0_2040_28388)">
<path d="M12 24C18.6272 24 24 18.6272 24 12C24 5.37281 18.6272 0 12 0C5.37281 0 0 5.37281 0 12C0 18.6272 5.37281 24 12 24ZM10.6706 6.80969C10.6706 6.07562 11.2659 5.48031 12 5.48031C12.7341 5.48031 13.3294 6.07562 13.3294 6.80969V13.2036C13.3294 13.9377 12.7341 14.533 12 14.533C11.2659 14.533 10.6706 13.9377 10.6706 13.2036V6.80969ZM10.6744 16.6817C10.725 16.3962 10.9837 16.1375 11.2692 16.0869C11.4422 16.0583 11.678 16.0311 12 16.0306C12.3216 16.0306 12.5573 16.0578 12.7308 16.0869C13.0163 16.1375 13.275 16.3962 13.3256 16.6817C13.3542 16.8547 13.3814 17.0905 13.3819 17.4125C13.3819 17.7341 13.3547 17.9698 13.3256 18.1433C13.275 18.4288 13.0163 18.6875 12.7308 18.7381C12.5578 18.7667 12.322 18.7939 12 18.7944C11.6784 18.7944 11.4427 18.7672 11.2692 18.7381C10.9837 18.6875 10.725 18.4288 10.6744 18.1433C10.6458 17.9703 10.6186 17.7345 10.6181 17.4125C10.6181 17.0909 10.6453 16.8552 10.6744 16.6817Z" fill="#E80000"/>
</g>
<defs>
<clipPath id="clip0_2040_28388">
<rect width="24" height="24" fill="white"/>
</clipPath>
</defs>
</svg>
