<svg width="24" height="24" viewBox="0 0 24 24" fill="none" xmlns="http://www.w3.org/2000/svg">
<path d="M6.70078 15.275C6.51745 15.0917 6.42578 14.8583 6.42578 14.575C6.42578 14.2917 6.51745 14.0583 6.70078 13.875L11.3008 9.275C11.4008 9.175 11.5091 9.10433 11.6258 9.063C11.7424 9.02167 11.8674 9.00067 12.0008 9C12.1341 9 12.2634 9.025 12.3888 9.075C12.5141 9.125 12.6181 9.19167 12.7008 9.275L17.3008 13.875C17.4841 14.0583 17.5758 14.2917 17.5758 14.575C17.5758 14.8583 17.4841 15.0917 17.3008 15.275C17.1174 15.4583 16.8841 15.55 16.6008 15.55C16.3174 15.55 16.0841 15.4583 15.9008 15.275L12.0008 11.375L8.10078 15.275C7.91745 15.4583 7.68411 15.55 7.40078 15.55C7.11745 15.55 6.88411 15.4583 6.70078 15.275Z" fill="#006EFF"/>
</svg>
