<svg width="24" height="24" viewBox="0 0 24 24" fill="none" xmlns="http://www.w3.org/2000/svg">
<path d="M12.0008 15.55C11.8674 15.55 11.7381 15.525 11.6128 15.475C11.4874 15.425 11.3834 15.3583 11.3008 15.275L6.70078 10.675C6.51745 10.4917 6.42578 10.2583 6.42578 9.975C6.42578 9.69167 6.51745 9.45833 6.70078 9.275C6.88411 9.09167 7.11745 9 7.40078 9C7.68411 9 7.91745 9.09167 8.10078 9.275L12.0008 13.175L15.9008 9.275C16.0841 9.09167 16.3174 9 16.6008 9C16.8841 9 17.1174 9.09167 17.3008 9.275C17.4841 9.45833 17.5758 9.69167 17.5758 9.975C17.5758 10.2583 17.4841 10.4917 17.3008 10.675L12.7008 15.275C12.6008 15.375 12.4924 15.446 12.3758 15.488C12.2591 15.53 12.1341 15.5507 12.0008 15.55Z" fill="#006EFF"/>
</svg>
