<svg width="24" height="25" viewBox="0 0 24 25" fill="none" xmlns="http://www.w3.org/2000/svg">
<path d="M23.215 19.5597C22.2831 17.5717 20.2202 16.2686 17.9392 16.3263C16.2499 16.3764 14.5586 16.405 12.8674 16.4125V18.6011C12.8683 19.9792 11.5042 21.1792 10.4041 20.5642C7.19971 18.7703 3.81861 16.241 0.78627 13.975C-0.25998 13.1931 -0.264198 11.8038 0.78627 11.0271C3.91002 8.71705 7.19971 6.23127 10.4041 4.43783C11.5042 3.82283 12.8683 5.02237 12.8674 6.40096V8.58393C14.5581 8.59143 16.2485 8.62002 17.9364 8.67018C21.2927 8.82018 23.9997 11.7283 23.9997 15.0142V19.3033C23.9997 19.7458 23.3969 19.9516 23.2155 19.5616L23.215 19.5597Z" fill="white"/>
</svg>
