<svg width="18" height="21" viewBox="0 0 18 21" fill="none" xmlns="http://www.w3.org/2000/svg">
<path d="M2 20.6858C1.45 20.6858 0.979002 20.4898 0.587002 20.0978C0.195002 19.7058 -0.000664969 19.2351 1.69779e-06 18.6858V4.68579C1.69779e-06 4.13579 0.196002 3.66479 0.588002 3.27279C0.980002 2.88079 1.45067 2.68512 2 2.68579H3V0.685791H5V2.68579H13V0.685791H15V2.68579H16C16.55 2.68579 17.021 2.88179 17.413 3.27379C17.805 3.66579 18.0007 4.13646 18 4.68579V18.6858C18 19.2358 17.804 19.7068 17.412 20.0988C17.02 20.4908 16.5493 20.6865 16 20.6858H2ZM2 18.6858H16V8.68579H2V18.6858ZM2 6.68579H16V4.68579H2V6.68579ZM9 12.6858C8.71667 12.6858 8.479 12.5898 8.287 12.3978C8.095 12.2058 7.99934 11.9685 8 11.6858C8 11.4025 8.096 11.1648 8.288 10.9728C8.48 10.7808 8.71734 10.6851 9 10.6858C9.28334 10.6858 9.521 10.7818 9.713 10.9738C9.905 11.1658 10.0007 11.4031 10 11.6858C10 11.9691 9.904 12.2068 9.712 12.3988C9.52 12.5908 9.28267 12.6865 9 12.6858ZM5 12.6858C4.71667 12.6858 4.479 12.5898 4.287 12.3978C4.095 12.2058 3.99934 11.9685 4 11.6858C4 11.4025 4.096 11.1648 4.288 10.9728C4.48 10.7808 4.71734 10.6851 5 10.6858C5.28334 10.6858 5.521 10.7818 5.713 10.9738C5.905 11.1658 6.00067 11.4031 6 11.6858C6 11.9691 5.904 12.2068 5.712 12.3988C5.52 12.5908 5.28267 12.6865 5 12.6858ZM13 12.6858C12.7167 12.6858 12.479 12.5898 12.287 12.3978C12.095 12.2058 11.9993 11.9685 12 11.6858C12 11.4025 12.096 11.1648 12.288 10.9728C12.48 10.7808 12.7173 10.6851 13 10.6858C13.2833 10.6858 13.521 10.7818 13.713 10.9738C13.905 11.1658 14.0007 11.4031 14 11.6858C14 11.9691 13.904 12.2068 13.712 12.3988C13.52 12.5908 13.2827 12.6865 13 12.6858ZM9 16.6858C8.71667 16.6858 8.479 16.5898 8.287 16.3978C8.095 16.2058 7.99934 15.9685 8 15.6858C8 15.4025 8.096 15.1648 8.288 14.9728C8.48 14.7808 8.71734 14.6851 9 14.6858C9.28334 14.6858 9.521 14.7818 9.713 14.9738C9.905 15.1658 10.0007 15.4031 10 15.6858C10 15.9691 9.904 16.2068 9.712 16.3988C9.52 16.5908 9.28267 16.6865 9 16.6858ZM5 16.6858C4.71667 16.6858 4.479 16.5898 4.287 16.3978C4.095 16.2058 3.99934 15.9685 4 15.6858C4 15.4025 4.096 15.1648 4.288 14.9728C4.48 14.7808 4.71734 14.6851 5 14.6858C5.28334 14.6858 5.521 14.7818 5.713 14.9738C5.905 15.1658 6.00067 15.4031 6 15.6858C6 15.9691 5.904 16.2068 5.712 16.3988C5.52 16.5908 5.28267 16.6865 5 16.6858ZM13 16.6858C12.7167 16.6858 12.479 16.5898 12.287 16.3978C12.095 16.2058 11.9993 15.9685 12 15.6858C12 15.4025 12.096 15.1648 12.288 14.9728C12.48 14.7808 12.7173 14.6851 13 14.6858C13.2833 14.6858 13.521 14.7818 13.713 14.9738C13.905 15.1658 14.0007 15.4031 14 15.6858C14 15.9691 13.904 16.2068 13.712 16.3988C13.52 16.5908 13.2827 16.6865 13 16.6858Z" fill="#020202"/>
</svg>
