<svg width="80" height="80" viewBox="0 0 80 80" fill="none" xmlns="http://www.w3.org/2000/svg">
<path fill-rule="evenodd" clip-rule="evenodd" d="M17.4981 23.8101C20.2113 13.9272 29.2553 6.66667 40.0006 6.66667C50.746 6.66667 59.79 13.9272 62.5032 23.8101C70.621 25.6987 76.6673 32.975 76.6673 41.6667C76.6673 48.0263 73.4264 53.6276 68.5215 56.9108C66.9917 57.9348 64.9213 57.5248 63.8973 55.995C62.8732 54.4651 63.2833 52.3948 64.8131 51.3707C67.9481 49.2722 70.0006 45.7085 70.0006 41.6667C70.0006 35.5926 65.3564 30.5995 59.4274 30.0504C57.9171 29.9105 56.6917 28.7686 56.4457 27.272C55.1459 19.3656 48.2745 13.3333 40.0006 13.3333C31.7268 13.3333 24.8554 19.3656 23.5556 27.272C23.3096 28.7686 22.0841 29.9105 20.5739 30.0504C14.6449 30.5995 10.0007 35.5926 10.0007 41.6667C10.0007 45.7085 12.0532 49.2722 15.1882 51.3707C16.718 52.3948 17.1281 54.4651 16.104 55.995C15.08 57.5248 13.0096 57.9348 11.4798 56.9108C6.57491 53.6276 3.33398 48.0263 3.33398 41.6667C3.33398 32.975 9.38032 25.6987 17.4981 23.8101ZM36.6673 48.0474L29.0243 55.6904C27.7226 56.9921 25.612 56.9921 24.3103 55.6904C23.0085 54.3886 23.0085 52.2781 24.3103 50.9763L37.6436 37.643C38.9454 36.3412 41.0559 36.3412 42.3577 37.643L55.691 50.9763C56.9928 52.2781 56.9928 54.3886 55.691 55.6904C54.3893 56.9921 52.2787 56.9921 50.977 55.6904L43.334 48.0474V70C43.334 71.841 41.8416 73.3333 40.0006 73.3333C38.1597 73.3333 36.6673 71.841 36.6673 70V48.0474Z" fill="#9BA5B2"/>
</svg>
