<svg width="36" height="36" viewBox="0 0 36 36" fill="none" xmlns="http://www.w3.org/2000/svg">
<path d="M28.35 9C28.05 8.1 27.15 7.5 26.25 7.5H9.75C8.7 7.5 7.95 8.1 7.65 9L4.5 18V30C4.5 30.75 5.25 31.5 6 31.5H7.5C8.4 31.5 9 30.75 9 30V28.5H27V30C27 30.75 27.75 31.5 28.5 31.5H30C30.75 31.5 31.5 30.75 31.5 30V18L28.35 9ZM10.2 10.5H25.65L27.3 15H8.7L10.2 10.5ZM28.5 25.5H7.5V18H28.5V25.5ZM11.25 19.5C12.45 19.5 13.5 20.55 13.5 21.75C13.5 22.95 12.45 24 11.25 24C10.05 24 9 22.95 9 21.75C9 20.55 10.05 19.5 11.25 19.5ZM24.75 19.5C25.95 19.5 27 20.55 27 21.75C27 22.95 25.95 24 24.75 24C23.55 24 22.5 22.95 22.5 21.75C22.5 20.55 23.55 19.5 24.75 19.5Z" fill="#006EFF"/>
</svg>
