<svg width="12" height="12" viewBox="0 0 12 12" fill="none" xmlns="http://www.w3.org/2000/svg">
<g clip-path="url(#clip0_1910_793)">
<path d="M5.12671 10.8485C5.10118 10.8786 5.06975 10.9031 5.03436 10.9207C4.99897 10.9382 4.96037 10.9482 4.92094 10.9502C4.88151 10.9523 4.84208 10.9462 4.80509 10.9324C4.76809 10.9186 4.73432 10.8974 4.70584 10.87L0.0950708 6.50609C0.0364847 6.4503 0.00234907 6.37361 0.000116761 6.29274C-0.00211554 6.21187 0.0277368 6.13341 0.0831561 6.07448L1.55217 4.52219C1.60796 4.46361 1.68466 4.42947 1.76552 4.42724C1.84639 4.42501 1.92485 4.45486 1.98379 4.51028L4.50247 6.89397C4.53094 6.92132 4.56472 6.94254 4.60171 6.95634C4.6387 6.97014 4.67813 6.97621 4.71756 6.97419C4.75699 6.97217 4.79559 6.9621 4.83098 6.9446C4.86637 6.92709 4.8978 6.90253 4.92334 6.87241L9.84396 1.1551C9.8969 1.09393 9.9719 1.05621 10.0526 1.05017C10.1332 1.04413 10.213 1.07027 10.2745 1.12286L11.8942 2.51695C11.9553 2.5699 11.9931 2.64491 11.9991 2.72559C12.0051 2.80627 11.979 2.88606 11.9264 2.94753L5.12671 10.8485Z" fill="white"/>
</g>
<defs>
<clipPath id="clip0_1910_793">
<rect width="12" height="12" fill="white"/>
</clipPath>
</defs>
</svg>
