<svg width="36" height="36" viewBox="0 0 36 36" fill="none" xmlns="http://www.w3.org/2000/svg">
<path d="M31.425 22.9128L18.825 10.2753C18.675 10.1253 18.5125 10.0188 18.3375 9.95582C18.1625 9.89282 17.975 9.86182 17.775 9.86282C17.575 9.86282 17.3875 9.89382 17.2125 9.95582C17.0375 10.0178 16.875 10.1243 16.725 10.2753L4.0875 22.9128C3.7375 23.2628 3.5625 23.7003 3.5625 24.2253C3.5625 24.7503 3.75 25.2003 4.125 25.5753C4.5 25.9503 4.9375 26.1378 5.4375 26.1378C5.9375 26.1378 6.375 25.9503 6.75 25.5753L17.775 14.5503L28.8 25.5753C29.15 25.9253 29.5815 26.1003 30.0945 26.1003C30.6075 26.1003 31.051 25.9128 31.425 25.5378C31.8 25.1628 31.9875 24.7253 31.9875 24.2253C31.9875 23.7253 31.8 23.2878 31.425 22.9128Z" fill="#006EFF"/>
</svg>
