<svg width="36" height="36" viewBox="0 0 36 36" fill="none" xmlns="http://www.w3.org/2000/svg">
<path d="M31.425 13.0877L18.825 25.7252C18.675 25.8752 18.5125 25.9817 18.3375 26.0447C18.1625 26.1077 17.975 26.1387 17.775 26.1377C17.575 26.1377 17.3875 26.1067 17.2125 26.0447C17.0375 25.9827 16.875 25.8762 16.725 25.7252L4.0875 13.0877C3.7375 12.7377 3.5625 12.3002 3.5625 11.7752C3.5625 11.2502 3.75 10.8002 4.125 10.4252C4.5 10.0502 4.9375 9.86267 5.4375 9.86267C5.9375 9.86267 6.375 10.0502 6.75 10.4252L17.775 21.4502L28.8 10.4252C29.15 10.0752 29.5815 9.90017 30.0945 9.90017C30.6075 9.90017 31.051 10.0877 31.425 10.4627C31.8 10.8377 31.9875 11.2752 31.9875 11.7752C31.9875 12.2752 31.8 12.7127 31.425 13.0877Z" fill="#006EFF"/>
</svg>
