<svg width="20" height="21" viewBox="0 0 20 21" fill="none" xmlns="http://www.w3.org/2000/svg">
<path d="M10 11.7787C10.6904 11.7787 11.25 11.2191 11.25 10.5287C11.25 9.83833 10.6904 9.27869 10 9.27869C9.30964 9.27869 8.75 9.83833 8.75 10.5287C8.75 11.2191 9.30964 11.7787 10 11.7787Z" fill="white"/>
<path d="M15 10.5287C15 11.2191 14.4404 11.7787 13.75 11.7787C13.0596 11.7787 12.5 11.2191 12.5 10.5287C12.5 9.83833 13.0596 9.27869 13.75 9.27869C14.4404 9.27869 15 9.83833 15 10.5287Z" fill="white"/>
<path d="M6.25 11.7787C6.94036 11.7787 7.5 11.2191 7.5 10.5287C7.5 9.83833 6.94036 9.27869 6.25 9.27869C5.55964 9.27869 5 9.83833 5 10.5287C5 11.2191 5.55964 11.7787 6.25 11.7787Z" fill="white"/>
<path fill-rule="evenodd" clip-rule="evenodd" d="M1.25 10.5287C1.25 5.6962 5.16751 1.77869 10 1.77869C14.8325 1.77869 18.75 5.6962 18.75 10.5287C18.75 15.3612 14.8325 19.2787 10 19.2787C5.16751 19.2787 1.25 15.3612 1.25 10.5287ZM10 3.02869C5.85786 3.02869 2.5 6.38655 2.5 10.5287C2.5 14.6708 5.85786 18.0287 10 18.0287C14.1421 18.0287 17.5 14.6708 17.5 10.5287C17.5 6.38655 14.1421 3.02869 10 3.02869Z" fill="white"/>
</svg>
