<svg width="20" height="21" viewBox="0 0 20 21" fill="none" xmlns="http://www.w3.org/2000/svg">
<path d="M2.92996 17.827C1.97486 16.9046 1.21303 15.8011 0.688943 14.5811C0.164853 13.361 -0.111009 12.0488 -0.122547 10.721C-0.134085 9.39326 0.118932 8.07646 0.62174 6.8475C1.12455 5.61853 1.86708 4.50201 2.80601 3.56309C3.74493 2.62416 4.86145 1.88163 6.09042 1.37882C7.31938 0.876012 8.63618 0.622995 9.96397 0.634533C11.2918 0.646071 12.604 0.921933 13.824 1.44602C15.044 1.97011 16.1475 2.73194 17.07 3.68704C18.8915 5.57306 19.8995 8.09908 19.8767 10.721C19.8539 13.343 18.8022 15.8511 16.9481 17.7052C15.0941 19.5593 12.5859 20.611 9.96397 20.6338C7.342 20.6566 4.81598 19.6486 2.92996 17.827ZM4.33996 16.417C5.84108 17.9182 7.87705 18.7615 9.99996 18.7615C12.1229 18.7615 14.1588 17.9182 15.66 16.417C17.1611 14.9159 18.0044 12.8799 18.0044 10.757C18.0044 8.63413 17.1611 6.59816 15.66 5.09704C14.1588 3.59591 12.1229 2.75259 9.99996 2.75259C7.87705 2.75259 5.84108 3.59591 4.33996 5.09704C2.83883 6.59816 1.99551 8.63413 1.99551 10.757C1.99551 12.8799 2.83883 14.9159 4.33996 16.417ZM14.24 7.92704L11.41 10.757L14.24 13.587L12.83 14.997L9.99996 12.167L7.16996 14.997L5.75996 13.587L8.58996 10.757L5.75996 7.92704L7.16996 6.51704L9.99996 9.34704L12.83 6.51704L14.24 7.92704Z" fill="white"/>
</svg>
