<svg width="32" height="32" viewBox="0 0 32 32" fill="none" xmlns="http://www.w3.org/2000/svg">
<rect width="32" height="32" rx="16" fill="#F0F2F4"/>
<path fill-rule="evenodd" clip-rule="evenodd" d="M16.0013 17.4141L21.6583 23.0711C21.8469 23.2533 22.0995 23.3541 22.3617 23.3518C22.6239 23.3495 22.8747 23.2444 23.0601 23.059C23.2455 22.8736 23.3507 22.6227 23.353 22.3606C23.3552 22.0984 23.2544 21.8458 23.0723 21.6571L17.4153 16.0001L23.0723 10.3431C23.2544 10.1545 23.3552 9.90194 23.353 9.63975C23.3507 9.37755 23.2455 9.12674 23.0601 8.94133C22.8747 8.75592 22.6239 8.65075 22.3617 8.64848C22.0995 8.6462 21.8469 8.74699 21.6583 8.92915L16.0013 14.5861L10.3443 8.92915C10.1548 8.75149 9.9037 8.65451 9.64402 8.65873C9.38434 8.66295 9.13648 8.76803 8.9529 8.95174C8.76931 9.13546 8.66441 9.38339 8.66037 9.64307C8.65634 9.90276 8.7535 10.1538 8.93129 10.3431L14.5873 16.0001L8.93029 21.6571C8.83478 21.7494 8.7586 21.8597 8.70619 21.9817C8.65378 22.1037 8.62619 22.235 8.62504 22.3677C8.62388 22.5005 8.64919 22.6322 8.69947 22.7551C8.74975 22.878 8.824 22.9897 8.91789 23.0835C9.01179 23.1774 9.12344 23.2517 9.24633 23.302C9.36923 23.3523 9.50091 23.3776 9.63369 23.3764C9.76647 23.3752 9.89769 23.3477 10.0197 23.2953C10.1417 23.2428 10.252 23.1667 10.3443 23.0711L16.0013 17.4141Z" fill="#006EFF"/>
</svg>
