<svg width="16" height="15" viewBox="0 0 16 15" fill="none" xmlns="http://www.w3.org/2000/svg">
<path fill-rule="evenodd" clip-rule="evenodd" d="M8.00129 8.91415L13.6583 14.5711C13.8469 14.7533 14.0995 14.8541 14.3617 14.8518C14.6239 14.8495 14.8747 14.7444 15.0601 14.559C15.2455 14.3736 15.3507 14.1227 15.353 13.8606C15.3552 13.5984 15.2544 13.3458 15.0723 13.1571L9.41529 7.50015L15.0723 1.84315C15.2544 1.65455 15.3552 1.40194 15.353 1.13975C15.3507 0.877551 15.2455 0.626739 15.0601 0.441331C14.8747 0.255923 14.6239 0.150754 14.3617 0.148475C14.0995 0.146197 13.8469 0.246991 13.6583 0.429149L8.00129 6.08615L2.34429 0.429149C2.15484 0.251494 1.9037 0.154515 1.64402 0.158732C1.38434 0.162948 1.13648 0.268031 0.952898 0.451743C0.769315 0.635456 0.664408 0.883385 0.660375 1.14307C0.656342 1.40276 0.753499 1.65382 0.931288 1.84315L6.58729 7.50015L0.930288 13.1571C0.834778 13.2494 0.758596 13.3597 0.706187 13.4817C0.653778 13.6037 0.626192 13.735 0.625038 13.8677C0.623884 14.0005 0.649185 14.1322 0.699466 14.2551C0.749747 14.378 0.824 14.4897 0.917893 14.5835C1.01179 14.6774 1.12344 14.7517 1.24633 14.802C1.36923 14.8523 1.50091 14.8776 1.63369 14.8764C1.76647 14.8752 1.89769 14.8477 2.01969 14.7953C2.1417 14.7428 2.25204 14.6667 2.34429 14.5711L8.00129 8.91415Z" fill="#4B5563"/>
</svg>
