<svg xmlns="http://www.w3.org/2000/svg" width="20" height="22" viewBox="0 0 20 22" fill="none">
    <path fill-rule="evenodd" clip-rule="evenodd" d="M3.16477 1.83333C2.72717 1.83333 2.3724 2.18811 2.3724 2.62571V19.3743C2.3724 19.8119 2.72717 20.1667 3.16477 20.1667H16.8371C17.2747 20.1667 17.6295 19.8119 17.6295 19.3743V2.62571C17.6295 2.18811 17.2747 1.83333 16.8371 1.83333H3.16477ZM0.539062 2.62571C0.539062 1.17559 1.71465 0 3.16477 0H16.8371C18.2872 0 19.4628 1.17559 19.4628 2.62571V19.3743C19.4628 20.8244 18.2872 22 16.8371 22H3.16477C1.71465 22 0.539062 20.8244 0.539062 19.3743V2.62571Z" fill="black"/>
    <path fill-rule="evenodd" clip-rule="evenodd" d="M10.0008 5.0804C7.67545 5.0804 5.79036 6.96549 5.79036 9.29086C5.79036 11.6162 7.67545 13.5013 10.0008 13.5013C12.3262 13.5013 14.2113 11.6162 14.2113 9.29086C14.2113 6.96549 12.3262 5.0804 10.0008 5.0804ZM3.95703 9.29086C3.95703 5.95297 6.66293 3.24707 10.0008 3.24707C13.3387 3.24707 16.0446 5.95297 16.0446 9.29086C16.0446 12.6287 13.3387 15.3346 10.0008 15.3346C6.66293 15.3346 3.95703 12.6287 3.95703 9.29086Z" fill="black"/>
    <path fill-rule="evenodd" clip-rule="evenodd" d="M9.66186 5.95531C9.39137 6.76679 9.20833 7.94615 9.20833 9.29086C9.20833 10.6356 9.39137 11.8149 9.66186 12.6264C9.77757 12.9735 9.89751 13.2174 10.0007 13.3719C10.1039 13.2174 10.2238 12.9735 10.3396 12.6264C10.61 11.8149 10.7931 10.6356 10.7931 9.29086C10.7931 7.94615 10.61 6.76679 10.3396 5.95531C10.2238 5.60816 10.1039 5.36429 10.0007 5.20981C9.89751 5.36429 9.77758 5.60816 9.66186 5.95531ZM10.1373 5.04789C10.1373 5.04809 10.1353 5.04968 10.1312 5.05206C10.1352 5.04888 10.1373 5.04769 10.1373 5.04789ZM9.87017 5.05206C9.86612 5.04968 9.86411 5.04809 9.86412 5.04789C9.86414 5.04769 9.86616 5.04887 9.87017 5.05206ZM9.86413 13.5338C9.86411 13.5336 9.86612 13.532 9.87017 13.5297C9.86616 13.5328 9.86414 13.534 9.86413 13.5338ZM10.1312 13.5297C10.1353 13.532 10.1373 13.5336 10.1373 13.5338C10.1373 13.534 10.1352 13.5328 10.1312 13.5297ZM8.61551 3.99926C8.90231 3.63534 9.36348 3.24707 10.0007 3.24707C10.6379 3.24707 11.0991 3.63534 11.3859 3.99926C11.6808 4.37351 11.9064 4.85827 12.0788 5.37556C12.4269 6.41973 12.6264 7.80393 12.6264 9.29086C12.6264 10.7778 12.4269 12.162 12.0788 13.2062C11.9064 13.7234 11.6808 14.2082 11.3859 14.5825C11.0991 14.9464 10.6379 15.3346 10.0007 15.3346C9.36348 15.3346 8.90231 14.9464 8.61551 14.5825C8.32056 14.2082 8.09504 13.7234 7.92261 13.2062C7.57455 12.162 7.375 10.7778 7.375 9.29086C7.375 7.80393 7.57455 6.41973 7.92261 5.37556C8.09504 4.85827 8.32056 4.37351 8.61551 3.99926Z" fill="black"/>
    <path fill-rule="evenodd" clip-rule="evenodd" d="M3.95703 9.29069C3.95703 8.78443 4.36744 8.37402 4.8737 8.37402H15.1279C15.6342 8.37402 16.0446 8.78443 16.0446 9.29069C16.0446 9.79695 15.6342 10.2074 15.1279 10.2074H4.8737C4.36744 10.2074 3.95703 9.79695 3.95703 9.29069ZM6.95703 17.8359C6.95703 17.3296 7.36744 16.9192 7.8737 16.9192H12.1279C12.6342 16.9192 13.0446 17.3296 13.0446 17.8359C13.0446 18.3421 12.6342 18.7526 12.1279 18.7526H7.8737C7.36744 18.7526 6.95703 18.3421 6.95703 17.8359Z" fill="black"/>
</svg>