<svg width="24" height="24" viewBox="0 0 24 24" fill="none" xmlns="http://www.w3.org/2000/svg">
<g clip-path="url(#clip0_2043_18705)">
<path d="M11.2373 5.93297C11.1074 5.1975 10.439 4.52906 9.7035 4.39922C9.25725 4.32515 8.64929 4.25531 7.8196 4.25437C6.98991 4.25531 6.38241 4.32469 5.93569 4.39922C5.20022 4.52906 4.53179 5.1975 4.40194 5.93297C4.32788 6.37922 4.25803 6.98718 4.2571 7.81687C4.25803 8.64656 4.32741 9.25406 4.40194 9.70078C4.53179 10.4362 5.20022 11.1047 5.93569 11.2345C6.38194 11.3086 6.98991 11.3784 7.8196 11.3794C8.64929 11.3784 9.25678 11.3091 9.7035 11.2345C10.439 11.1047 11.1074 10.4362 11.2373 9.70078C11.3113 9.25453 11.3812 8.64656 11.3821 7.81687C11.3812 6.98718 11.3118 6.37968 11.2373 5.93297ZM11.2373 14.2997C11.1074 13.5642 10.439 12.8958 9.7035 12.7659C9.25725 12.6919 8.64929 12.622 7.8196 12.6211C6.98991 12.622 6.38241 12.6914 5.93569 12.7659C5.20022 12.8958 4.53179 13.5642 4.40194 14.2997C4.32788 14.7459 4.25803 15.3539 4.2571 16.1836C4.25803 17.0133 4.32741 17.6208 4.40194 18.0675C4.53179 18.803 5.20022 19.4714 5.93569 19.6012C6.38194 19.6753 6.98991 19.7452 7.8196 19.7461C8.64929 19.7452 9.25678 19.6758 9.7035 19.6012C10.439 19.4714 11.1074 18.803 11.2373 18.0675C11.3113 17.6212 11.3812 17.0133 11.3821 16.1836C11.3812 15.3539 11.3118 14.7464 11.2373 14.2997ZM19.6021 5.93297C19.4723 5.1975 18.8038 4.52906 18.0683 4.39922C17.6221 4.32515 17.0141 4.25531 16.1844 4.25437C15.3548 4.25531 14.7473 4.32469 14.3005 4.39922C13.5651 4.52906 12.8966 5.1975 12.7668 5.93297C12.6927 6.37922 12.6229 6.98718 12.6219 7.81687C12.6229 8.64656 12.6923 9.25406 12.7668 9.70078C12.8966 10.4362 13.5651 11.1047 14.3005 11.2345C14.7468 11.3086 15.3548 11.3784 16.1844 11.3794C17.0141 11.3784 17.6216 11.3091 18.0683 11.2345C18.8038 11.1047 19.4723 10.4362 19.6021 9.70078C19.6762 9.25453 19.746 8.64656 19.7469 7.81687C19.746 6.98718 19.6766 6.37968 19.6021 5.93297ZM19.6021 14.2997C19.4723 13.5642 18.8038 12.8958 18.0683 12.7659C17.6221 12.6919 17.0141 12.622 16.1844 12.6211C15.3548 12.622 14.7473 12.6914 14.3005 12.7659C13.5651 12.8958 12.8966 13.5642 12.7668 14.2997C12.6927 14.7459 12.6229 15.3539 12.6219 16.1836C12.6229 17.0133 12.6923 17.6208 12.7668 18.0675C12.8966 18.803 13.5651 19.4714 14.3005 19.6012C14.7468 19.6753 15.3548 19.7452 16.1844 19.7461C17.0141 19.7452 17.6216 19.6758 18.0683 19.6012C18.8038 19.4714 19.4723 18.803 19.6021 18.0675C19.6762 17.6212 19.746 17.0133 19.7469 16.1836C19.746 15.3539 19.6766 14.7464 19.6021 14.2997Z" fill="#8793A3"/>
<path d="M22.889 14.1764C22.2974 14.1764 21.8066 14.6325 21.7612 15.2222C21.6857 16.2075 21.5727 17.1483 21.4208 18.0652C21.2877 18.8034 20.8513 19.5867 20.2227 20.2158C19.5937 20.8448 18.8104 21.2812 18.0716 21.4144C17.2058 21.5578 16.3194 21.6666 15.3937 21.742C14.8054 21.7898 14.3516 22.2792 14.3516 22.8694C14.3516 23.5312 14.9174 24.0502 15.5765 23.9967C16.708 23.9048 17.6577 23.7764 18.4555 23.6437C20.9469 23.2036 23.2101 20.9405 23.6502 18.4491C23.7899 17.61 23.9244 16.6031 24.0168 15.3928C24.0669 14.7366 23.5471 14.1764 22.889 14.1764ZM5.54897 0.356717C3.05757 0.796873 0.794442 3.06 0.354285 5.5514C0.22866 6.30609 0.107254 7.19672 0.0167853 8.24859C-0.0399335 8.90906 0.480848 9.47718 1.14366 9.47718C1.73194 9.47718 2.22038 9.02578 2.271 8.43937C2.34554 7.5764 2.44913 6.74625 2.58366 5.93437C2.71679 5.19609 3.15319 4.41281 3.78179 3.78375C4.41085 3.15469 5.19413 2.71828 5.93288 2.58515C6.79866 2.44172 7.68507 2.33297 8.61085 2.2575C9.19913 2.20969 9.65288 1.72031 9.65288 1.13015C9.65288 0.468279 9.0871 -0.0506273 8.42804 0.00281025C7.29647 0.0946852 6.34679 0.22406 5.54897 0.356717ZM23.6502 5.5514C23.2101 3.06 20.9469 0.797341 18.4555 0.356717C17.6582 0.22406 16.7085 0.0956227 15.5765 0.00374775C14.9169 -0.0496898 14.3516 0.469216 14.3516 1.13109C14.3516 1.72125 14.8054 2.21062 15.3937 2.25844C16.3194 2.3339 17.2058 2.44219 18.0716 2.58609C18.8104 2.71922 19.5937 3.15562 20.2227 3.78469C20.8518 4.41328 21.2877 5.19656 21.4208 5.93531C21.5554 6.74719 21.6594 7.57687 21.7335 8.44031C21.7841 9.02672 22.2721 9.47812 22.8608 9.47812C23.5241 9.47812 24.0449 8.91 23.9877 8.24953C23.8973 7.19719 23.7754 6.30562 23.6502 5.5514ZM9.65288 22.8689C9.65288 22.2787 9.19913 21.7894 8.61085 21.7416C7.68507 21.6661 6.79819 21.5578 5.93288 21.4139C5.19413 21.2808 4.41085 20.8444 3.78179 20.2153C3.15272 19.5867 2.71679 18.8034 2.58366 18.0647C2.43132 17.1473 2.31882 16.207 2.24335 15.2217C2.19835 14.632 1.7071 14.1759 1.11554 14.1759C0.45741 14.1759 -0.0624335 14.7361 -0.0122772 15.3923C0.0805353 16.6027 0.215067 17.6095 0.354285 18.4486C0.794442 20.94 3.05757 23.2027 5.54897 23.6433C6.34632 23.7759 7.296 23.9044 8.42804 23.9962C9.08757 24.0497 9.65288 23.5308 9.65288 22.8689Z" fill="#8793A3"/>
</g>
<defs>
<clipPath id="clip0_2043_18705">
<rect width="24" height="24" fill="white"/>
</clipPath>
</defs>
</svg>
