<svg width="16" height="16" viewBox="0 0 16 16" fill="none" xmlns="http://www.w3.org/2000/svg">
<path d="M4.79 11.4704L6.11075 11.0894L14.063 3.04192C14.1257 2.97765 14.1606 2.89127 14.1602 2.80146C14.1598 2.71165 14.1241 2.62561 14.0607 2.56192L13.5845 2.08042C13.5537 2.0488 13.517 2.02363 13.4763 2.00637C13.4357 1.98911 13.3921 1.98011 13.348 1.9799C13.3038 1.97969 13.2601 1.98828 13.2193 2.00515C13.1786 2.02202 13.1416 2.04685 13.1105 2.07817L5.17925 10.1047L4.78925 11.4697L4.79 11.4704ZM14.5272 1.12642L15.0035 1.60867C15.6605 2.27392 15.6665 3.34717 15.0155 4.00567L6.821 12.2992L3.998 13.1122C3.82565 13.1604 3.6412 13.1383 3.48512 13.0507C3.32905 12.9631 3.2141 12.8172 3.1655 12.6449C3.12934 12.5211 3.12882 12.3896 3.164 12.2654L3.98525 9.38542L12.158 1.11367C12.3134 0.957193 12.4984 0.833221 12.7022 0.748989C12.9061 0.664757 13.1246 0.621951 13.3451 0.623068C13.5657 0.624185 13.7838 0.669203 13.9867 0.755495C14.1897 0.841787 14.3734 0.968377 14.5272 1.12642ZM5.888 1.99117C6.26 1.99117 6.5615 2.29642 6.5615 2.67292C6.56209 2.76193 6.54514 2.85017 6.5116 2.93261C6.47807 3.01506 6.42861 3.09008 6.36606 3.1534C6.30351 3.21672 6.22909 3.26708 6.14706 3.30162C6.06503 3.33615 5.977 3.35418 5.888 3.35467H3.194C2.45 3.35467 1.847 3.96517 1.847 4.71742V12.8969C1.847 13.6499 2.45 14.2604 3.194 14.2604H11.276C12.02 14.2604 12.6238 13.6499 12.6238 12.8969V10.1707C12.6238 9.79417 12.9253 9.48892 13.2972 9.48892C13.6692 9.48892 13.9708 9.79418 13.9708 10.1714V12.8969C13.9708 14.4029 12.764 15.6239 11.276 15.6239H3.194C1.706 15.6239 0.5 14.4029 0.5 12.8969V4.71742C0.5 3.21217 1.706 1.99117 3.194 1.99117H5.888Z" fill="white"/>
</svg>
