<svg width="20" height="21" viewBox="0 0 20 21" fill="none" xmlns="http://www.w3.org/2000/svg">
<path d="M11 10.0402L11.9 10.9402C12.0833 11.1236 12.3167 11.2152 12.6 11.2152C12.8833 11.2152 13.1167 11.1236 13.3 10.9402C13.4833 10.7569 13.575 10.5236 13.575 10.2402C13.575 9.9569 13.4833 9.72357 13.3 9.54023L10.7 6.94023C10.5 6.74023 10.2667 6.64023 10 6.64023C9.73333 6.64023 9.5 6.74023 9.3 6.94023L6.7 9.54023C6.51667 9.72357 6.425 9.9569 6.425 10.2402C6.425 10.5236 6.51667 10.7569 6.7 10.9402C6.88333 11.1236 7.11667 11.2152 7.4 11.2152C7.68333 11.2152 7.91667 11.1236 8.1 10.9402L9 10.0402L9 13.2402C9 13.5236 9.096 13.7612 9.288 13.9532C9.48 14.1452 9.71733 14.2409 10 14.2402C10.2833 14.2402 10.521 14.1442 10.713 13.9522C10.905 13.7602 11.0007 13.5229 11 13.2402L11 10.0402ZM10 0.240234C11.3833 0.240234 12.6833 0.502901 13.9 1.02823C15.1167 1.55357 16.175 2.2659 17.075 3.16523C17.975 4.06523 18.6873 5.12357 19.212 6.34023C19.7367 7.5569 19.9993 8.8569 20 10.2402C20 11.6236 19.7373 12.9236 19.212 14.1402C18.6867 15.3569 17.9743 16.4152 17.075 17.3152C16.175 18.2152 15.1167 18.9276 13.9 19.4522C12.6833 19.9769 11.3833 20.2396 10 20.2402C8.61667 20.2402 7.31667 19.9776 6.1 19.4522C4.88333 18.9269 3.825 18.2146 2.925 17.3152C2.025 16.4152 1.31233 15.3569 0.787001 14.1402C0.261667 12.9236 -0.000667572 11.6236 0 10.2402C0 8.8569 0.262667 7.5569 0.788 6.34023C1.31333 5.12357 2.02567 4.06523 2.925 3.16523C3.825 2.26523 4.88333 1.55257 6.1 1.02724C7.31667 0.501902 8.61667 0.239567 10 0.240234ZM10 2.24023C7.76667 2.24023 5.875 3.01524 4.325 4.56524C2.775 6.11524 2 8.0069 2 10.2402C2 12.4736 2.775 14.3652 4.325 15.9152C5.875 17.4652 7.76667 18.2402 10 18.2402C12.2333 18.2402 14.125 17.4652 15.675 15.9152C17.225 14.3652 18 12.4736 18 10.2402C18 8.0069 17.225 6.11524 15.675 4.56524C14.125 3.01524 12.2333 2.24023 10 2.24023Z" fill="white"/>
</svg>
