<svg width="80" height="80" viewBox="0 0 80 80" fill="none" xmlns="http://www.w3.org/2000/svg">
<path fill-rule="evenodd" clip-rule="evenodd" d="M40.0003 13.3333C33.557 13.3333 28.3336 18.5567 28.3336 25C28.3336 31.4433 33.557 36.6667 40.0003 36.6667C46.4436 36.6667 51.6669 31.4433 51.6669 25C51.6669 18.5567 46.4436 13.3333 40.0003 13.3333ZM21.6669 25C21.6669 14.8748 29.8751 6.66667 40.0003 6.66667C50.1255 6.66667 58.3336 14.8748 58.3336 25C58.3336 35.1252 50.1255 43.3333 40.0003 43.3333C29.8751 43.3333 21.6669 35.1252 21.6669 25ZM31.0878 48.3332C31.278 48.3333 31.4711 48.3333 31.667 48.3333H48.3336C48.5295 48.3333 48.7225 48.3333 48.9127 48.3332C53.0036 48.3317 55.797 48.3306 58.1717 49.051C63.4984 50.6668 67.6668 54.8352 69.2826 60.1619C70.003 62.5366 70.0019 65.33 70.0004 69.4209C70.0003 69.6111 70.0003 69.8041 70.0003 70C70.0003 71.841 68.5079 73.3333 66.6669 73.3333C64.826 73.3333 63.3336 71.841 63.3336 70C63.3336 65.1056 63.2974 63.3974 62.903 62.0971C61.9335 58.9011 59.4325 56.4001 56.2365 55.4306C54.9362 55.0362 53.228 55 48.3336 55H31.667C26.7726 55 25.0643 55.0362 23.7641 55.4306C20.5681 56.4001 18.067 58.9011 17.0975 62.0971C16.7031 63.3974 16.6669 65.1056 16.6669 70C16.6669 71.841 15.1746 73.3333 13.3336 73.3333C11.4927 73.3333 10.0003 71.841 10.0003 70C10.0003 69.8041 10.0002 69.6111 10.0001 69.4209C9.99862 65.33 9.99759 62.5366 10.7179 60.1619C12.3338 54.8352 16.5022 50.6668 21.8289 49.051C24.2035 48.3306 26.9969 48.3317 31.0878 48.3332Z" fill="#9BA5B2"/>
</svg>
