<svg width="36" height="36" viewBox="0 0 36 36" fill="none" xmlns="http://www.w3.org/2000/svg">
<path fill-rule="evenodd" clip-rule="evenodd" d="M18 4.5C10.5442 4.5 4.5 10.5442 4.5 18C4.5 25.4558 10.5442 31.5 18 31.5C25.4558 31.5 31.5 25.4558 31.5 18C31.5 10.5442 25.4558 4.5 18 4.5ZM1.5 18C1.5 8.8873 8.8873 1.5 18 1.5C27.1127 1.5 34.5 8.8873 34.5 18C34.5 27.1127 27.1127 34.5 18 34.5C8.8873 34.5 1.5 27.1127 1.5 18ZM12.4396 12.4392C13.0254 11.8535 13.9752 11.8535 14.561 12.4393L21.0003 18.8787V13.5001C21.0003 12.6717 21.6719 12.0001 22.5003 12.0001C23.3287 12.0001 24.0003 12.6717 24.0003 13.5001V22.5001C24.0003 23.3285 23.3287 24.0001 22.5003 24.0001H13.5003C12.6719 24.0001 12.0003 23.3285 12.0003 22.5001C12.0003 21.6717 12.6719 21.0001 13.5003 21.0001H18.879L12.4396 14.5606C11.8538 13.9748 11.8538 13.025 12.4396 12.4392Z" fill="#006EFF"/>
</svg>
