<svg width="36" height="36" viewBox="0 0 36 36" fill="none" xmlns="http://www.w3.org/2000/svg">
<path fill-rule="evenodd" clip-rule="evenodd" d="M18 4.5C10.5442 4.5 4.5 10.5442 4.5 18C4.5 25.4558 10.5442 31.5 18 31.5C25.4558 31.5 31.5 25.4558 31.5 18C31.5 10.5442 25.4558 4.5 18 4.5ZM1.5 18C1.5 8.8873 8.8873 1.5 18 1.5C27.1127 1.5 34.5 8.8873 34.5 18C34.5 27.1127 27.1127 34.5 18 34.5C8.8873 34.5 1.5 27.1127 1.5 18ZM12.0003 13.5001C12.0003 12.6717 12.6719 12.0001 13.5003 12.0001H22.5003C23.3287 12.0001 24.0003 12.6717 24.0003 13.5001C24.0003 14.3285 23.3287 15.0001 22.5003 15.0001H17.1216L23.5609 21.4392C24.1467 22.025 24.1467 22.9748 23.561 23.5606C22.9752 24.1464 22.0254 24.1464 21.4396 23.5606L15.0003 17.1214V22.5001C15.0003 23.3285 14.3287 24.0001 13.5003 24.0001C12.6719 24.0001 12.0003 23.3285 12.0003 22.5001V13.5001Z" fill="#006EFF"/>
</svg>
