<svg width="12" height="15" viewBox="0 0 12 15" fill="none" xmlns="http://www.w3.org/2000/svg">
<path d="M5.25 12.75H6.75V9.61875L7.95 10.8188L9 9.75L6 6.75L3 9.75L4.06875 10.8L5.25 9.61875V12.75ZM1.5 15C1.0875 15 0.734251 14.853 0.440251 14.559C0.146251 14.265 -0.000498727 13.912 1.27335e-06 13.5V1.5C1.27335e-06 1.0875 0.147001 0.734251 0.441001 0.440251C0.735001 0.146251 1.088 -0.000498727 1.5 1.27335e-06H7.5L12 4.5V13.5C12 13.9125 11.853 14.2658 11.559 14.5598C11.265 14.8538 10.912 15.0005 10.5 15H1.5ZM6.75 5.25V1.5H1.5V13.5H10.5V5.25H6.75Z" fill="white"/>
</svg>
