<svg width="24" height="24" viewBox="0 0 24 24" fill="none" xmlns="http://www.w3.org/2000/svg">
<g clip-path="url(#clip0_2043_18700)">
<path d="M1.68437 14.7512C2.08234 16.4856 2.3589 17.4114 2.6589 18.3348C3.15812 19.8714 4.75234 21.0887 6.44265 21.2246C7.45843 21.3062 10.6773 21.3653 12.5491 21.3653C14.4208 21.3653 17.6116 21.3062 18.5912 21.2246C20.2192 21.0887 21.2547 19.8714 21.0484 18.3348C20.9247 17.4114 20.7756 16.4846 20.3777 14.7512C19.9797 13.0178 19.7036 12.0906 19.4036 11.1671C18.9039 9.63104 17.3102 8.41323 15.6198 8.27776C14.6041 8.1962 11.3852 8.13714 9.51297 8.13714C9.10984 8.13714 8.64484 8.13714 8.15359 8.14464C7.55125 8.1512 6.9475 7.72276 6.7675 7.16729V7.16167C6.53828 6.4562 5.80656 5.89604 5.03312 5.83511C4.56437 5.79761 3.9325 5.77089 3.07328 5.77089C2.21406 5.77089 1.5925 5.79761 1.14343 5.83511C0.392496 5.89745 -0.0823472 6.4562 0.0118715 7.16167C0.069059 7.58354 0.352184 8.94807 0.534997 9.74354L1.68437 14.7512Z" fill="#8793A3"/>
<path d="M21.5706 5.64479C20.5942 5.54682 17.4039 5.47604 15.5317 5.47604C15.1281 5.47604 14.6622 5.47932 14.1695 5.48542C13.5639 5.49292 13.165 4.98104 13.2531 4.31354V4.30651C13.3628 3.45995 12.9002 2.7887 12.1539 2.71276C11.7058 2.66589 11.0847 2.63495 10.2255 2.63495C9.36625 2.63495 8.73156 2.66776 8.26422 2.71276C7.48703 2.78729 6.74312 3.45854 6.4989 4.30651C6.44828 4.48136 6.3714 4.78932 6.28375 5.15682C6.96578 5.51776 7.51 6.12479 7.74437 6.84432V6.85136C7.78234 6.96807 7.97547 7.1162 8.13859 7.1162C8.64203 7.11104 9.10281 7.10823 9.50781 7.10823C11.3008 7.10823 14.6031 7.16401 15.6953 7.25214C16.7073 7.33323 17.7306 7.73401 18.5762 8.37714C19.4308 9.03011 20.0697 9.90714 20.3753 10.847C20.7034 11.8562 20.9847 12.8223 21.3742 14.5187C21.7464 16.1415 21.9114 17.0968 22.0436 18.0624C22.0858 17.949 22.1242 17.8332 22.158 17.7165C22.4777 16.6079 22.7744 15.4956 23.2098 13.4143C23.6453 11.3331 23.8145 10.2203 23.9598 9.11167C24.2045 7.26948 23.1958 5.80792 21.5706 5.64479Z" fill="#8793A3"/>
</g>
<defs>
<clipPath id="clip0_2043_18700">
<rect width="24" height="24" fill="white"/>
</clipPath>
</defs>
</svg>
