<svg width="36" height="36" viewBox="0 0 36 36" fill="none" xmlns="http://www.w3.org/2000/svg">
<path fill-rule="evenodd" clip-rule="evenodd" d="M7.74715 4.25C7.09076 4.25 6.55859 4.78216 6.55859 5.43856V30.5614C6.55859 31.2178 7.09076 31.75 7.74715 31.75H28.2556C28.912 31.75 29.4442 31.2178 29.4442 30.5614V5.43856C29.4442 4.78216 28.912 4.25 28.2556 4.25H7.74715ZM3.80859 5.43856C3.80859 3.26338 5.57197 1.5 7.74715 1.5H28.2556C30.4308 1.5 32.1942 3.26338 32.1942 5.43856V30.5614C32.1942 32.7366 30.4308 34.5 28.2556 34.5H7.74715C5.57197 34.5 3.80859 32.7366 3.80859 30.5614V5.43856Z" fill="#006EFF"/>
<path fill-rule="evenodd" clip-rule="evenodd" d="M18.0012 9.12085C14.5132 9.12085 11.6855 11.9485 11.6855 15.4365C11.6855 18.9246 14.5132 21.7522 18.0012 21.7522C21.4893 21.7522 24.3169 18.9246 24.3169 15.4365C24.3169 11.9485 21.4893 9.12085 18.0012 9.12085ZM8.93555 15.4365C8.93555 10.4297 12.9944 6.37085 18.0012 6.37085C23.0081 6.37085 27.0669 10.4297 27.0669 15.4365C27.0669 20.4434 23.0081 24.5022 18.0012 24.5022C12.9944 24.5022 8.93555 20.4434 8.93555 15.4365Z" fill="#006EFF"/>
<path fill-rule="evenodd" clip-rule="evenodd" d="M17.4928 10.433C17.087 11.6502 16.8125 13.4192 16.8125 15.4363C16.8125 17.4533 17.087 19.2224 17.4928 20.4396C17.6664 20.9603 17.8463 21.3261 18.0011 21.5579C18.1559 21.3261 18.3358 20.9603 18.5093 20.4396C18.9151 19.2224 19.1896 17.4533 19.1896 15.4363C19.1896 13.4192 18.9151 11.6502 18.5093 10.433C18.3358 9.91224 18.1559 9.54644 18.0011 9.31471C17.8463 9.54644 17.6664 9.91224 17.4928 10.433ZM18.2059 9.07183C18.2059 9.07213 18.2029 9.07452 18.1969 9.07809C18.2029 9.07331 18.2059 9.07153 18.2059 9.07183ZM17.8053 9.07809C17.7992 9.07452 17.7962 9.07213 17.7962 9.07183C17.7962 9.07153 17.7992 9.07331 17.8053 9.07809ZM17.7962 21.8007C17.7962 21.8004 17.7992 21.7981 17.8053 21.7945C17.7992 21.7993 17.7962 21.801 17.7962 21.8007ZM18.1969 21.7945C18.2029 21.7981 18.2059 21.8004 18.2059 21.8007C18.2059 21.801 18.2029 21.7993 18.1969 21.7945ZM15.9233 7.49889C16.3535 6.95301 17.0452 6.37061 18.0011 6.37061C18.9569 6.37061 19.6486 6.95301 20.0789 7.49889C20.5213 8.06027 20.8596 8.7874 21.1182 9.56334C21.6403 11.1296 21.9396 13.2059 21.9396 15.4363C21.9396 17.6667 21.6403 19.743 21.1182 21.3092C20.8596 22.0852 20.5213 22.8123 20.0789 23.3737C19.6486 23.9196 18.9569 24.502 18.0011 24.502C17.0452 24.502 16.3535 23.9196 15.9233 23.3737C15.4808 22.8123 15.1426 22.0852 14.8839 21.3092C14.3618 19.743 14.0625 17.6667 14.0625 15.4363C14.0625 13.2059 14.3618 11.1296 14.8839 9.56334C15.1426 8.7874 15.4808 8.06027 15.9233 7.49889Z" fill="#006EFF"/>
<path fill-rule="evenodd" clip-rule="evenodd" d="M8.93555 15.436C8.93555 14.6766 9.55116 14.061 10.3105 14.061H25.6919C26.4513 14.061 27.0669 14.6766 27.0669 15.436C27.0669 16.1954 26.4513 16.811 25.6919 16.811H10.3105C9.55116 16.811 8.93555 16.1954 8.93555 15.436ZM13.4355 28.2538C13.4355 27.4944 14.0512 26.8788 14.8105 26.8788H21.1919C21.9513 26.8788 22.5669 27.4944 22.5669 28.2538C22.5669 29.0132 21.9513 29.6288 21.1919 29.6288H14.8105C14.0512 29.6288 13.4355 29.0132 13.4355 28.2538Z" fill="#006EFF"/>
</svg>
