<svg width="24" height="24" viewBox="0 0 24 24" fill="none" xmlns="http://www.w3.org/2000/svg">
<g clip-path="url(#clip0_2228_17965)">
<path d="M23.9531 7.73438C23.9531 3.4628 20.4903 0 16.2188 0C11.9472 0 8.48438 3.4628 8.48438 7.73438C8.48438 8.88431 8.73572 9.97542 9.18591 10.9563C10.4271 10.413 11.2969 9.17367 11.2969 7.73438C11.2969 5.01609 13.5005 2.8125 16.2188 2.8125C18.937 2.8125 21.1406 5.01609 21.1406 7.73438C21.1406 10.4527 18.937 12.6562 16.2188 12.6562C15.9806 12.6562 15.7466 12.639 15.5175 12.6063C14.9546 13.5005 14.2412 14.2907 13.409 14.9417C13.8631 15.119 14.3331 15.2526 14.8125 15.3408V19.3125H13.3623C13.108 19.3125 12.8764 19.4543 12.7671 19.677C12.6578 19.8997 12.6904 20.1634 12.8507 20.3548L15.7072 23.7638C15.8323 23.9133 16.0202 24 16.2188 24C16.4173 24 16.6052 23.9133 16.7303 23.7639L19.5868 20.3548C19.7472 20.1634 19.7797 19.8997 19.6704 19.677C19.5611 19.4544 19.3295 19.3125 19.0752 19.3125H17.625V15.3409C21.2251 14.6795 23.9531 11.5257 23.9531 7.73438Z" fill="#006EFF"/>
<path d="M10.5938 19.0781H9.1875V15.3408C12.7876 14.6795 15.5156 11.5257 15.5156 7.73438C15.5156 6.58444 15.2643 5.49333 14.8142 4.51242C13.5729 5.05566 12.7031 6.29503 12.7031 7.73438C12.7031 10.4527 10.4995 12.6562 7.78125 12.6562C5.06297 12.6562 2.85938 10.4527 2.85938 7.73438C2.85938 5.01609 5.06297 2.8125 7.78125 2.8125C8.02116 2.8125 8.25694 2.83003 8.4877 2.86317C9.05267 1.97002 9.76709 1.18072 10.5997 0.529828C9.72637 0.187875 8.7758 0 7.78125 0C3.50967 0 0.046875 3.4628 0.046875 7.73438C0.046875 11.5257 2.77491 14.6795 6.375 15.3408V19.0781H4.96875C4.58044 19.0781 4.26562 19.3929 4.26562 19.7812V21.1875C4.26562 21.5758 4.58044 21.8906 4.96875 21.8906H6.375V23.2969C6.375 23.6852 6.68981 24 7.07812 24H8.48438C8.87269 24 9.1875 23.6852 9.1875 23.2969V21.8906H10.5938C10.9821 21.8906 11.2969 21.5758 11.2969 21.1875V19.7812C11.2969 19.3929 10.9821 19.0781 10.5938 19.0781Z" fill="#006EFF"/>
</g>
<defs>
<clipPath id="clip0_2228_17965">
<rect width="24" height="24" fill="white"/>
</clipPath>
</defs>
</svg>
