<svg width="16" height="16" viewBox="0 0 16 16" fill="none" xmlns="http://www.w3.org/2000/svg">
<g clip-path="url(#clip0_1504_13413)">
<path d="M7.998 0H8.002C12.413 0 16 3.588 16 8C16 12.218 12.2529 16 7.998 16C3.587 16 0 12.411 0 8C0 3.589 3.587 0 7.998 0ZM3.343 11.297C3.536 11.842 4.302 12.294 4.913 12.426C5.331 12.515 5.877 12.586 7.715 11.824C10.066 10.85 11.58 8.461 11.698 8.306C11.811 8.151 12.648 7.041 12.648 5.893C12.648 4.745 12.065 4.186 11.83 3.946C11.637 3.749 11.318 3.659 11.012 3.659C10.913 3.659 10.824 3.664 10.744 3.668C10.509 3.678 10.391 3.692 10.236 4.063C10.043 4.528 9.573 5.676 9.517 5.794C9.46 5.912 9.403 6.072 9.483 6.227C9.558 6.387 9.624 6.458 9.742 6.594C9.86 6.73 9.972 6.834 10.09 6.98C10.198 7.107 10.32 7.243 10.184 7.478C10.048 7.708 9.578 8.475 8.886 9.091C7.993 9.886 7.269 10.14 7.01 10.248C6.817 10.328 6.587 10.309 6.446 10.159C6.267 9.966 6.046 9.646 5.821 9.331C5.661 9.105 5.459 9.077 5.247 9.157C5.031 9.232 3.888 9.797 3.653 9.914C3.418 10.032 3.263 10.088 3.206 10.187C3.15 10.286 3.15 10.751 3.343 11.297Z" fill="white"/>
</g>
<defs>
<clipPath id="clip0_1504_13413">
<rect width="16" height="16" fill="white"/>
</clipPath>
</defs>
</svg>
