<svg width="24" height="24" viewBox="0 0 24 24" fill="none" xmlns="http://www.w3.org/2000/svg">
<g clip-path="url(#clip0_2043_18695)">
<path d="M11.6512 18.9783C11.6516 17.792 11.9717 16.6278 12.5778 15.6081C13.1838 14.5884 14.0535 13.7509 15.0954 13.1837C16.1372 12.6165 17.3127 12.3405 18.4981 12.3849C19.6835 12.4293 20.835 12.7923 21.8316 13.4358C21.8386 12.9469 21.8423 12.4252 21.8423 11.8622C21.8423 8.96766 21.7439 7.16109 21.5494 5.28984H21.577C21.4695 4.24712 21.0713 3.25556 20.4277 2.42808C19.7842 1.60059 18.9213 0.970436 17.9372 0.609375C17.8852 0.589688 17.8331 0.570938 17.7806 0.553125C17.3917 0.422396 16.9896 0.334838 16.5816 0.292031L16.5427 0.287813C14.9859 0.127969 14.7361 0 11.4534 0C8.17078 0 7.63969 0.127969 6.08438 0.290156L6.04547 0.294375C5.61712 0.339359 5.19541 0.433736 4.78875 0.575625V0.554531C3.77477 0.899286 2.88089 1.52754 2.21309 2.36483C1.54529 3.20212 1.13155 4.21333 1.02094 5.27859C0.825937 7.15359 0.726562 8.96203 0.726562 11.8622C0.726562 14.7623 0.825937 16.5708 1.02094 18.4458C1.15409 19.7253 1.72325 20.92 2.63291 21.8296C3.54257 22.7392 4.73738 23.3082 6.01688 23.4412L6.05578 23.4455C7.6125 23.6077 7.86188 23.7356 11.1445 23.7356C12.232 23.7356 13.0195 23.7216 13.6378 23.6967C13.0082 23.0829 12.508 22.3491 12.1668 21.5386C11.8256 20.7282 11.6503 19.8576 11.6512 18.9783ZM6.16687 6.24141H16.4002C16.6963 6.24141 16.9803 6.35904 17.1897 6.56844C17.3991 6.77784 17.5167 7.06184 17.5167 7.35797C17.5167 7.6541 17.3991 7.9381 17.1897 8.1475C16.9803 8.35689 16.6963 8.47453 16.4002 8.47453H6.16922C5.87309 8.47453 5.58909 8.35689 5.37969 8.1475C5.17029 7.9381 5.05266 7.6541 5.05266 7.35797C5.05266 7.06184 5.17029 6.77784 5.37969 6.56844C5.58909 6.35904 5.87309 6.24141 6.16922 6.24141H6.16687ZM6.16687 13.2525C5.87464 13.2465 5.5964 13.1262 5.39185 12.9174C5.18729 12.7086 5.07273 12.428 5.07273 12.1357C5.07273 11.8434 5.18729 11.5628 5.39185 11.354C5.5964 11.1452 5.87464 11.0249 6.16687 11.0189H12.0033C12.1519 11.0159 12.2996 11.0425 12.4377 11.0973C12.5759 11.152 12.7017 11.2338 12.8079 11.3378C12.9141 11.4418 12.9984 11.5659 13.056 11.703C13.1135 11.84 13.1432 11.9871 13.1432 12.1357C13.1432 12.2843 13.1135 12.4314 13.056 12.5685C12.9984 12.7055 12.9141 12.8296 12.8079 12.9336C12.7017 13.0376 12.5759 13.1194 12.4377 13.1742C12.2996 13.2289 12.1519 13.2555 12.0033 13.2525H6.16687Z" fill="#8793A3"/>
<path d="M18.2498 13.9566C17.2566 13.9566 16.2857 14.2511 15.4599 14.8029C14.6341 15.3547 13.9905 16.139 13.6104 17.0566C13.2303 17.9742 13.1309 18.9839 13.3246 19.958C13.5184 20.9321 13.9967 21.8269 14.699 22.5292C15.4013 23.2315 16.296 23.7097 17.2702 23.9035C18.2443 24.0973 19.254 23.9978 20.1716 23.6177C21.0892 23.2377 21.8735 22.594 22.4253 21.7682C22.977 20.9424 23.2716 19.9715 23.2716 18.9783C23.2716 17.6464 22.7425 16.3691 21.8007 15.4274C20.859 14.4856 19.5817 13.9566 18.2498 13.9566ZM20.2402 19.7133H18.15C17.9915 19.7133 17.8395 19.6503 17.7274 19.5382C17.6153 19.4261 17.5523 19.2741 17.5523 19.1156V15.9047C17.5523 15.7462 17.6153 15.5942 17.7274 15.4821C17.8395 15.37 17.9915 15.307 18.15 15.307C18.3085 15.307 18.4605 15.37 18.5726 15.4821C18.6847 15.5942 18.7477 15.7462 18.7477 15.9047V18.518H20.2402C20.3987 18.518 20.5507 18.5809 20.6628 18.693C20.7748 18.8051 20.8378 18.9571 20.8378 19.1156C20.8378 19.2741 20.7748 19.4261 20.6628 19.5382C20.5507 19.6503 20.3987 19.7133 20.2402 19.7133Z" fill="#8793A3"/>
</g>
<defs>
<clipPath id="clip0_2043_18695">
<rect width="24" height="24" fill="white"/>
</clipPath>
</defs>
</svg>
