<svg width="24" height="24" viewBox="0 0 24 24" fill="none" xmlns="http://www.w3.org/2000/svg">
<g clip-path="url(#clip0_2021_12114)">
<g clip-path="url(#clip1_2021_12114)">
<path d="M14.7825 0.217512C14.7124 0.148003 14.6293 0.0930109 14.5379 0.0556876C14.4466 0.0183643 14.3487 -0.000555682 14.25 1.24242e-05H2.25C1.00734 1.24242e-05 0 1.0074 0 2.25001V21.75C0 22.9927 1.00734 24 2.25 24H7.5V22.5H2.25C1.83577 22.5 1.5 22.1642 1.5 21.75V2.25001C1.5 1.83578 1.83577 1.50001 2.25 1.50001H13.5V4.50001C13.5 5.32843 14.1716 6.00001 15 6.00001H18V8.25001H19.5V5.25001C19.5006 5.15131 19.4817 5.05346 19.4443 4.96208C19.407 4.8707 19.352 4.78759 19.2825 4.71751L14.7825 0.217512Z" fill="#006EFF"/>
<path d="M8.25 13.5H9.75V19.5H11.25V13.5H12.75V12H8.25V13.5ZM6 15H4.5V12H3V19.5H4.5V16.5H6V19.5H7.5V12H6V15ZM19.035 12.06C18.8977 12.0035 18.7467 11.989 18.6012 12.0184C18.4557 12.0478 18.3221 12.1197 18.2175 12.225L16.5 13.9425L14.7825 12.225C14.4908 11.9309 14.016 11.9289 13.7219 12.2206C13.5806 12.3607 13.5008 12.5511 13.5 12.75V19.5H15V14.5575L15.9675 15.525C16.26 15.8158 16.7325 15.8158 17.025 15.525L18 14.5575V19.5H19.5V12.75C19.4993 12.6019 19.4547 12.4574 19.372 12.3346C19.2892 12.2118 19.172 12.1163 19.035 12.06ZM21.75 18V12H20.25V18.75C20.25 19.1642 20.5858 19.5 21 19.5H24V18H21.75Z" fill="#006EFF"/>
</g>
</g>
<defs>
<clipPath id="clip0_2021_12114">
<rect width="24" height="24" fill="white"/>
</clipPath>
<clipPath id="clip1_2021_12114">
<rect width="24" height="24" fill="white"/>
</clipPath>
</defs>
</svg>
