<svg width="24" height="24" viewBox="0 0 24 24" fill="none" xmlns="http://www.w3.org/2000/svg">
<g clip-path="url(#clip0_3141_877)">
<path d="M12 0C5.37281 0 0 5.37281 0 12C0 18.6272 5.37281 24 12 24C18.6272 24 24 18.6277 24 12C24 5.37234 18.6272 0 12 0ZM13.3294 17.1903C13.3294 17.9244 12.7341 18.5197 12 18.5197C11.2659 18.5197 10.6706 17.9244 10.6706 17.1903V10.7964C10.6706 10.0623 11.2659 9.46703 12 9.46703C12.7341 9.46703 13.3294 10.0623 13.3294 10.7964V17.1903ZM13.3256 7.31828C13.275 7.60375 13.0163 7.8625 12.7308 7.91313C12.5578 7.94172 12.322 7.96891 12 7.96937C11.6784 7.96937 11.4427 7.94219 11.2692 7.91313C10.9837 7.8625 10.725 7.60375 10.6744 7.31828C10.6458 7.14531 10.6186 6.90953 10.6181 6.5875C10.6181 6.26594 10.6453 6.03016 10.6744 5.85672C10.725 5.57125 10.9837 5.3125 11.2692 5.26188C11.4422 5.23328 11.678 5.20609 12 5.20563C12.3216 5.20563 12.5573 5.23281 12.7308 5.26188C13.0163 5.3125 13.275 5.57125 13.3256 5.85672C13.3542 6.02969 13.3814 6.26547 13.3819 6.5875C13.3819 6.90906 13.3547 7.14484 13.3256 7.31828Z" fill="#D1D5DB"/>
</g>
<defs>
<clipPath id="clip0_3141_877">
<rect width="24" height="24" fill="white"/>
</clipPath>
</defs>
</svg>
