<svg width="36" height="36" viewBox="0 0 36 36" fill="none" xmlns="http://www.w3.org/2000/svg">
<path fill-rule="evenodd" clip-rule="evenodd" d="M12.0003 13.5C12.0003 7.70101 16.7013 3 22.5003 3C28.2993 3 33.0003 7.70101 33.0003 13.5C33.0003 19.299 28.2993 24 22.5003 24C22.0227 24 21.5519 23.968 21.0899 23.9059C20.7524 23.8605 20.5412 23.8324 20.3872 23.8175C20.3598 23.8149 20.3372 23.813 20.3191 23.8117C20.3146 23.8157 20.3096 23.8202 20.3043 23.825C20.2241 23.8981 20.1185 24.0031 19.9296 24.192L17.5609 26.5607C17.2796 26.842 16.8981 27 16.5003 27H15.0003V28.5C15.0003 29.3284 14.3287 30 13.5003 30H12.0003V31.5C12.0003 32.3284 11.3287 33 10.5003 33L6.85241 33C6.47385 33 6.10517 33.0001 5.79294 32.9746C5.45005 32.9466 5.04545 32.8805 4.63832 32.673C4.07383 32.3854 3.61489 31.9265 3.32727 31.362C3.11982 30.9548 3.05372 30.5502 3.0257 30.2073C3.00019 29.8951 3.00024 29.5264 3.00028 29.1478L3.00029 26.4941C3.00029 26.4693 3.00022 26.4437 3.00015 26.4176C2.99939 26.1327 2.99843 25.774 3.08318 25.421C3.15667 25.1149 3.27788 24.8222 3.44237 24.5538C3.63205 24.2443 3.88637 23.9913 4.08834 23.7904C4.10689 23.772 4.125 23.754 4.14257 23.7364L11.8083 16.0706C11.9972 15.8818 12.1022 15.7762 12.1753 15.696C12.1801 15.6907 12.1846 15.6857 12.1886 15.6812C12.1873 15.6631 12.1854 15.6405 12.1828 15.6131C12.1679 15.4591 12.1397 15.2479 12.0944 14.9104C12.0323 14.4484 12.0003 13.9775 12.0003 13.5ZM12.0003 27V25.5C12.0003 24.6716 12.6719 24 13.5003 24H15.879L17.8083 22.0706C17.8339 22.045 17.8601 22.0187 17.8869 21.9917C18.1558 21.7211 18.4828 21.392 18.8556 21.1836C19.2057 20.9879 19.4974 20.8893 19.8945 20.8325C20.1846 20.791 20.4671 20.8113 20.6755 20.8314C20.8923 20.8524 21.1602 20.8884 21.4629 20.9291L21.4896 20.9327C21.8195 20.977 22.1568 21 22.5003 21C26.6424 21 30.0003 17.6421 30.0003 13.5C30.0003 9.35786 26.6424 6 22.5003 6C18.3582 6 15.0003 9.35786 15.0003 13.5C15.0003 13.8435 15.0233 14.1808 15.0676 14.5107L15.0712 14.5374C15.1119 14.8402 15.1479 15.108 15.1689 15.3248C15.189 15.5332 15.2092 15.8157 15.1677 16.1058C15.111 16.5028 15.0124 16.7946 14.8167 17.1447C14.6083 17.5175 14.2792 17.8445 14.0086 18.1134C13.9816 18.1402 13.9553 18.1664 13.9296 18.192L6.26389 25.8577C6.12494 25.9967 6.05585 26.0663 6.00778 26.1189C6.00652 26.1203 6.00531 26.1216 6.00416 26.1229C6.00407 26.1246 6.00399 26.1264 6.0039 26.1283C6.00064 26.1995 6.00029 26.2976 6.00029 26.4941V29.1C6.00029 29.5448 6.00145 29.7882 6.01574 29.9631C6.01631 29.97 6.01688 29.9766 6.01746 29.9828C6.02368 29.9834 6.03028 29.984 6.03724 29.9845C6.21212 29.9988 6.4555 30 6.90029 30H9.00029V28.5C9.00029 27.6716 9.67186 27 10.5003 27H12.0003ZM21.0003 10.5C21.0003 9.67157 21.6719 9 22.5003 9C23.6496 9 24.8039 9.43963 25.6823 10.318C26.5606 11.1964 27.0003 12.3506 27.0003 13.4999C27.0003 14.3283 26.3288 14.9999 25.5003 14.9999C24.6719 14.9999 24.0003 14.3284 24.0003 13.5C24.0003 13.1138 23.8541 12.7325 23.5609 12.4393C23.2678 12.1462 22.8865 12 22.5003 12C21.6719 12 21.0003 11.3284 21.0003 10.5Z" fill="#006EFF"/>
</svg>
