<svg width="24" height="24" viewBox="0 0 24 24" fill="none" xmlns="http://www.w3.org/2000/svg">
<path d="M17.1171 7.93679L12.36 5.14605C12.1286 5.01684 11.82 5.01684 11.5886 5.14605L6.83143 7.93679C6.6 8.06599 6.29143 8.06599 6.06 7.93679L4.98 7.31662C4.46571 7.00654 4.46571 6.28301 4.98 5.97293L11.5886 2.0969C11.82 1.9677 12.1286 1.9677 12.36 2.0969L18.9686 5.97293C19.4829 6.28301 19.4829 7.00654 18.9686 7.31662L17.8886 7.93679C17.6571 8.09183 17.3486 8.09183 17.1171 7.93679ZM8.76 15.3529L11.5629 13.6992C11.7943 13.57 12.1029 13.57 12.3343 13.6992L15.1629 15.3529C15.42 15.508 15.42 15.8956 15.1629 16.0506L12.36 17.7044C12.1286 17.8336 11.82 17.8336 11.5886 17.7044L8.76 16.0506C8.50286 15.8956 8.50286 15.508 8.76 15.3529Z" fill="#006EFF"/>
<path d="M14.0057 8.14351L16.2686 9.46136C16.5 9.59056 16.6543 9.84896 16.6543 10.1332V13.4149C16.6543 13.7508 16.2943 13.9576 16.0114 13.7767L13.2343 12.1487C13.0029 12.0195 12.8486 11.7611 12.8486 11.4769V8.81535C12.8486 8.22103 13.4914 7.85927 14.0057 8.14351ZM10.7143 12.1746L7.88571 13.8284C7.62857 13.9834 7.29429 13.8025 7.29429 13.4924V10.159C7.29429 9.8748 7.44857 9.6164 7.68 9.4872L9.94286 8.16935C10.4571 7.85927 11.1 8.24687 11.1 8.84119V11.5286C11.1 11.787 10.9714 12.0195 10.7143 12.1746Z" fill="#006EFF"/>
<path d="M20.5886 17.9886L14.0057 21.8647C13.4914 22.1747 12.8486 21.7871 12.8486 21.1928V19.9266C12.8486 19.6424 13.0029 19.384 13.2343 19.2548L18.0171 16.4382C18.2486 16.309 18.4029 16.0506 18.4029 15.7664V10.159C18.4029 9.8748 18.5571 9.6164 18.7886 9.4872L19.8429 8.86703C20.3571 8.55695 21 8.94455 21 9.53888V17.3168C20.9743 17.5752 20.82 17.8336 20.5886 17.9886ZM5.57143 10.159V15.7922C5.57143 16.0765 5.72571 16.3349 5.95714 16.4641L10.74 19.2806C10.9714 19.4098 11.1257 19.6682 11.1257 19.9525V21.2187C11.1257 21.813 10.4829 22.2006 9.96857 21.8905L3.38571 18.0145C3.15429 17.8853 3 17.6269 3 17.3426V9.53888C3 8.94455 3.64286 8.55695 4.15714 8.86703L5.21143 9.4872C5.41714 9.6164 5.57143 9.8748 5.57143 10.159Z" fill="#006EFF"/>
</svg>
