<svg width="24" height="24" viewBox="0 0 24 24" fill="none" xmlns="http://www.w3.org/2000/svg">
<path d="M22.7314 21.4352L16.4752 15.1781C17.7321 13.6323 18.4177 11.7006 18.4167 9.70833C18.4167 4.90683 14.5098 1 9.70833 1C4.90683 1 1 4.90683 1 9.70833C1 14.5098 4.90683 18.4167 9.70833 18.4167C11.701 18.4177 13.6331 17.7317 15.179 16.4742L21.4352 22.7314C21.6071 22.9033 21.8402 22.9998 22.0833 22.9998C22.3264 22.9998 22.5595 22.9033 22.7314 22.7314C22.9033 22.5595 22.9998 22.3264 22.9998 22.0833C22.9998 21.8402 22.9033 21.6071 22.7314 21.4352ZM9.70833 16.5833C5.91791 16.5833 2.83333 13.4987 2.83333 9.70833C2.83333 5.91791 5.91791 2.83333 9.70833 2.83333C13.4987 2.83333 16.5833 5.91791 16.5833 9.70833C16.5833 13.4987 13.4987 16.5833 9.70833 16.5833Z" fill="black"/>
<path d="M9.61222 14.4297C9.69832 14.474 9.8005 14.474 9.88661 14.4297L12.9806 12.8387C13.1977 12.7271 13.1977 12.4167 12.9806 12.3051L9.88661 10.7141C9.8005 10.6698 9.69832 10.6698 9.61222 10.7141L6.51824 12.3051C6.30116 12.4167 6.30116 12.7271 6.51824 12.8387L9.61222 14.4297ZM9.12441 9.52868C9.12441 9.64109 9.06156 9.74408 8.96159 9.79548L6.43659 11.0937C6.23694 11.1963 5.99941 11.0514 5.99941 10.8269V7.17251C5.99939 7.09334 6.01912 7.01608 6.0559 6.95123C6.09269 6.88637 6.14476 6.83706 6.20504 6.80998L8.70162 5.68993C8.9001 5.60088 9.12441 5.74609 9.12441 5.96364V9.52868ZM10.5372 9.79548C10.4373 9.74408 10.3744 9.64109 10.3744 9.52868V5.96364C10.3744 5.74609 10.5987 5.60088 10.7972 5.68993L13.2938 6.80998C13.3541 6.83706 13.4061 6.88637 13.4429 6.95123C13.4797 7.01608 13.4994 7.09334 13.4994 7.17251V10.8269C13.4994 11.0514 13.2619 11.1963 13.0622 11.0937L10.5372 9.79548Z" fill="black"/>
</svg>
