<svg width="36" height="36" viewBox="0 0 36 36" fill="none" xmlns="http://www.w3.org/2000/svg">
<path fill-rule="evenodd" clip-rule="evenodd" d="M18 4.5C12.201 4.5 7.5 9.20101 7.5 15C7.5 17.8382 8.77975 20.5171 10.9384 23.32C12.7611 25.6868 15.0941 28.0009 17.5984 30.4849C17.7318 30.6173 17.8657 30.7501 18 30.8834C18.1343 30.7501 18.2682 30.6173 18.4016 30.4849C20.9059 28.0009 23.2389 25.6868 25.0616 23.32C27.2202 20.5171 28.5 17.8382 28.5 15C28.5 9.20101 23.799 4.5 18 4.5ZM4.5 15C4.5 7.54416 10.5442 1.5 18 1.5C25.4558 1.5 31.5 7.54416 31.5 15C31.5 18.7893 29.7798 22.1103 27.4384 25.1505C25.4819 27.691 22.9778 30.1734 20.4762 32.6533C20.003 33.1224 19.5299 33.5914 19.0607 34.0607C18.4749 34.6464 17.5251 34.6464 16.9393 34.0607C16.4701 33.5914 15.997 33.1224 15.5238 32.6533C13.0222 30.1734 10.5181 27.691 8.56158 25.1505C6.22025 22.1103 4.5 18.7893 4.5 15ZM18 12C16.3431 12 15 13.3431 15 15C15 16.6569 16.3431 18 18 18C19.6569 18 21 16.6569 21 15C21 13.3431 19.6569 12 18 12ZM12 15C12 11.6863 14.6863 9 18 9C21.3137 9 24 11.6863 24 15C24 18.3137 21.3137 21 18 21C14.6863 21 12 18.3137 12 15Z" fill="#006EFF"/>
</svg>
