<svg width="36" height="36" viewBox="0 0 36 36" fill="none" xmlns="http://www.w3.org/2000/svg">
<g clip-path="url(#clip0_1096_3350)">
<path fill-rule="evenodd" clip-rule="evenodd" d="M30.5459 0C30.9438 0 31.3253 0.158035 31.6066 0.43934L35.5607 4.3934C36.1464 4.97918 36.1464 5.92893 35.5607 6.51472L31.6066 10.4688L31.6066 10.4688C30.302 11.7733 28.3672 12.0634 26.7823 11.3391L24.8355 13.2859C25.1653 16.036 25.0873 19.8149 24.2851 23.6561C23.4065 27.8629 21.6235 32.3139 18.3767 35.5607C18.0954 35.842 17.7139 36 17.3161 36C16.9183 36 16.5367 35.842 16.2554 35.5607L0.43934 19.7446C-0.146447 19.1588 -0.146447 18.209 0.43934 17.6233C3.68606 14.3765 8.13707 12.5935 12.3439 11.7149C16.1851 10.9127 19.964 10.8347 22.7141 11.1645L24.6609 9.21773C23.9366 7.6328 24.2267 5.6979 25.5313 4.39333L29.4853 0.43934C29.7666 0.158035 30.1481 0 30.5459 0ZM19.8935 13.9852C17.84 13.9528 15.4207 14.1371 12.9572 14.6516C9.58291 15.3563 6.25345 16.6534 3.67769 18.7403L17.2597 32.3223C19.3466 29.7465 20.6437 26.4171 21.3484 23.0428C21.8629 20.5793 22.0472 18.16 22.0148 16.1065L18.3767 19.7446C17.791 20.3304 16.8412 20.3304 16.2554 19.7446C15.6696 19.1588 15.6696 18.209 16.2554 17.6233L19.8935 13.9852ZM30.5459 3.62132L27.6526 6.51465C27.1465 7.02074 27.1465 7.84129 27.6526 8.34738C28.1587 8.85347 28.9792 8.85348 29.4853 8.34745C29.4853 8.34744 29.4853 8.34743 29.4853 8.34742L32.3787 5.45406L30.5459 3.62132Z" fill="#006EFF"/>
<path fill-rule="evenodd" clip-rule="evenodd" d="M15.3408 19.3652C14.6251 19.3652 14.0449 19.9454 14.0449 20.6612C14.0449 21.3769 14.6251 21.9571 15.3408 21.9571C16.0566 21.9571 16.6368 21.3769 16.6368 20.6612C16.6368 19.9454 16.0566 19.3652 15.3408 19.3652ZM11.0449 20.6612C11.0449 18.2886 12.9683 16.3652 15.3408 16.3652C17.7134 16.3652 19.6368 18.2886 19.6368 20.6612C19.6368 23.0337 17.7134 24.9571 15.3408 24.9571C12.9683 24.9571 11.0449 23.0337 11.0449 20.6612Z" fill="#006EFF"/>
<path fill-rule="evenodd" clip-rule="evenodd" d="M23.5546 2.41686C24.1404 1.83108 25.0901 1.8311 25.6759 2.4169L27.6529 4.39396C28.2387 4.97976 28.2387 5.92951 27.6529 6.51528C27.0671 7.10106 26.1173 7.10104 25.5315 6.51524L23.5546 4.53818C22.9688 3.95238 22.9688 3.00264 23.5546 2.41686ZM29.4855 8.34795C30.0713 7.76215 31.0211 7.76213 31.6069 8.34791L33.5839 10.3249C34.1697 10.9107 34.1697 11.8604 33.584 12.4462C32.9982 13.032 32.0484 13.032 31.4626 12.4463L29.4856 10.4693C28.8998 9.88349 28.8998 8.93374 29.4855 8.34795Z" fill="#006EFF"/>
</g>
<defs>
<clipPath id="clip0_1096_3350">
<rect width="36" height="36" fill="white"/>
</clipPath>
</defs>
</svg>
