<svg width="24" height="24" viewBox="0 0 24 24" fill="none" xmlns="http://www.w3.org/2000/svg">
<g clip-path="url(#clip0_2043_18721)">
<path d="M23.3725 10.3819L20.8309 7.84031C20.6232 7.63838 20.3444 7.52631 20.0548 7.52835C19.7652 7.53039 19.488 7.64637 19.2832 7.85121C19.0784 8.05606 18.9625 8.33328 18.9606 8.62292C18.9586 8.91256 19.0708 9.19132 19.2728 9.39891L20.6396 10.7658H15.3568C15.2095 10.7615 15.0627 10.7868 14.9253 10.8402C14.7879 10.8936 14.6626 10.9741 14.5569 11.0768C14.4511 11.1795 14.3671 11.3024 14.3096 11.4382C14.2522 11.574 14.2227 11.7199 14.2227 11.8673C14.2227 12.0148 14.2522 12.1607 14.3096 12.2965C14.3671 12.4323 14.4511 12.5552 14.5569 12.6579C14.6626 12.7606 14.7879 12.841 14.9253 12.8945C15.0627 12.9479 15.2095 12.9732 15.3568 12.9689H20.6889L19.322 14.3362C19.2197 14.4386 19.1385 14.56 19.0832 14.6937C19.0278 14.8274 18.9993 14.9706 18.9993 15.1153C18.9993 15.26 19.0278 15.4033 19.0832 15.5369C19.1385 15.6706 19.2197 15.7921 19.322 15.8944C19.5286 16.101 19.8088 16.2171 20.101 16.2171C20.2457 16.2171 20.389 16.1886 20.5227 16.1332C20.6563 16.0778 20.7778 15.9967 20.8801 15.8944L23.3725 13.402C23.5708 13.2037 23.7282 12.9682 23.8356 12.709C23.9429 12.4498 23.9982 12.172 23.9982 11.8915C23.9982 11.6109 23.9429 11.3332 23.8356 11.074C23.7282 10.8148 23.5708 10.5793 23.3725 10.3809V10.3819Z" fill="#006EFF"/>
<path d="M17.2864 14.3809C17.006 14.3857 16.7374 14.494 16.5321 14.685C16.3268 14.876 16.1995 15.1362 16.1745 15.4154C16.1337 15.9521 16.0929 16.1326 16.0423 16.5325C15.9688 17.0678 15.7218 17.5642 15.3392 17.9457C14.9571 18.3335 14.4592 18.5865 13.9208 18.6667L13.8889 18.6709C13.5608 18.7178 13.2561 18.759 12.9387 18.7965C13.0006 17.5646 13.04 16.1406 13.0498 14.7273C13.0676 12.3901 13.0029 9.97887 12.875 8.42262C12.7791 7.33439 12.4561 6.27837 11.9267 5.32277C11.4031 4.38152 10.7225 3.64184 10.009 3.25043L9.987 3.23871C9.36497 2.8984 8.8381 2.61012 7.92872 2.22668C8.31591 2.21402 8.69278 2.20605 9.19435 2.20605C11.6661 2.2159 12.5408 2.36449 13.7562 2.54777L13.7862 2.55246C14.3217 2.64378 14.8136 2.90492 15.1892 3.2973C15.5708 3.68628 15.8198 4.1858 15.9008 4.72465C16.0306 5.66637 16.1351 6.74027 16.1979 8.29043C16.2209 8.87449 16.7136 9.35121 17.3126 9.36527C17.9286 9.37934 18.4165 8.91105 18.3884 8.32418C18.3162 6.7998 18.1967 5.67105 18.0406 4.65199C17.8873 3.65496 17.3787 2.67855 16.6297 1.89855C15.8806 1.11855 14.9276 0.577148 13.9348 0.403242L13.9043 0.398086C12.6922 0.196523 11.7387 0.0160547 9.1981 0.00292969C6.65794 0.0179297 5.7645 0.195586 4.55044 0.396211L4.51997 0.401836C3.52716 0.575273 2.57185 1.11809 1.82185 1.89668C1.07185 2.67527 0.56419 3.65309 0.410909 4.65012C0.183565 6.11777 0.0190337 8.41559 0.00169 10.6604C-0.0156538 12.9053 0.101534 15.2003 0.30544 16.6632C0.396265 17.2865 0.613009 17.8847 0.942471 18.4215C1.03388 18.609 1.13231 18.7965 1.23778 18.9756C1.78481 19.9089 2.48747 20.6659 3.21122 21.0906L3.23325 21.1037C4.11544 21.6193 4.81482 22.0361 6.63778 22.8146C8.4556 23.5834 9.12216 23.7381 9.972 23.9396L9.9931 23.9448C10.6878 24.1065 11.3436 23.8834 11.8517 23.3279C12.3439 22.7898 12.6762 21.9648 12.7845 21.0034C13.2303 20.9504 13.6283 20.8904 14.059 20.8234L14.09 20.8182C15.102 20.6603 16.0714 20.1376 16.8233 19.3768C17.5751 18.6161 18.0739 17.6523 18.2112 16.6581C18.2703 16.2278 18.3162 16.0164 18.3622 15.4637C18.4123 14.8623 17.9182 14.3682 17.2864 14.3809Z" fill="#006EFF"/>
</g>
<defs>
<clipPath id="clip0_2043_18721">
<rect width="24" height="24" fill="white"/>
</clipPath>
</defs>
</svg>
