<svg width="36" height="36" viewBox="0 0 36 36" fill="none" xmlns="http://www.w3.org/2000/svg">
<path d="M27.6224 1.5H8.37669C7.61747 1.5 7.00195 2.11546 7.00195 2.87468V27.3457C7.00198 27.7557 7.10624 28.159 7.30494 28.5177C7.50365 28.8763 7.79027 29.1786 8.13788 29.3961L15.7633 33.8552C17.0115 34.7239 18.7835 34.7239 20.1213 33.7995L27.812 29.4256C28.5677 28.9538 28.9972 28.1796 28.9972 27.3457V2.87468C28.9972 2.11546 28.3817 1.5 27.6224 1.5ZM26.2478 4.24942V10.327L17.9994 15.0392L9.75137 10.3272V4.24942H26.2478ZM18.6596 31.474C18.1615 31.8119 17.635 31.8119 17.2395 31.5382L9.75144 27.1556V13.4936L17.3176 17.816C17.5253 17.9347 17.7603 17.9971 17.9995 17.9971C18.2387 17.9971 18.4738 17.9347 18.6815 17.816L26.2479 13.4935V27.1538L18.6596 31.474Z" fill="#006EFF"/>
<path d="M17.9995 26.2441C16.8613 26.2441 15.9375 27.1679 15.9375 28.3062C15.9375 29.4444 16.8613 30.3682 17.9995 30.3682C19.1378 30.3682 20.0616 29.4444 20.0616 28.3062C20.0616 27.1679 19.1378 26.2441 17.9995 26.2441Z" fill="#006EFF"/>
</svg>
