<svg width="254" height="204" viewBox="0 0 254 204" fill="none" xmlns="http://www.w3.org/2000/svg">
<path fill-rule="evenodd" clip-rule="evenodd" d="M127 60.8332C120.557 60.8332 115.334 66.0565 115.334 72.4998C115.334 78.9432 120.557 84.1665 127 84.1665C133.444 84.1665 138.667 78.9432 138.667 72.4998C138.667 66.0565 133.444 60.8332 127 60.8332ZM108.667 72.4998C108.667 62.3746 116.875 54.1665 127 54.1665C137.125 54.1665 145.334 62.3746 145.334 72.4998C145.334 82.6251 137.125 90.8332 127 90.8332C116.875 90.8332 108.667 82.6251 108.667 72.4998ZM118.088 95.833C118.278 95.8331 118.471 95.8332 118.667 95.8332H135.334C135.53 95.8332 135.723 95.8331 135.913 95.833C140.004 95.8315 142.797 95.8305 145.172 96.5508C150.498 98.1667 154.667 102.335 156.283 107.662C157.003 110.036 157.002 112.83 157 116.921C157 117.111 157 117.304 157 117.5C157 119.341 155.508 120.833 153.667 120.833C151.826 120.833 150.334 119.341 150.334 117.5C150.334 112.605 150.297 110.897 149.903 109.597C148.934 106.401 146.432 103.9 143.236 102.93C141.936 102.536 140.228 102.5 135.334 102.5H118.667C113.773 102.5 112.064 102.536 110.764 102.93C107.568 103.9 105.067 106.401 104.098 109.597C103.703 110.897 103.667 112.605 103.667 117.5C103.667 119.341 102.175 120.833 100.334 120.833C98.4927 120.833 97.0003 119.341 97.0003 117.5C97.0003 117.304 97.0002 117.111 97.0001 116.921C96.9986 112.83 96.9976 110.036 97.7179 107.662C99.3338 102.335 103.502 98.1667 108.829 96.5508C111.204 95.8305 113.997 95.8315 118.088 95.833Z" fill="#69788C"/>
<path d="M76.588 139.556V150.5H73.276V133.46H75.916L84.724 144.692V133.484H88.036V150.5H85.276L76.588 139.556ZM96.8658 150.74C95.8418 150.74 94.9218 150.572 94.1058 150.236C93.2898 149.884 92.5938 149.404 92.0178 148.796C91.4578 148.188 91.0258 147.492 90.7218 146.708C90.4178 145.924 90.2658 145.1 90.2658 144.236C90.2658 143.356 90.4178 142.524 90.7218 141.74C91.0258 140.956 91.4578 140.26 92.0178 139.652C92.5938 139.044 93.2898 138.572 94.1058 138.236C94.9218 137.884 95.8418 137.708 96.8658 137.708C97.8898 137.708 98.8018 137.884 99.6018 138.236C100.418 138.572 101.114 139.044 101.69 139.652C102.266 140.26 102.698 140.956 102.986 141.74C103.29 142.524 103.442 143.356 103.442 144.236C103.442 145.1 103.29 145.924 102.986 146.708C102.698 147.492 102.266 148.188 101.69 148.796C101.13 149.404 100.442 149.884 99.6258 150.236C98.8098 150.572 97.8898 150.74 96.8658 150.74ZM93.5778 144.236C93.5778 144.972 93.7218 145.628 94.0098 146.204C94.2978 146.764 94.6898 147.204 95.1858 147.524C95.6818 147.844 96.2418 148.004 96.8658 148.004C97.4738 148.004 98.0258 147.844 98.5218 147.524C99.0178 147.188 99.4098 146.74 99.6978 146.18C100.002 145.604 100.154 144.948 100.154 144.212C100.154 143.492 100.002 142.844 99.6978 142.268C99.4098 141.692 99.0178 141.244 98.5218 140.924C98.0258 140.604 97.4738 140.444 96.8658 140.444C96.2418 140.444 95.6818 140.612 95.1858 140.948C94.6898 141.268 94.2978 141.716 94.0098 142.292C93.7218 142.852 93.5778 143.5 93.5778 144.236ZM111.378 150.5V137.924H114.594V150.5H111.378ZM111.378 136.172V132.98H114.594V136.172H111.378ZM137.031 150.5H133.815V143.444C133.815 142.452 133.639 141.724 133.287 141.26C132.951 140.78 132.479 140.54 131.871 140.54C131.247 140.54 130.647 140.788 130.071 141.284C129.511 141.764 129.111 142.396 128.871 143.18V150.5H125.655V143.444C125.655 142.436 125.479 141.7 125.127 141.236C124.791 140.772 124.319 140.54 123.711 140.54C123.087 140.54 122.487 140.78 121.911 141.26C121.351 141.74 120.951 142.372 120.711 143.156V150.5H117.495V137.924H120.399V140.252C120.879 139.436 121.519 138.812 122.319 138.38C123.119 137.932 124.039 137.708 125.079 137.708C126.119 137.708 126.927 137.964 127.503 138.476C128.095 138.988 128.471 139.62 128.631 140.372C129.143 139.508 129.791 138.852 130.575 138.404C131.375 137.94 132.271 137.708 133.263 137.708C134.047 137.708 134.679 137.852 135.159 138.14C135.655 138.412 136.039 138.788 136.311 139.268C136.583 139.732 136.767 140.26 136.863 140.852C136.975 141.444 137.031 142.044 137.031 142.652V150.5ZM138.967 146.78C138.967 145.964 139.191 145.252 139.639 144.644C140.103 144.02 140.743 143.54 141.559 143.204C142.375 142.868 143.311 142.7 144.367 142.7C144.895 142.7 145.431 142.74 145.975 142.82C146.519 142.9 146.991 143.028 147.391 143.204V142.532C147.391 141.732 147.151 141.116 146.671 140.684C146.207 140.252 145.511 140.036 144.583 140.036C143.895 140.036 143.239 140.156 142.615 140.396C141.991 140.636 141.335 140.988 140.647 141.452L139.615 139.34C140.447 138.796 141.295 138.388 142.159 138.116C143.039 137.844 143.959 137.708 144.919 137.708C146.711 137.708 148.103 138.156 149.095 139.052C150.103 139.948 150.607 141.228 150.607 142.892V146.9C150.607 147.236 150.663 147.476 150.775 147.62C150.903 147.764 151.103 147.852 151.375 147.884V150.5C151.087 150.548 150.823 150.588 150.583 150.62C150.359 150.652 150.167 150.668 150.007 150.668C149.367 150.668 148.879 150.524 148.543 150.236C148.223 149.948 148.023 149.596 147.943 149.18L147.871 148.532C147.327 149.236 146.647 149.78 145.831 150.164C145.015 150.548 144.183 150.74 143.335 150.74C142.503 150.74 141.751 150.572 141.079 150.236C140.423 149.884 139.903 149.412 139.519 148.82C139.151 148.212 138.967 147.532 138.967 146.78ZM146.791 147.428C146.967 147.236 147.111 147.044 147.223 146.852C147.335 146.66 147.391 146.484 147.391 146.324V145.052C147.007 144.892 146.591 144.772 146.143 144.692C145.695 144.596 145.271 144.548 144.871 144.548C144.039 144.548 143.351 144.732 142.807 145.1C142.279 145.452 142.015 145.924 142.015 146.516C142.015 146.836 142.103 147.14 142.279 147.428C142.455 147.716 142.711 147.948 143.047 148.124C143.383 148.3 143.783 148.388 144.247 148.388C144.727 148.388 145.199 148.3 145.663 148.124C146.127 147.932 146.503 147.7 146.791 147.428ZM158.532 150.572C157.7 150.572 156.932 150.412 156.228 150.092C155.54 149.756 154.94 149.292 154.428 148.7C153.932 148.108 153.548 147.428 153.276 146.66C153.004 145.892 152.868 145.076 152.868 144.212C152.868 143.3 153.012 142.452 153.3 141.668C153.588 140.884 153.988 140.196 154.5 139.604C155.028 138.996 155.644 138.532 156.348 138.212C157.068 137.876 157.86 137.708 158.724 137.708C159.7 137.708 160.556 137.932 161.292 138.38C162.028 138.812 162.636 139.396 163.116 140.132V137.924H165.924V149.9C165.924 151.148 165.62 152.212 165.012 153.092C164.42 153.988 163.596 154.668 162.54 155.132C161.484 155.612 160.284 155.852 158.94 155.852C157.58 155.852 156.428 155.62 155.484 155.156C154.54 154.708 153.732 154.068 153.06 153.236L154.812 151.532C155.292 152.124 155.892 152.588 156.612 152.924C157.348 153.26 158.124 153.428 158.94 153.428C159.628 153.428 160.252 153.3 160.812 153.044C161.388 152.804 161.844 152.42 162.18 151.892C162.532 151.38 162.708 150.716 162.708 149.9V148.316C162.292 149.036 161.7 149.596 160.932 149.996C160.18 150.38 159.38 150.572 158.532 150.572ZM159.612 148.004C159.964 148.004 160.3 147.948 160.62 147.836C160.94 147.724 161.236 147.572 161.508 147.38C161.78 147.188 162.02 146.964 162.228 146.708C162.436 146.436 162.596 146.164 162.708 145.892V142.892C162.516 142.396 162.244 141.964 161.892 141.596C161.556 141.228 161.172 140.948 160.74 140.756C160.324 140.548 159.884 140.444 159.42 140.444C158.924 140.444 158.476 140.548 158.076 140.756C157.676 140.964 157.332 141.26 157.044 141.644C156.756 142.012 156.532 142.428 156.372 142.892C156.228 143.34 156.156 143.812 156.156 144.308C156.156 144.82 156.244 145.3 156.42 145.748C156.596 146.196 156.836 146.588 157.14 146.924C157.46 147.26 157.828 147.524 158.244 147.716C158.676 147.908 159.132 148.004 159.612 148.004ZM174.655 150.74C173.647 150.74 172.735 150.572 171.919 150.236C171.103 149.884 170.407 149.412 169.831 148.82C169.255 148.212 168.807 147.524 168.487 146.756C168.183 145.972 168.031 145.148 168.031 144.284C168.031 143.084 168.295 141.988 168.823 140.996C169.367 140.004 170.135 139.212 171.127 138.62C172.135 138.012 173.319 137.708 174.679 137.708C176.055 137.708 177.231 138.012 178.207 138.62C179.183 139.212 179.927 140.004 180.439 140.996C180.967 141.972 181.231 143.028 181.231 144.164C181.231 144.356 181.223 144.556 181.207 144.764C181.191 144.956 181.175 145.116 181.159 145.244H171.439C171.503 145.884 171.687 146.444 171.991 146.924C172.311 147.404 172.711 147.772 173.191 148.028C173.687 148.268 174.215 148.388 174.775 148.388C175.415 148.388 176.015 148.236 176.575 147.932C177.151 147.612 177.543 147.196 177.751 146.684L180.511 147.452C180.207 148.092 179.767 148.66 179.191 149.156C178.631 149.652 177.967 150.044 177.199 150.332C176.431 150.604 175.583 150.74 174.655 150.74ZM171.367 143.204H177.943C177.879 142.564 177.695 142.012 177.391 141.548C177.103 141.068 176.719 140.7 176.239 140.444C175.759 140.172 175.223 140.036 174.631 140.036C174.055 140.036 173.527 140.172 173.047 140.444C172.583 140.7 172.199 141.068 171.895 141.548C171.607 142.012 171.431 142.564 171.367 143.204Z" fill="#69788C"/>
<rect x="1" y="1" width="252" height="202" rx="17" stroke="#4B5563" stroke-width="2"/>
</svg>
