<svg width="64" height="64" viewBox="0 0 64 64" fill="none" xmlns="http://www.w3.org/2000/svg">
<path fill-rule="evenodd" clip-rule="evenodd" d="M18.0226 2.66669H45.9761C48.1227 2.66665 49.8944 2.66663 51.3376 2.78454C52.8365 2.90701 54.2144 3.16984 55.5086 3.82929C57.5156 4.85194 59.1474 6.48373 60.1701 8.49079C60.8295 9.78502 61.0924 11.1629 61.2148 12.6618C61.3327 14.105 61.3327 15.8766 61.3327 18.0232V45.9769C61.3327 48.1234 61.3327 49.895 61.2148 51.3382C61.0924 52.8371 60.8295 54.215 60.1701 55.5093C59.1474 57.5163 57.5156 59.1481 55.5086 60.1708C55.0557 60.4015 54.5894 60.5854 54.1058 60.7319C52.1136 61.3355 49.5843 61.3346 46.3089 61.3335C46.1628 61.3334 46.0152 61.3334 45.866 61.3334H18.1327C17.9835 61.3334 17.8359 61.3334 17.6898 61.3335C14.4144 61.3346 11.8851 61.3355 9.89286 60.7319C9.40926 60.5854 8.94304 60.4015 8.49012 60.1708C6.48306 59.1481 4.85126 57.5163 3.82862 55.5093C3.16917 54.215 2.90633 52.8371 2.78387 51.3382C2.66595 49.895 2.66598 48.1234 2.66602 45.9768V18.0232C2.66598 15.8766 2.66595 14.105 2.78387 12.6618C2.90633 11.1629 3.16917 9.78502 3.82862 8.49079C4.85126 6.48373 6.48306 4.85194 8.49012 3.82929C9.78435 3.16984 11.1622 2.90701 12.6611 2.78454C14.1043 2.66663 15.876 2.66665 18.0226 2.66669ZM13.0955 8.10016C11.9263 8.19568 11.3285 8.36881 10.9114 8.58132C9.90787 9.09265 9.09197 9.90854 8.58065 10.9121C8.36814 11.3291 8.19501 11.927 8.09949 13.0961C8.00143 14.2964 7.99935 15.8491 7.99935 18.1334V45.8667C7.99935 48.1509 8.00143 49.7037 8.09949 50.9039C8.16878 51.7519 8.2789 52.2994 8.41527 52.6953C9.68027 47.7455 13.6791 43.9279 18.7315 42.9229C20.0243 42.6657 21.5104 42.6661 23.6907 42.6666C23.792 42.6667 23.8949 42.6667 23.9994 42.6667H39.9994C40.1038 42.6667 40.2067 42.6667 40.308 42.6666C42.4883 42.6661 43.9744 42.6657 45.2672 42.9229C50.3196 43.9279 54.3184 47.7455 55.5834 52.6953C55.7198 52.2994 55.8299 51.7519 55.8992 50.9039C55.9973 49.7037 55.9994 48.1509 55.9994 45.8667V18.1334C55.9994 15.8491 55.9973 14.2964 55.8992 13.0961C55.8037 11.927 55.6306 11.3291 55.4181 10.9121C54.9067 9.90854 54.0908 9.09265 53.0873 8.58132C52.6702 8.36881 52.0724 8.19568 50.9033 8.10016C49.703 8.0021 48.1502 8.00002 45.866 8.00002H18.1327C15.8485 8.00002 14.2957 8.0021 13.0955 8.10016ZM50.6442 55.9202C50.6235 55.2237 50.5842 54.8008 50.5123 54.4393C49.881 51.2658 47.4003 48.785 44.2267 48.1537C43.5189 48.0129 42.6053 48 39.9994 48H23.9994C21.3934 48 20.4798 48.0129 19.772 48.1537C16.5984 48.785 14.1177 51.2658 13.4864 54.4393C13.4145 54.8008 13.3752 55.2237 13.3545 55.9202C14.4398 55.9907 15.9312 56 18.1327 56H45.866C48.0675 56 49.5589 55.9907 50.6442 55.9202ZM31.9994 17.3334C27.5811 17.3334 23.9994 20.9151 23.9994 25.3334C23.9994 29.7516 27.5811 33.3334 31.9994 33.3334C36.4176 33.3334 39.9994 29.7516 39.9994 25.3334C39.9994 20.9151 36.4176 17.3334 31.9994 17.3334ZM18.666 25.3334C18.666 17.9696 24.6356 12 31.9994 12C39.3631 12 45.3327 17.9696 45.3327 25.3334C45.3327 32.6972 39.3632 38.6667 31.9994 38.6667C24.6356 38.6667 18.666 32.6971 18.666 25.3334Z" fill="#606D7F"/>
</svg>
