<svg width="48" height="48" viewBox="0 0 48 48" fill="none" xmlns="http://www.w3.org/2000/svg">
<path fill-rule="evenodd" clip-rule="evenodd" d="M46.5 9.3C46.5 8.4255 46.152 7.5855 45.534 6.966C44.9144 6.34789 44.0752 6.00053 43.2 6H4.8C3.9255 6 3.0855 6.348 2.466 6.966C1.84789 7.58556 1.50053 8.42484 1.5 9.3V38.7C1.5 39.5745 1.848 40.4145 2.466 41.034C3.0855 41.652 3.9255 42 4.8 42H43.2C44.0745 42 44.9145 41.652 45.534 41.034C46.152 40.4145 46.5 39.5745 46.5 38.7V9.3ZM4.5 15V38.7C4.5 38.7795 4.5315 38.856 4.5885 38.9115C4.61608 38.9396 4.649 38.9619 4.68532 38.9771C4.72164 38.9923 4.76063 39.0001 4.8 39H43.2C43.2394 39.0001 43.2784 38.9923 43.3147 38.9771C43.351 38.9619 43.3839 38.9396 43.4115 38.9115C43.4396 38.8839 43.4619 38.851 43.4771 38.8147C43.4923 38.7784 43.5001 38.7394 43.5 38.7V16.5H33.4245C32.913 16.5 32.4075 16.38 31.9485 16.152L29.709 15.0315C29.6676 15.0107 29.6219 14.9999 29.5755 15H4.5ZM43.5 13.5V9.3C43.5001 9.26063 43.4923 9.22164 43.4771 9.18532C43.4619 9.149 43.4396 9.11608 43.4115 9.0885C43.3839 9.0604 43.351 9.0381 43.3147 9.0229C43.2784 9.0077 43.2394 8.99992 43.2 9H4.8C4.76063 8.99992 4.72164 9.0077 4.68532 9.0229C4.649 9.0381 4.61608 9.0604 4.5885 9.0885C4.5604 9.11608 4.5381 9.149 4.5229 9.18532C4.5077 9.22164 4.49992 9.26063 4.5 9.3V12H29.5755C30.087 12 30.5925 12.12 31.0515 12.348L33.291 13.4685C33.3324 13.4893 33.3781 13.5001 33.4245 13.5H43.5Z" fill="#006EFF"/>
<path fill-rule="evenodd" clip-rule="evenodd" d="M13.6301 24.7501L12.4406 25.9396C12.1674 26.2225 12.0162 26.6014 12.0196 26.9947C12.023 27.388 12.1808 27.7642 12.4589 28.0423C12.737 28.3205 13.1132 28.4782 13.5065 28.4816C13.8998 28.4851 14.2787 28.3339 14.5616 28.0606L15.7511 26.8711L16.9406 28.0606C17.2235 28.3339 17.6024 28.4851 17.9957 28.4816C18.389 28.4782 18.7652 28.3205 19.0433 28.0423C19.3214 27.7642 19.4792 27.388 19.4826 26.9947C19.486 26.6014 19.3348 26.2225 19.0616 25.9396L17.8721 24.7501L19.0616 23.5606C19.3348 23.2777 19.486 22.8988 19.4826 22.5055C19.4792 22.1122 19.3214 21.736 19.0433 21.4579C18.7652 21.1798 18.389 21.022 17.9957 21.0186C17.6024 21.0152 17.2235 21.1664 16.9406 21.4396L15.7511 22.6291L14.5616 21.4396C14.2787 21.1664 13.8998 21.0152 13.5065 21.0186C13.1132 21.022 12.737 21.1798 12.4589 21.4579C12.1808 21.736 12.023 22.1122 12.0196 22.5055C12.0162 22.8988 12.1674 23.2777 12.4406 23.5606L13.6301 24.7501ZM30.1301 24.7501L28.9406 25.9396C28.6674 26.2225 28.5162 26.6014 28.5196 26.9947C28.523 27.388 28.6808 27.7642 28.9589 28.0423C29.237 28.3205 29.6132 28.4782 30.0065 28.4816C30.3998 28.4851 30.7787 28.3339 31.0616 28.0606L32.2511 26.8711L33.4406 28.0606C33.7235 28.3339 34.1024 28.4851 34.4957 28.4816C34.889 28.4782 35.2652 28.3205 35.5433 28.0423C35.8214 27.7642 35.9792 27.388 35.9826 26.9947C35.986 26.6014 35.8348 26.2225 35.5616 25.9396L34.3721 24.7501L35.5616 23.5606C35.8348 23.2777 35.986 22.8988 35.9826 22.5055C35.9792 22.1122 35.8214 21.736 35.5433 21.4579C35.2652 21.1798 34.889 21.022 34.4957 21.0186C34.1024 21.0152 33.7235 21.1664 33.4406 21.4396L32.2511 22.6291L31.0616 21.4396C30.7787 21.1664 30.3998 21.0152 30.0065 21.0186C29.6132 21.022 29.237 21.1798 28.9589 21.4579C28.6808 21.736 28.523 22.1122 28.5196 22.5055C28.5162 22.8988 28.6674 23.2777 28.9406 23.5606L30.1301 24.7501ZM17.3306 34.3411L19.5251 35.4391C20.4536 35.9041 21.5486 35.9041 22.4771 35.4391L23.8676 34.7446C23.9091 34.724 23.9548 34.7133 24.0011 34.7133C24.0474 34.7133 24.0931 34.724 24.1346 34.7446L25.5251 35.4391C26.4536 35.9041 27.5486 35.9041 28.4771 35.4391L30.6716 34.3411C30.854 34.2569 31.0176 34.1369 31.1527 33.9882C31.2878 33.8395 31.3916 33.6652 31.4581 33.4757C31.5245 33.2861 31.5523 33.0851 31.5396 32.8846C31.5269 32.6841 31.474 32.4882 31.3842 32.3086C31.2944 32.1289 31.1693 31.9691 31.0166 31.8386C30.8638 31.7082 30.6864 31.6098 30.4949 31.5492C30.3033 31.4886 30.1016 31.4671 29.9016 31.486C29.7016 31.5049 29.5074 31.5638 29.3306 31.6591L27.1346 32.7556C27.0931 32.7762 27.0474 32.787 27.0011 32.787C26.9548 32.787 26.9091 32.7762 26.8676 32.7556L25.4771 32.0611C25.0189 31.8318 24.5135 31.7125 24.0011 31.7125C23.4887 31.7125 22.9833 31.8318 22.5251 32.0611L21.1346 32.7556C21.0931 32.7762 21.0474 32.787 21.0011 32.787C20.9548 32.787 20.9091 32.7762 20.8676 32.7556L18.6716 31.6591C18.4948 31.5638 18.3006 31.5049 18.1006 31.486C17.9006 31.4671 17.6989 31.4886 17.5073 31.5492C17.3158 31.6098 17.1384 31.7082 16.9856 31.8386C16.8328 31.9691 16.7078 32.1289 16.618 32.3086C16.5282 32.4882 16.4753 32.6841 16.4626 32.8846C16.4499 33.0851 16.4776 33.2861 16.5441 33.4757C16.6106 33.6652 16.7144 33.8395 16.8495 33.9882C16.9846 34.1369 17.1482 34.2569 17.3306 34.3411Z" fill="#006EFF"/>
</svg>
