<svg width="24" height="24" viewBox="0 0 24 24" fill="none" xmlns="http://www.w3.org/2000/svg">
<g clip-path="url(#clip0_1820_13278)">
<path d="M12 0C5.37281 0 0 5.37234 0 12C0 18.6277 5.37281 24 12 24C18.6272 24 24 18.6272 24 12C24 5.37281 18.6272 0 12 0ZM16.9533 16.9533C16.4344 17.4722 15.5925 17.4722 15.0731 16.9533L12 13.8802L8.92688 16.9533C8.40797 17.4722 7.56609 17.4722 7.04672 16.9533C6.52781 16.4344 6.52781 15.5925 7.04672 15.0731L10.1198 12L7.04672 8.92688C6.52781 8.40797 6.52781 7.56609 7.04672 7.04672C7.56563 6.52781 8.4075 6.52781 8.92688 7.04672L12 10.1198L15.0731 7.04672C15.592 6.52781 16.4339 6.52781 16.9533 7.04672C17.4722 7.56563 17.4722 8.4075 16.9533 8.92688L13.8802 12L16.9533 15.0731C17.4722 15.592 17.4722 16.4339 16.9533 16.9533Z" fill="#4B5563"/>
</g>
<defs>
<clipPath id="clip0_1820_13278">
<rect width="24" height="24" fill="white"/>
</clipPath>
</defs>
</svg>
