<svg width="7" height="12" viewBox="0 0 7 12" fill="none" xmlns="http://www.w3.org/2000/svg">
<path d="M0.275782 0.694921C0.459115 0.511588 0.692448 0.419922 0.975781 0.419922C1.25911 0.419922 1.49245 0.511588 1.67578 0.694921L6.27578 5.29492C6.37578 5.39492 6.44645 5.50325 6.48778 5.61992C6.52911 5.73659 6.55011 5.86159 6.55078 5.99492C6.55078 6.12825 6.52578 6.25759 6.47578 6.38292C6.42578 6.50825 6.35911 6.61225 6.27578 6.69492L1.67578 11.2949C1.49245 11.4783 1.25911 11.5699 0.975781 11.5699C0.692448 11.5699 0.459115 11.4783 0.275781 11.2949C0.0924478 11.1116 0.000780602 10.8783 0.000780615 10.5949C0.000780627 10.3116 0.0924478 10.0783 0.275781 9.89492L4.17578 5.99492L0.275782 2.09492C0.0924482 1.91159 0.000781004 1.67825 0.000781017 1.39492C0.000781029 1.11159 0.0924482 0.878255 0.275782 0.694921Z" fill="#006EFF"/>
</svg>
