<svg width="36" height="36" viewBox="0 0 36 36" fill="none" xmlns="http://www.w3.org/2000/svg">
<path fill-rule="evenodd" clip-rule="evenodd" d="M13.1381 1.5H22.8619C24.0694 1.49998 25.0659 1.49997 25.8777 1.56629C26.7209 1.63518 27.4959 1.78303 28.2239 2.15396C29.3529 2.7292 30.2708 3.64709 30.846 4.77606C31.217 5.50406 31.3648 6.27912 31.4337 7.12226C31.5 7.93405 31.5 8.93058 31.5 10.138V25.862C31.5 27.0694 31.5 28.066 31.4337 28.8777C31.3648 29.7209 31.217 30.4959 30.846 31.2239C30.2708 32.3529 29.3529 33.2708 28.2239 33.846C27.4959 34.217 26.7209 34.3648 25.8777 34.4337C25.066 34.5 24.0694 34.5 22.862 34.5H13.138C11.9306 34.5 10.934 34.5 10.1223 34.4337C9.27912 34.3648 8.50406 34.217 7.77606 33.846C6.64709 33.2708 5.7292 32.3529 5.15396 31.2239C4.78303 30.4959 4.63518 29.7209 4.56629 28.8777C4.49997 28.0659 4.49998 27.0694 4.5 25.8619V10.1381C4.49998 8.9306 4.49997 7.93405 4.56629 7.12226C4.63518 6.27912 4.78303 5.50406 5.15396 4.77606C5.7292 3.64709 6.64709 2.7292 7.77606 2.15396C8.50406 1.78303 9.27912 1.63518 10.1223 1.56629C10.9341 1.49997 11.9306 1.49998 13.1381 1.5ZM10.3666 4.55633C9.70893 4.61006 9.37263 4.70745 9.13803 4.82698C8.57354 5.1146 8.1146 5.57354 7.82698 6.13803C7.70745 6.37263 7.61006 6.70893 7.55633 7.36656C7.50117 8.04169 7.5 8.91513 7.5 10.2V25.8C7.5 27.0849 7.50117 27.9583 7.55633 28.6334C7.61006 29.2911 7.70745 29.6274 7.82698 29.862C8.1146 30.4265 8.57354 30.8854 9.13803 31.173C9.37263 31.2926 9.70894 31.3899 10.3666 31.4437C11.0417 31.4988 11.9151 31.5 13.2 31.5H22.8C24.0849 31.5 24.9583 31.4988 25.6334 31.4437C26.2911 31.3899 26.6274 31.2926 26.862 31.173C27.4265 30.8854 27.8854 30.4265 28.173 29.862C28.2926 29.6274 28.3899 29.2911 28.4437 28.6334C28.4988 27.9583 28.5 27.0849 28.5 25.8V10.2C28.5 8.91513 28.4988 8.04169 28.4437 7.36656C28.3899 6.70893 28.2926 6.37263 28.173 6.13803C27.8854 5.57354 27.4265 5.1146 26.862 4.82698C26.6274 4.70745 26.2911 4.61006 25.6334 4.55633C24.9583 4.50117 24.0849 4.5 22.8 4.5H13.2C11.9151 4.5 11.0417 4.50117 10.3666 4.55633ZM18 10.5C16.3431 10.5 15 11.8431 15 13.5C15 15.1569 16.3431 16.5 18 16.5C19.6569 16.5 21 15.1569 21 13.5C21 11.8431 19.6569 10.5 18 10.5ZM12 13.5C12 10.1863 14.6863 7.5 18 7.5C21.3137 7.5 24 10.1863 24 13.5C24 16.8137 21.3137 19.5 18 19.5C14.6863 19.5 12 16.8137 12 13.5ZM13.5 24C13.5 23.1716 14.1716 22.5 15 22.5H21C21.8284 22.5 22.5 23.1716 22.5 24C22.5 24.8284 21.8284 25.5 21 25.5H15C14.1716 25.5 13.5 24.8284 13.5 24Z" fill="#006EFF"/>
</svg>
