<svg width="24" height="24" viewBox="0 0 24 24" fill="none" xmlns="http://www.w3.org/2000/svg">
<g clip-path="url(#clip0_2021_12099)">
<g clip-path="url(#clip1_2021_12099)">
<path d="M17.25 12H14.25C13.8358 12 13.5 12.3358 13.5 12.75V18.75C13.5 19.1642 13.8358 19.5 14.25 19.5H17.25C18.0784 19.5 18.75 18.8284 18.75 18V13.5C18.75 12.6716 18.0784 12 17.25 12ZM17.25 18H15V13.5H17.25V18ZM24 13.5V12H20.25C19.8358 12 19.5 12.3358 19.5 12.75V19.5H21V16.5H24V15H21V13.5H24Z" fill="#006EFF"/>
<path d="M1.5 21.75V2.25001C1.5 1.83578 1.83577 1.50001 2.25 1.50001H13.5V4.50001C13.5 5.32843 14.1716 6.00001 15 6.00001H18V8.25001H19.5V5.25001C19.5006 5.15131 19.4817 5.05346 19.4443 4.96208C19.407 4.8707 19.352 4.78759 19.2825 4.71751L14.7825 0.217512C14.7124 0.148003 14.6293 0.0930109 14.5379 0.0556876C14.4466 0.0183643 14.3487 -0.000555682 14.25 1.24242e-05H2.25C1.00734 1.24242e-05 0 1.0074 0 2.25001V21.75C0 22.9927 1.00734 24 2.25 24H7.5V22.5H2.25C1.83581 22.5 1.5 22.1642 1.5 21.75Z" fill="#006EFF"/>
<path d="M11.25 12H8.25C7.83577 12 7.5 12.3358 7.5 12.75V19.5H9V17.25H11.25C12.0784 17.25 12.75 16.5784 12.75 15.75V13.5C12.75 12.6716 12.0784 12 11.25 12ZM11.25 15.75H9V13.5H11.25V15.75Z" fill="#006EFF"/>
</g>
</g>
<defs>
<clipPath id="clip0_2021_12099">
<rect width="24" height="24" fill="white"/>
</clipPath>
<clipPath id="clip1_2021_12099">
<rect width="24" height="24" fill="white"/>
</clipPath>
</defs>
</svg>
