<svg width="24" height="24" viewBox="0 0 24 24" fill="none" xmlns="http://www.w3.org/2000/svg">
<g clip-path="url(#clip0_1074_671)">
<path d="M17.8242 5.625C19.375 5.625 20.6367 4.36331 20.6367 2.8125C20.6367 1.26169 19.375 0 17.8242 0C16.2734 0 15.0117 1.26169 15.0117 2.8125C15.0117 4.36331 16.2734 5.625 17.8242 5.625ZM17.8242 1.875C18.3412 1.875 18.7617 2.29556 18.7617 2.8125C18.7617 3.32944 18.3412 3.75 17.8242 3.75C17.3073 3.75 16.8867 3.32944 16.8867 2.8125C16.8867 2.29556 17.3073 1.875 17.8242 1.875ZM7.51172 6.51562H3.76172C2.21091 6.51562 0.949219 7.77731 0.949219 9.32812V14.4375C0.949219 15.6598 1.73292 16.7024 2.82422 17.0894V23.0625C2.82422 23.5803 3.24394 24 3.76172 24C4.2795 24 4.69922 23.5803 4.69922 23.0625V16.3125C4.69922 15.7947 4.2795 15.375 3.76172 15.375C3.24478 15.375 2.82422 14.9544 2.82422 14.4375V9.32812C2.82422 8.81119 3.24478 8.39062 3.76172 8.39062H7.51172C8.02866 8.39062 8.44922 8.81119 8.44922 9.32812V14.4375C8.44922 14.9544 8.02866 15.375 7.51172 15.375C6.99394 15.375 6.57422 15.7947 6.57422 16.3125V23.0625C6.57422 23.5803 6.99394 24 7.51172 24C8.0295 24 8.44922 23.5803 8.44922 23.0625V17.0894C9.54051 16.7025 10.3242 15.6598 10.3242 14.4375V9.32812C10.3242 7.77731 9.06253 6.51562 7.51172 6.51562ZM22.4887 14.78C22.1463 13.627 21.663 12.6521 21.0488 11.8737L21.6167 10.0088C21.864 9.19697 21.7237 8.33367 21.2319 7.64039C20.7501 6.96112 20.0005 6.55209 19.1754 6.51806C19.1625 6.51754 19.1496 6.51727 19.1368 6.51727H16.58C16.5671 6.51727 16.5542 6.51755 16.5413 6.51806C15.7162 6.55209 14.9666 6.96112 14.4848 7.64039C13.993 8.33367 13.8527 9.19697 14.1 10.0088L14.6679 11.8739C12.602 14.495 12.6644 18.5432 12.6682 18.7235C12.6793 19.2332 13.0957 19.6406 13.6055 19.6406H15.0117V23.0625C15.0117 23.5803 15.4314 24 15.9492 24C16.467 24 16.8867 23.5803 16.8867 23.0625V18.7031C16.8867 18.1853 16.467 17.7656 15.9492 17.7656H14.5775C14.6954 16.3404 15.1377 14.0704 16.3965 12.7374C16.51 12.6171 16.5897 12.469 16.6275 12.308C16.6653 12.147 16.6598 11.9788 16.6117 11.8206L15.8936 9.46256C15.8167 9.21019 15.8606 8.94141 16.014 8.72517C16.097 8.60826 16.2828 8.41144 16.6027 8.39217H19.1138C19.4338 8.41139 19.6197 8.60822 19.7026 8.72517C19.856 8.94141 19.8999 9.21019 19.823 9.46256L19.1049 11.8206C19.0567 11.9788 19.0513 12.147 19.0891 12.308C19.1269 12.469 19.2066 12.6171 19.3201 12.7374C19.9067 13.3586 20.368 14.2254 20.6912 15.3137C20.9635 16.2305 21.0826 17.1278 21.1345 17.7656H19.7674C19.2496 17.7656 18.8299 18.1853 18.8299 18.7031V23.0625C18.8299 23.5802 19.2496 24 19.7674 24C20.2852 24 20.7049 23.5803 20.7049 23.0625V19.6406H22.1112C22.621 19.6406 23.0374 19.2332 23.0484 18.7235C23.0502 18.6451 23.0833 16.7821 22.4887 14.78ZM5.63672 5.625C7.18753 5.625 8.44922 4.36331 8.44922 2.8125C8.44922 1.26169 7.18753 0 5.63672 0C4.08591 0 2.82422 1.26169 2.82422 2.8125C2.82422 4.36331 4.08591 5.625 5.63672 5.625ZM5.63672 1.875C6.15366 1.875 6.57422 2.29556 6.57422 2.8125C6.57422 3.32944 6.15366 3.75 5.63672 3.75C5.11978 3.75 4.69922 3.32944 4.69922 2.8125C4.69922 2.29556 5.11978 1.875 5.63672 1.875Z" fill="black"/>
</g>
<defs>
<clipPath id="clip0_1074_671">
<rect width="24" height="24" fill="white"/>
</clipPath>
</defs>
</svg>
