<svg width="24" height="24" viewBox="0 0 24 24" fill="none" xmlns="http://www.w3.org/2000/svg">
<g clip-path="url(#clip0_2043_18684)">
<path d="M23.7019 20.1244L23.6592 20.0667C22.7798 19.0486 21.6994 18.3028 20.6545 17.5823C20.228 17.288 19.47 16.8136 18.9338 16.432C20.1782 14.6747 20.8449 12.5736 20.8411 10.4203C20.8411 4.66547 16.1756 0 10.4203 0C4.665 0 0 4.66547 0 10.4203C0 16.1752 4.66547 20.8411 10.4203 20.8411C12.5709 20.8443 14.6694 20.1791 16.4255 18.9375C16.8075 19.4733 17.2814 20.2298 17.5763 20.6564C18.2986 21.7031 19.0453 22.7812 20.0625 23.6597L20.1202 23.7019C20.4445 23.9002 20.8181 24.0035 21.1983 24C21.773 23.9982 22.3266 23.7835 22.7522 23.3972L23.3812 22.7695L23.3962 22.7541C24.0661 22.0209 24.1945 20.9152 23.7019 20.1244ZM10.4203 18.1223C8.63815 18.1225 6.91106 17.5048 5.53333 16.3743C4.15559 15.2438 3.21246 13.6706 2.86464 11.9227C2.51682 10.1749 2.78583 8.36043 3.62584 6.78865C4.46584 5.21687 5.82487 3.98499 7.47133 3.3029C9.1178 2.62082 10.9498 2.53074 12.6553 3.04802C14.3607 3.56529 15.834 4.65792 16.8242 6.13971C17.8143 7.6215 18.26 9.40078 18.0854 11.1744C17.9107 12.9479 17.1264 14.6061 15.8663 15.8663C15.1528 16.5837 14.3041 17.1525 13.3693 17.5398C12.4345 17.9271 11.4321 18.1251 10.4203 18.1223Z" fill="#006EFF"/>
<path d="M10.4203 11.3817C12.1095 11.3817 13.4789 10.0123 13.4789 8.32312C13.4789 6.63391 12.1095 5.26453 10.4203 5.26453C8.7311 5.26453 7.36172 6.63391 7.36172 8.32312C7.36172 10.0123 8.7311 11.3817 10.4203 11.3817Z" fill="#006EFF"/>
<path d="M15.4589 13.9036C15.413 13.4746 15.221 13.0744 14.9152 12.7702C14.6081 12.4624 14.2054 12.2683 13.7733 12.2198C13.1409 12.1528 11.5702 12.1163 10.5919 12.1163C9.61359 12.1163 7.68844 12.1528 7.05563 12.2198C6.62366 12.2683 6.22102 12.4622 5.91375 12.7697C5.60802 13.074 5.41621 13.4742 5.37047 13.9031V13.9163C5.35547 14.0616 5.34656 14.1877 5.34094 14.2955C5.51412 14.522 5.70203 14.7368 5.90344 14.9386C7.10177 16.1367 8.72693 16.8098 10.4215 16.8098C12.116 16.8098 13.7412 16.1367 14.9395 14.9386C15.1378 14.74 15.323 14.5287 15.4941 14.3063C15.487 14.1961 15.4767 14.0667 15.4613 13.9167L15.4589 13.9036Z" fill="#006EFF"/>
</g>
<defs>
<clipPath id="clip0_2043_18684">
<rect width="24" height="24" fill="white"/>
</clipPath>
</defs>
</svg>
