<svg width="15" height="13" viewBox="0 0 15 13" fill="none" xmlns="http://www.w3.org/2000/svg">
<path d="M10 8.31421C9.375 8.31421 8.84375 8.09546 8.40625 7.65796C7.96875 7.22046 7.75 6.68921 7.75 6.06421C7.75 5.43921 7.96875 4.90796 8.40625 4.47046C8.84375 4.03296 9.375 3.81421 10 3.81421C10.625 3.81421 11.1562 4.03296 11.5938 4.47046C12.0312 4.90796 12.25 5.43921 12.25 6.06421C12.25 6.68921 12.0312 7.22046 11.5938 7.65796C11.1562 8.09546 10.625 8.31421 10 8.31421ZM6.25 12.8142C6.0375 12.8142 5.8595 12.7422 5.716 12.5982C5.572 12.4547 5.5 12.2767 5.5 12.0642V11.3892C5.5 11.1267 5.5625 10.8767 5.6875 10.6392C5.8125 10.4017 5.9875 10.2142 6.2125 10.0767C6.775 9.73921 7.372 9.48596 8.0035 9.31696C8.6345 9.14846 9.3 9.06421 10 9.06421C10.7 9.06421 11.3658 9.14846 11.9972 9.31696C12.6283 9.48596 13.225 9.73921 13.7875 10.0767C14.0125 10.2142 14.1875 10.4017 14.3125 10.6392C14.4375 10.8767 14.5 11.1267 14.5 11.3892V12.0642C14.5 12.2767 14.428 12.4547 14.284 12.5982C14.1405 12.7422 13.9625 12.8142 13.75 12.8142H6.25ZM5.5 8.31421H1C0.7875 8.31421 0.6095 8.24221 0.466 8.09821C0.322 7.95471 0.25 7.77671 0.25 7.56421C0.25 7.35171 0.322 7.17346 0.466 7.02946C0.6095 6.88596 0.7875 6.81421 1 6.81421H5.5C5.7125 6.81421 5.89075 6.88596 6.03475 7.02946C6.17825 7.17346 6.25 7.35171 6.25 7.56421C6.25 7.77671 6.17825 7.95471 6.03475 8.09821C5.89075 8.24221 5.7125 8.31421 5.5 8.31421ZM8.5 2.31421H1C0.7875 2.31421 0.6095 2.24246 0.466 2.09896C0.322 1.95496 0.25 1.77671 0.25 1.56421C0.25 1.35171 0.322 1.17346 0.466 1.02946C0.6095 0.885959 0.7875 0.814209 1 0.814209H8.5C8.7125 0.814209 8.89075 0.885959 9.03475 1.02946C9.17825 1.17346 9.25 1.35171 9.25 1.56421C9.25 1.77671 9.17825 1.95496 9.03475 2.09896C8.89075 2.24246 8.7125 2.31421 8.5 2.31421ZM6.325 5.31421H1C0.7875 5.31421 0.6095 5.24221 0.466 5.09821C0.322 4.95471 0.25 4.77671 0.25 4.56421C0.25 4.35171 0.322 4.17346 0.466 4.02946C0.6095 3.88596 0.7875 3.81421 1 3.81421H7C6.825 4.02671 6.6845 4.25796 6.5785 4.50796C6.472 4.75796 6.3875 5.02671 6.325 5.31421Z" fill="white"/>
</svg>
