<svg width="14" height="15" viewBox="0 0 14 15" fill="none" xmlns="http://www.w3.org/2000/svg">
<path d="M12.7 14.1218L7.975 9.39683C7.6 9.69683 7.16875 9.93433 6.68125 10.1093C6.19375 10.2843 5.675 10.3718 5.125 10.3718C3.7625 10.3718 2.6095 9.89983 1.666 8.95583C0.7225 8.01183 0.2505 6.85883 0.25 5.49683C0.25 4.13433 0.722 2.98133 1.666 2.03783C2.61 1.09433 3.763 0.622326 5.125 0.621826C6.4875 0.621826 7.6405 1.09383 8.584 2.03783C9.5275 2.98183 9.9995 4.13483 10 5.49683C10 6.04683 9.9125 6.56558 9.7375 7.05308C9.5625 7.54058 9.325 7.97183 9.025 8.34683L13.75 13.0718L12.7 14.1218ZM5.125 8.87183C6.0625 8.87183 6.8595 8.54358 7.516 7.88708C8.1725 7.23058 8.5005 6.43383 8.5 5.49683C8.5 4.55933 8.17175 3.76233 7.51525 3.10583C6.85875 2.44933 6.062 2.12133 5.125 2.12183C4.1875 2.12183 3.3905 2.45008 2.734 3.10658C2.0775 3.76308 1.7495 4.55983 1.75 5.49683C1.75 6.43433 2.07825 7.23133 2.73475 7.88783C3.39125 8.54433 4.188 8.87233 5.125 8.87183Z" fill="white"/>
</svg>
