<svg width="24" height="24" viewBox="0 0 24 24" fill="none" xmlns="http://www.w3.org/2000/svg">
<path fill-rule="evenodd" clip-rule="evenodd" d="M21.1927 5.46466C21.3802 5.65219 21.4855 5.9065 21.4855 6.17166C21.4855 6.43683 21.3802 6.69113 21.1927 6.87866L9.95068 18.1217C9.84853 18.2239 9.72724 18.3049 9.59375 18.3602C9.46026 18.4156 9.31718 18.444 9.17268 18.444C9.02818 18.444 8.8851 18.4156 8.75161 18.3602C8.61812 18.3049 8.49683 18.2239 8.39468 18.1217L2.80868 12.5357C2.71577 12.4428 2.64207 12.3325 2.59179 12.2111C2.54151 12.0897 2.51563 11.9596 2.51562 11.8282C2.51562 11.6968 2.54151 11.5667 2.59179 11.4453C2.64207 11.3239 2.71577 11.2136 2.80868 11.1207C2.90159 11.0278 3.01189 10.9541 3.13328 10.9038C3.25468 10.8535 3.38479 10.8276 3.51618 10.8276C3.64758 10.8276 3.77768 10.8535 3.89908 10.9038C4.02047 10.9541 4.13077 11.0278 4.22368 11.1207L9.17368 16.0707L19.7777 5.46466C19.9652 5.27719 20.2195 5.17188 20.4847 5.17188C20.7498 5.17188 21.0052 5.27719 21.1927 5.46466Z" fill="black"/>
</svg>
