<svg width="24" height="24" viewBox="0 0 24 24" fill="none" xmlns="http://www.w3.org/2000/svg">
<g clip-path="url(#clip0_2043_18718)">
<path d="M22.5334 8.76566C20.8183 8.49659 19.6122 6.90941 19.8039 5.22706C19.8299 4.99914 19.8817 4.7749 19.9581 4.55863C20.1569 3.98769 19.953 3.32816 19.4622 2.91472C18.425 2.01956 17.249 1.2992 15.9803 0.781907C15.7036 0.665273 15.3959 0.644215 15.1059 0.722065C14.8159 0.799915 14.5602 0.972228 14.3791 1.21175C13.375 2.55378 11.4405 2.78909 10.1341 1.74144C9.94195 1.58699 9.76998 1.40904 9.62219 1.21175C9.44111 0.972228 9.18533 0.799915 8.89533 0.722065C8.60532 0.644215 8.29764 0.665273 8.02094 0.781907C6.85074 1.25821 5.75884 1.90782 4.78188 2.70894C4.26626 3.12706 4.05251 3.81238 4.26157 4.40253C4.8461 5.95269 4.05672 7.7705 2.45313 8.43378C2.16742 8.55299 1.86606 8.6305 1.55829 8.66394C0.91235 8.74409 0.376569 9.22175 0.245787 9.83816C-0.0481725 11.1415 -0.0744851 12.4909 0.168444 13.8047C0.281881 14.4413 0.824694 14.941 1.49032 15.0235C3.20594 15.2053 4.48188 16.7222 4.37219 18.4102C4.35099 18.7493 4.27171 19.0823 4.13782 19.3946C3.88422 19.981 4.0811 20.6921 4.60657 21.1243C5.63681 22.0038 6.80124 22.7128 8.05563 23.2243C8.21139 23.284 8.37595 23.3176 8.54266 23.3236C8.76858 23.328 8.99195 23.2753 9.192 23.1702C9.39205 23.0651 9.56229 22.9112 9.68688 22.7227C9.95393 22.3216 10.3143 21.9913 10.7371 21.7602C11.1599 21.529 11.6325 21.404 12.1143 21.3957C12.5961 21.3875 13.0727 21.4963 13.5032 21.7128C13.9337 21.9293 14.3052 22.2471 14.5858 22.6388C14.766 22.895 15.0301 23.0803 15.3323 23.1626C15.6346 23.2449 15.9561 23.2192 16.2414 23.0897C17.3877 22.5813 18.454 21.909 19.4069 21.0938C19.9066 20.6719 20.11 19.9964 19.8958 19.418C19.2934 17.8744 20.0631 16.0496 21.6569 15.3713C21.9263 15.2554 22.2101 15.1766 22.5006 15.1369C23.1391 15.0389 23.657 14.5547 23.7752 13.9421C23.9137 13.3018 23.9893 12.6494 24.0006 11.9944C24.0005 11.3031 23.9281 10.6138 23.7845 9.93753C23.6645 9.338 23.1578 8.86503 22.5334 8.76566ZM16.0005 11.9944C16.0005 14.19 14.1948 15.9924 12.0006 15.9943C9.80641 15.9961 8.00266 14.19 8.00079 11.9944C7.99891 9.79878 9.80641 7.99597 12.0006 7.99409C14.1948 7.99222 15.9986 9.79691 16.0005 11.9944Z" fill="#006EFF"/>
</g>
<defs>
<clipPath id="clip0_2043_18718">
<rect width="24" height="24" fill="white"/>
</clipPath>
</defs>
</svg>
