<svg width="36" height="36" viewBox="0 0 36 36" fill="none" xmlns="http://www.w3.org/2000/svg">
<path fill-rule="evenodd" clip-rule="evenodd" d="M4.16531 1.50001C4.17703 1.50001 4.18861 1.50002 4.20002 1.50002H7.80002C7.81143 1.50002 7.823 1.50001 7.83473 1.50001C8.0134 1.49994 8.22679 1.49986 8.41476 1.51522C8.63259 1.53302 8.94458 1.57868 9.2715 1.74525C9.69486 1.96097 10.0391 2.30517 10.2548 2.72854C10.4214 3.05546 10.467 3.36745 10.4848 3.58527C10.5002 3.77325 10.5001 3.98664 10.5 4.16531C10.5 4.17703 10.5 4.18861 10.5 4.20002V7.80002C10.5 7.81143 10.5 7.823 10.5 7.83473C10.5001 8.0134 10.5002 8.22679 10.4848 8.41476C10.467 8.63259 10.4214 8.94458 10.2548 9.2715C10.0391 9.69486 9.69486 10.0391 9.2715 10.2548C8.94458 10.4214 8.63259 10.467 8.41476 10.4848C8.22679 10.5002 8.0134 10.5001 7.83473 10.5C7.823 10.5 7.81143 10.5 7.80002 10.5H4.20002C4.18861 10.5 4.17703 10.5 4.16531 10.5C3.98664 10.5001 3.77325 10.5002 3.58527 10.4848C3.36745 10.467 3.05546 10.4214 2.72854 10.2548C2.30517 10.0391 1.96097 9.69486 1.74525 9.2715C1.57868 8.94458 1.53302 8.63259 1.51522 8.41476C1.49986 8.22679 1.49994 8.0134 1.50001 7.83473C1.50001 7.823 1.50002 7.81143 1.50002 7.80002V4.20002C1.50002 4.18861 1.50001 4.17703 1.50001 4.16531C1.49994 3.98664 1.49986 3.77325 1.51522 3.58527C1.53302 3.36745 1.57868 3.05546 1.74525 2.72854C1.96097 2.30517 2.30517 1.96097 2.72854 1.74525C3.05546 1.57868 3.36745 1.53302 3.58527 1.51522C3.77325 1.49986 3.98664 1.49994 4.16531 1.50001ZM4.50002 4.50002V7.50002H7.50002V4.50002H4.50002ZM16.1653 7.50001C16.177 7.50001 16.1886 7.50002 16.2 7.50002H19.8C19.8114 7.50002 19.823 7.50001 19.8347 7.50001C20.0134 7.49994 20.2268 7.49986 20.4148 7.51522C20.6326 7.53301 20.9446 7.57868 21.2715 7.74525C21.6949 7.96097 22.0391 8.30517 22.2548 8.72854C22.4214 9.05546 22.467 9.36745 22.4848 9.58527C22.5002 9.77326 22.5001 9.98665 22.5 10.1653C22.5 10.177 22.5 10.1886 22.5 10.2V13.8C22.5 13.8114 22.5 13.823 22.5 13.8347C22.5001 14.0134 22.5002 14.2268 22.4848 14.4148C22.467 14.6326 22.4214 14.9446 22.2548 15.2715C22.0391 15.6949 21.6949 16.0391 21.2715 16.2548C20.9446 16.4214 20.6326 16.467 20.4148 16.4848C20.2268 16.5002 20.0134 16.5001 19.8347 16.5C19.823 16.5 19.8114 16.5 19.8 16.5H16.2C16.1886 16.5 16.177 16.5 16.1653 16.5C15.9866 16.5001 15.7733 16.5002 15.5853 16.4848C15.3674 16.467 15.0555 16.4214 14.7285 16.2548C14.3052 16.0391 13.961 15.6949 13.7453 15.2715C13.5787 14.9446 13.533 14.6326 13.5152 14.4148C13.4999 14.2268 13.4999 14.0134 13.5 13.8347C13.5 13.823 13.5 13.8114 13.5 13.8V10.2C13.5 10.1886 13.5 10.177 13.5 10.1653C13.4999 9.98664 13.4999 9.77325 13.5152 9.58527C13.533 9.36745 13.5787 9.05546 13.7453 8.72854C13.961 8.30517 14.3052 7.96097 14.7285 7.74525C15.0555 7.57868 15.3674 7.53301 15.5853 7.51522C15.7733 7.49986 15.9866 7.49994 16.1653 7.50001ZM16.5 10.5V13.5H19.5V10.5H16.5ZM28.1653 13.5L31.8347 13.5C32.0134 13.4999 32.2268 13.4999 32.4148 13.5152C32.6326 13.533 32.9446 13.5787 33.2715 13.7453C33.6949 13.961 34.0391 14.3052 34.2548 14.7285C34.4214 15.0555 34.467 15.3674 34.4848 15.5853C34.5002 15.7732 34.5001 15.9866 34.5 16.1653C34.5 16.177 34.5 16.1886 34.5 16.2V31.8C34.5 31.8114 34.5 31.823 34.5 31.8347C34.5001 32.0134 34.5002 32.2268 34.4848 32.4148C34.467 32.6326 34.4214 32.9446 34.2548 33.2715C34.0391 33.6949 33.6949 34.0391 33.2715 34.2548C32.9446 34.4214 32.6326 34.467 32.4148 34.4848C32.2268 34.5002 32.0134 34.5001 31.8347 34.5C31.823 34.5 31.8114 34.5 31.8 34.5H16.2C16.1886 34.5 16.177 34.5 16.1653 34.5C15.9866 34.5001 15.7732 34.5002 15.5853 34.4848C15.3674 34.467 15.0555 34.4214 14.7285 34.2548C14.3052 34.0391 13.961 33.6949 13.7453 33.2715C13.5787 32.9446 13.533 32.6326 13.5152 32.4148C13.4999 32.2268 13.4999 32.0134 13.5 31.8347V28.1653C13.4999 27.9866 13.4999 27.7732 13.5152 27.5853C13.533 27.3674 13.5787 27.0555 13.7453 26.7285C13.961 26.3052 14.3052 25.961 14.7285 25.7453C15.0555 25.5787 15.3674 25.533 15.5853 25.5152C15.7733 25.4999 15.9866 25.4999 16.1653 25.5C16.177 25.5 16.1886 25.5 16.2 25.5H19.5V22.2C19.5 22.1886 19.5 22.177 19.5 22.1653C19.4999 21.9866 19.4999 21.7733 19.5152 21.5853C19.533 21.3674 19.5787 21.0555 19.7453 20.7285C19.961 20.3052 20.3052 19.961 20.7285 19.7453C21.0555 19.5787 21.3674 19.533 21.5853 19.5152C21.7733 19.4999 21.9866 19.4999 22.1653 19.5C22.177 19.5 22.1886 19.5 22.2 19.5H25.5V16.2C25.5 16.1886 25.5 16.177 25.5 16.1653C25.4999 15.9867 25.4999 15.7733 25.5152 15.5853C25.533 15.3674 25.5787 15.0555 25.7453 14.7285C25.961 14.3052 26.3052 13.961 26.7285 13.7453C27.0555 13.5787 27.3674 13.533 27.5853 13.5152C27.7732 13.4999 27.9866 13.4999 28.1653 13.5ZM28.5 16.5V19.8C28.5 19.8114 28.5 19.823 28.5 19.8347C28.5001 20.0134 28.5002 20.2268 28.4848 20.4148C28.467 20.6326 28.4214 20.9446 28.2548 21.2715C28.0391 21.6949 27.6949 22.0391 27.2715 22.2548C26.9446 22.4214 26.6326 22.467 26.4148 22.4848C26.2268 22.5002 26.0134 22.5001 25.8347 22.5C25.823 22.5 25.8114 22.5 25.8 22.5H22.5V25.8C22.5 25.8114 22.5 25.823 22.5 25.8347C22.5001 26.0134 22.5002 26.2268 22.4848 26.4148C22.467 26.6326 22.4214 26.9446 22.2548 27.2715C22.0391 27.6949 21.6949 28.0391 21.2715 28.2548C20.9446 28.4214 20.6326 28.467 20.4148 28.4848C20.2268 28.5002 20.0134 28.5001 19.8347 28.5C19.823 28.5 19.8114 28.5 19.8 28.5H16.5V31.5L31.5 31.5V16.5L28.5 16.5ZM5.66533 16.5C5.67704 16.5 5.68861 16.5 5.70002 16.5H9.30002C9.31142 16.5 9.32299 16.5 9.33471 16.5C9.51339 16.4999 9.72678 16.4999 9.91476 16.5152C10.1326 16.533 10.4446 16.5787 10.7715 16.7453C11.1949 16.961 11.5391 17.3052 11.7548 17.7285C11.9214 18.0555 11.967 18.3674 11.9848 18.5853C12.0002 18.7733 12.0001 18.9866 12 19.1653C12 19.177 12 19.1886 12 19.2V22.8C12 22.8114 12 22.823 12 22.8347C12.0001 23.0134 12.0002 23.2268 11.9848 23.4148C11.967 23.6326 11.9214 23.9446 11.7548 24.2715C11.5391 24.6949 11.1949 25.0391 10.7715 25.2548C10.4446 25.4214 10.1326 25.467 9.91476 25.4848C9.72678 25.5002 9.51339 25.5001 9.33471 25.5C9.32299 25.5 9.31142 25.5 9.30002 25.5H5.70002C5.68861 25.5 5.67704 25.5 5.66533 25.5C5.48665 25.5001 5.27326 25.5002 5.08527 25.4848C4.86745 25.467 4.55546 25.4214 4.22854 25.2548C3.80518 25.0391 3.46097 24.6949 3.24525 24.2715C3.07868 23.9446 3.03302 23.6326 3.01522 23.4148C2.99986 23.2268 2.99994 23.0134 3.00001 22.8347C3.00001 22.823 3.00002 22.8114 3.00002 22.8V19.2C3.00002 19.1886 3.00001 19.177 3.00001 19.1653C2.99994 18.9866 2.99986 18.7733 3.01522 18.5853C3.03302 18.3674 3.07868 18.0555 3.24525 17.7285C3.46097 17.3052 3.80518 16.961 4.22854 16.7453C4.55546 16.5787 4.86745 16.533 5.08527 16.5152C5.27326 16.4999 5.48665 16.4999 5.66533 16.5ZM6.00002 19.5V22.5H9.00002V19.5H6.00002Z" fill="#006EFF"/>
</svg>
