<svg width="36" height="36" viewBox="0 0 36 36" fill="none" xmlns="http://www.w3.org/2000/svg">
<path fill-rule="evenodd" clip-rule="evenodd" d="M8.95202 1.5H27.048C27.706 1.49998 28.2737 1.49997 28.7436 1.53203C29.2383 1.56578 29.7332 1.64004 30.2221 1.84254C31.3247 2.29927 32.2007 3.1753 32.6575 4.27793C32.86 4.76682 32.9342 5.26168 32.968 5.75643C33 6.22631 33 6.79404 33 7.45202V7.54799C33 8.20596 33 8.77369 32.968 9.24358C32.9342 9.73832 32.86 10.2332 32.6575 10.7221C32.2007 11.8247 31.3247 12.7007 30.2221 13.1575C29.7332 13.36 29.2383 13.4342 28.7436 13.468C28.2737 13.5 27.706 13.5 27.048 13.5L19.5 13.5V18H22.8619C24.0694 18 25.0659 18 25.8777 18.0663C26.7209 18.1352 27.4959 18.283 28.2239 18.654C29.3529 19.2292 30.2708 20.1471 30.846 21.2761C31.217 22.0041 31.3648 22.7791 31.4337 23.6223C31.4831 24.2272 31.4957 24.9347 31.4989 25.7557C33.2473 26.3731 34.5 28.0403 34.5 30C34.5 32.4853 32.4853 34.5 30 34.5C27.5147 34.5 25.5 32.4853 25.5 30C25.5 28.0411 26.7516 26.3746 28.4988 25.7565C28.4955 24.9637 28.4841 24.3618 28.4437 23.8666C28.3899 23.2089 28.2926 22.8726 28.173 22.638C27.8854 22.0735 27.4265 21.6146 26.862 21.327C26.6274 21.2074 26.2911 21.1101 25.6334 21.0563C24.9583 21.0012 24.0849 21 22.8 21H19.5V25.7561C21.2478 26.3738 22.5 28.0407 22.5 30C22.5 32.4853 20.4853 34.5 18 34.5C15.5147 34.5 13.5 32.4853 13.5 30C13.5 28.0407 14.7522 26.3738 16.5 25.7561V21H13.2C11.9151 21 11.0417 21.0012 10.3666 21.0563C9.70893 21.1101 9.37263 21.2074 9.13803 21.327C8.57354 21.6146 8.1146 22.0735 7.82698 22.638C7.70745 22.8726 7.61006 23.2089 7.55633 23.8666C7.51586 24.3618 7.50446 24.9637 7.50125 25.7565C9.24838 26.3746 10.5 28.0411 10.5 30C10.5 32.4853 8.48528 34.5 6 34.5C3.51472 34.5 1.5 32.4853 1.5 30C1.5 28.0403 2.75273 26.3731 4.50108 25.7557C4.50428 24.9347 4.51687 24.2272 4.56629 23.6223C4.63518 22.7791 4.78302 22.0041 5.15396 21.2761C5.7292 20.1471 6.64709 19.2292 7.77606 18.654C8.50406 18.283 9.27911 18.1352 10.1223 18.0663C10.9341 18 11.9306 18 13.1381 18H16.5V13.5L8.95202 13.5C8.29404 13.5 7.72631 13.5 7.25643 13.468C6.76168 13.4342 6.26682 13.36 5.77792 13.1575C4.6753 12.7007 3.79927 11.8247 3.34254 10.7221C3.14004 10.2332 3.06578 9.73832 3.03202 9.24358C2.99996 8.77369 2.99998 8.20595 3 7.54797V7.45203C2.99998 6.79405 2.99996 6.22632 3.03202 5.75643C3.06578 5.26168 3.14004 4.76682 3.34254 4.27793C3.79927 3.1753 4.6753 2.29927 5.77792 1.84254C6.26682 1.64004 6.76168 1.56578 7.25643 1.53203C7.72631 1.49997 8.29405 1.49998 8.95202 1.5ZM27 10.5C27.7194 10.5 28.1839 10.4992 28.5394 10.4749C28.8814 10.4516 29.0116 10.4117 29.074 10.3858C29.4416 10.2336 29.7336 9.94157 29.8858 9.57403C29.9117 9.51161 29.9516 9.38136 29.9749 9.03936C29.9992 8.68389 30 8.21944 30 7.5C30 6.78057 29.9992 6.31611 29.9749 5.96064C29.9516 5.61864 29.9117 5.4884 29.8858 5.42598C29.7336 5.05843 29.4416 4.76642 29.074 4.61418C29.0116 4.58833 28.8814 4.5484 28.5394 4.52507C28.1839 4.50081 27.7194 4.5 27 4.5H9C8.28056 4.5 7.81611 4.50081 7.46064 4.52507C7.11864 4.5484 6.9884 4.58833 6.92597 4.61418C6.55843 4.76642 6.26642 5.05843 6.11418 5.42598C6.08833 5.4884 6.0484 5.61864 6.02507 5.96064C6.00081 6.31611 6 6.78057 6 7.5C6 8.21944 6.00081 8.68389 6.02507 9.03936C6.0484 9.38136 6.08833 9.51161 6.11418 9.57403C6.26642 9.94157 6.55843 10.2336 6.92597 10.3858C6.9884 10.4117 7.11864 10.4516 7.46064 10.4749C7.81611 10.4992 8.28056 10.5 9 10.5H27ZM6 28.5C5.17157 28.5 4.5 29.1716 4.5 30C4.5 30.8284 5.17157 31.5 6 31.5C6.82843 31.5 7.5 30.8284 7.5 30C7.5 29.1716 6.82843 28.5 6 28.5ZM18 28.5C17.1716 28.5 16.5 29.1716 16.5 30C16.5 30.8284 17.1716 31.5 18 31.5C18.8284 31.5 19.5 30.8284 19.5 30C19.5 29.1716 18.8284 28.5 18 28.5ZM30 28.5C29.1716 28.5 28.5 29.1716 28.5 30C28.5 30.8284 29.1716 31.5 30 31.5C30.8284 31.5 31.5 30.8284 31.5 30C31.5 29.1716 30.8284 28.5 30 28.5Z" fill="#006EFF"/>
</svg>
