<svg width="36" height="36" viewBox="0 0 36 36" fill="none" xmlns="http://www.w3.org/2000/svg">
<path fill-rule="evenodd" clip-rule="evenodd" d="M18.0308 4.60761C18.7997 4.91584 19.1732 5.78907 18.865 6.55802L18.0606 8.56475H20.1565C20.6627 8.56475 21.1347 8.82003 21.4118 9.24361C21.6889 9.66719 21.7337 10.202 21.5309 10.6657L19.9015 14.3921C19.5696 15.1511 18.6852 15.4974 17.9262 15.1655C17.1671 14.8336 16.8209 13.9492 17.1528 13.1901L17.8635 11.5648H15.8433C15.3453 11.5648 14.8799 11.3177 14.6009 10.9052C14.3219 10.4928 14.2657 9.96883 14.451 9.50664L16.0804 5.4418C16.3886 4.67285 17.2618 4.29937 18.0308 4.60761ZM2.62109 10.7343C2.62109 9.90586 3.29267 9.23429 4.12109 9.23429H5.6787C8.80329 9.23429 11.69 10.9045 13.2437 13.6137L15.1589 16.9533C15.4251 17.4175 15.4238 17.9884 15.1556 18.4514C14.8874 18.9144 14.3928 19.1995 13.8577 19.1995H4.12109C3.29267 19.1995 2.62109 18.5279 2.62109 17.6995V10.7343ZM5.62109 12.2343V16.1995H11.2683L10.6413 15.1062C10.6413 15.1062 10.6413 15.1062 10.6413 15.1062C9.6231 13.3308 7.72995 12.2343 5.6787 12.2343H5.62109Z" fill="#006EFF"/>
<path fill-rule="evenodd" clip-rule="evenodd" d="M2.62109 17.6995C2.62109 16.8711 3.29267 16.1994 4.12109 16.1994H13.4422C16.7877 16.1994 19.4999 18.9115 19.4999 22.2572V26.378C19.4999 27.2065 18.8283 27.878 17.9999 27.878H13.9596C13.1312 27.878 12.4596 27.2065 12.4596 26.378C12.4596 25.5496 13.1312 24.878 13.9596 24.878H16.4999V22.2572C16.4999 20.5684 15.1309 19.1994 13.4422 19.1994H5.62109V24.878H7.41314C8.24156 24.878 8.91314 25.5496 8.91314 26.378C8.91314 27.2064 8.24156 27.878 7.41314 27.878H4.12109C3.29267 27.878 2.62109 27.2064 2.62109 26.378V17.6995Z" fill="#006EFF"/>
<path fill-rule="evenodd" clip-rule="evenodd" d="M10.6752 25.1449C9.74383 25.1449 8.99278 25.8981 8.99278 26.8224C8.99278 27.7466 9.74383 28.4999 10.6752 28.4999C11.6066 28.4999 12.3576 27.7466 12.3576 26.8224C12.3576 25.8981 11.6066 25.1449 10.6752 25.1449ZM5.99278 26.8224C5.99278 24.2369 8.09137 22.1449 10.6752 22.1449C13.259 22.1449 15.3576 24.2369 15.3576 26.8224C15.3576 29.4079 13.259 31.4999 10.6752 31.4999C8.09137 31.4999 5.99278 29.4079 5.99278 26.8224Z" fill="#006EFF"/>
<path fill-rule="evenodd" clip-rule="evenodd" d="M22.7562 13.6137C24.31 10.9045 27.1967 9.2343 30.3213 9.2343H31.8789C32.7073 9.2343 33.3789 9.90587 33.3789 10.7343V17.6995C33.3789 18.5279 32.7073 19.1995 31.8789 19.1995H22.1422C21.6071 19.1995 21.1125 18.9144 20.8443 18.4514C20.576 17.9884 20.5748 17.4175 20.841 16.9533L22.7562 13.6137ZM25.3586 15.1062C25.3586 15.1062 25.3586 15.1062 25.3586 15.1062L24.7316 16.1995H30.3789V12.2343H30.3213C28.27 12.2343 26.3768 13.3308 25.3586 15.1062Z" fill="#006EFF"/>
<path fill-rule="evenodd" clip-rule="evenodd" d="M25.3246 25.1449C24.3933 25.1449 23.6422 25.8981 23.6422 26.8224C23.6422 27.7466 24.3933 28.4999 25.3246 28.4999C26.256 28.4999 27.0071 27.7466 27.0071 26.8224C27.0071 25.8981 26.256 25.1449 25.3246 25.1449ZM20.6422 26.8224C20.6422 24.2369 22.7408 22.1449 25.3246 22.1449C27.9085 22.1449 30.0071 24.2369 30.0071 26.8224C30.0071 29.4079 27.9085 31.4999 25.3246 31.4999C22.7408 31.4999 20.6422 29.4079 20.6422 26.8224Z" fill="#006EFF"/>
<path fill-rule="evenodd" clip-rule="evenodd" d="M16.4999 22.2572C16.4999 18.9115 19.2121 16.1994 22.5576 16.1994H31.8787C32.7071 16.1994 33.3789 16.8711 33.3789 17.6995L33.3787 20.4971C33.3787 21.3256 32.7071 21.9971 31.8787 21.9971C31.0503 21.9971 30.3787 21.3256 30.3787 20.4971V19.1994H22.5576C20.8689 19.1994 19.4999 20.5684 19.4999 22.2572V24.878H22.0677C22.8961 24.878 23.5677 25.5496 23.5677 26.378C23.5677 27.2065 22.8961 27.878 22.0677 27.878H17.9999C17.1715 27.878 16.4999 27.2065 16.4999 26.378V22.2572ZM27.1142 26.378C27.1142 25.5496 27.7858 24.878 28.6142 24.878H31.8787C32.7071 24.878 33.3787 25.5496 33.3787 26.378C33.3787 27.2064 32.7071 27.878 31.8787 27.878H28.6142C27.7858 27.878 27.1142 27.2064 27.1142 26.378Z" fill="#006EFF"/>
</svg>
