<?xml version="1.0" encoding="UTF-8"?>
<svg xmlns="http://www.w3.org/2000/svg" xmlns:xlink="http://www.w3.org/1999/xlink" width="24px" height="24px" viewBox="0 0 24 24" version="1.1">
<g id="surface1">
<path style="stroke:#006EFF;stroke-width:0.9;" d="M 21.636719 5.203125 C 20.421875 5.203125 19.433594 6.191406 19.433594 7.40625 C 19.433594 7.886719 19.589844 8.332031 19.855469 8.695312 L 14.027344 14.734375 C 13.675781 14.5 13.257812 14.363281 12.804688 14.363281 C 12.410156 14.363281 12.039062 14.46875 11.71875 14.652344 L 9.585938 12.09375 C 9.90625 11.710938 10.101562 11.214844 10.101562 10.679688 C 10.101562 9.464844 9.113281 8.476562 7.898438 8.476562 C 6.683594 8.476562 5.695312 9.464844 5.695312 10.679688 C 5.695312 11.167969 5.855469 11.617188 6.125 11.984375 L 3.539062 14.722656 C 3.191406 14.496094 2.777344 14.363281 2.335938 14.363281 C 1.121094 14.363281 0.132812 15.351562 0.132812 16.566406 C 0.132812 17.78125 1.121094 18.769531 2.335938 18.769531 C 3.550781 18.769531 4.539062 17.78125 4.539062 16.566406 C 4.539062 16.078125 4.375 15.628906 4.105469 15.261719 L 6.695312 12.519531 C 7.039062 12.75 7.453125 12.882812 7.898438 12.882812 C 8.292969 12.882812 8.664062 12.773438 8.984375 12.59375 L 11.117188 15.152344 C 10.796875 15.535156 10.601562 16.027344 10.601562 16.566406 C 10.601562 17.78125 11.589844 18.769531 12.804688 18.769531 C 14.019531 18.769531 15.007812 17.78125 15.007812 16.566406 C 15.007812 16.085938 14.851562 15.640625 14.589844 15.28125 L 20.414062 9.238281 C 20.765625 9.472656 21.1875 9.609375 21.636719 9.609375 C 22.851562 9.609375 23.839844 8.621094 23.839844 7.40625 C 23.839844 6.191406 22.851562 5.203125 21.636719 5.203125 Z M 2.335938 17.988281 C 1.550781 17.988281 0.914062 17.351562 0.914062 16.566406 C 0.914062 15.78125 1.550781 15.144531 2.335938 15.144531 C 3.121094 15.144531 3.757812 15.78125 3.757812 16.566406 C 3.757812 17.351562 3.117188 17.988281 2.335938 17.988281 Z M 6.476562 10.679688 C 6.476562 9.894531 7.113281 9.257812 7.898438 9.257812 C 8.679688 9.257812 9.320312 9.894531 9.320312 10.679688 C 9.320312 11.460938 8.679688 12.097656 7.898438 12.097656 C 7.113281 12.097656 6.476562 11.460938 6.476562 10.679688 Z M 12.804688 17.988281 C 12.019531 17.988281 11.382812 17.351562 11.382812 16.566406 C 11.382812 15.78125 12.019531 15.144531 12.804688 15.144531 C 13.589844 15.144531 14.226562 15.78125 14.226562 16.566406 C 14.226562 17.351562 13.589844 17.988281 12.804688 17.988281 Z M 21.636719 8.828125 C 20.855469 8.828125 20.214844 8.191406 20.214844 7.40625 C 20.214844 6.621094 20.855469 5.984375 21.636719 5.984375 C 22.421875 5.984375 23.058594 6.621094 23.058594 7.40625 C 23.058594 8.191406 22.421875 8.828125 21.636719 8.828125 Z M 21.636719 8.828125 " fill="#006EFF"/>
</g>
</svg>
