<svg width="14" height="14" viewBox="0 0 14 14" fill="none" xmlns="http://www.w3.org/2000/svg">
<path d="M6.06665 10.2525L10.7666 5.55247L9.83331 4.61913L6.06665 8.3858L4.16665 6.4858L3.23331 7.41914L6.06665 10.2525ZM6.99998 13.8525C6.07776 13.8525 5.21109 13.6774 4.39998 13.3271C3.58887 12.9769 2.88331 12.502 2.28331 11.9025C1.68331 11.3025 1.20842 10.5969 0.858646 9.7858C0.508869 8.97469 0.333757 8.10802 0.333313 7.1858C0.333313 6.26358 0.508424 5.39691 0.858646 4.5858C1.20887 3.77469 1.68376 3.06913 2.28331 2.46913C2.88331 1.86913 3.58887 1.39425 4.39998 1.04447C5.21109 0.69469 6.07776 0.519579 6.99998 0.519135C7.9222 0.519135 8.78887 0.694246 9.59998 1.04447C10.4111 1.39469 11.1166 1.86958 11.7166 2.46913C12.3166 3.06913 12.7918 3.77469 13.142 4.5858C13.4922 5.39691 13.6671 6.26358 13.6666 7.1858C13.6666 8.10802 13.4915 8.97469 13.1413 9.7858C12.7911 10.5969 12.3162 11.3025 11.7166 11.9025C11.1166 12.5025 10.4111 12.9776 9.59998 13.3278C8.78887 13.678 7.9222 13.8529 6.99998 13.8525Z" fill="#E2E2E2"/>
</svg>
