<svg width="16" height="16" viewBox="0 0 16 16" fill="none" xmlns="http://www.w3.org/2000/svg">
<path d="M10.7305 13.79C11.0205 14.07 11.4805 14.07 11.7705 13.79L14.5205 11.14C14.5948 11.0726 14.6549 10.9909 14.6971 10.8998C14.7393 10.8087 14.7628 10.7101 14.7662 10.6098C14.7696 10.5095 14.7528 10.4095 14.7168 10.3158C14.6809 10.2221 14.6265 10.1366 14.5568 10.0643C14.4872 9.99196 14.4038 9.93437 14.3115 9.8949C14.2192 9.85543 14.1199 9.83489 14.0196 9.8345C13.9192 9.8341 13.8198 9.85385 13.7272 9.89259C13.6346 9.93132 13.5507 9.98825 13.4805 10.06L12.0005 11.486V2.75C12.0005 2.55109 11.9215 2.36032 11.7808 2.21967C11.6402 2.07902 11.4494 2 11.2505 2C11.0516 2 10.8608 2.07902 10.7202 2.21967C10.5795 2.36032 10.5005 2.55109 10.5005 2.75V11.486L9.02048 10.06C8.95029 9.98825 8.86641 9.93132 8.77381 9.89259C8.68121 9.85385 8.58178 9.8341 8.48141 9.8345C8.38103 9.83489 8.28176 9.85543 8.18947 9.8949C8.09719 9.93437 8.01376 9.99196 7.94413 10.0643C7.87451 10.1366 7.82011 10.2221 7.78415 10.3158C7.74819 10.4095 7.73141 10.5095 7.7348 10.6098C7.73819 10.7101 7.76168 10.8087 7.80388 10.8998C7.84608 10.9909 7.90614 11.0726 7.98048 11.14L10.7305 13.79Z" fill="#006EFF"/>
<path d="M5.28082 2.22032C5.1402 2.07987 4.94957 2.00098 4.75082 2.00098C4.55207 2.00098 4.36145 2.07987 4.22082 2.22032L1.47082 4.97032C1.33834 5.11249 1.26622 5.30054 1.26965 5.49484C1.27308 5.68914 1.35179 5.87453 1.4892 6.01194C1.62661 6.14935 1.812 6.22806 2.0063 6.23149C2.2006 6.23492 2.38865 6.1628 2.53082 6.03032L4.00082 4.56032V13.2503C4.00082 13.4492 4.07984 13.64 4.22049 13.7806C4.36115 13.9213 4.55191 14.0003 4.75082 14.0003C4.94974 14.0003 5.1405 13.9213 5.28115 13.7806C5.42181 13.64 5.50082 13.4492 5.50082 13.2503V4.56032L6.97082 6.03032C7.113 6.1628 7.30104 6.23492 7.49535 6.23149C7.68965 6.22806 7.87503 6.14935 8.01244 6.01194C8.14986 5.87453 8.22857 5.68914 8.232 5.49484C8.23543 5.30054 8.1633 5.11249 8.03082 4.97032L5.28082 2.22032Z" fill="#69788C"/>
</svg>
