<svg width="25" height="24" viewBox="0 0 25 24" fill="none" xmlns="http://www.w3.org/2000/svg">
<path fill-rule="evenodd" clip-rule="evenodd" d="M7.2587 1H17.7413C18.5463 0.999988 19.2106 0.999977 19.7518 1.04419C20.3139 1.09012 20.8306 1.18868 21.316 1.43597C22.0686 1.81947 22.6805 2.43139 23.064 3.18404C23.3113 3.66937 23.4099 4.18608 23.4558 4.74817C23.5 5.28936 23.5 5.95372 23.5 6.75868V17.2413C23.5 18.0463 23.5 18.7106 23.4558 19.2518C23.4099 19.8139 23.3113 20.3306 23.064 20.816C22.6805 21.5686 22.0686 22.1805 21.316 22.564C21.1461 22.6506 20.9713 22.7195 20.7899 22.7745C20.0428 23.0008 19.0943 23.0005 17.8661 23C17.8113 23 17.7559 23 17.7 23H7.3C7.24407 23 7.18871 23 7.1339 23C5.90566 23.0005 4.95716 23.0008 4.21007 22.7745C4.02872 22.7195 3.85389 22.6506 3.68404 22.564C2.93139 22.1805 2.31947 21.5686 1.93597 20.816C1.68868 20.3306 1.59012 19.8139 1.54419 19.2518C1.49998 18.7106 1.49999 18.0463 1.5 17.2413V6.7587C1.49999 5.95373 1.49998 5.28937 1.54419 4.74817C1.59012 4.18608 1.68868 3.66937 1.93597 3.18404C2.31947 2.43139 2.93139 1.81947 3.68404 1.43597C4.16937 1.18868 4.68608 1.09012 5.24817 1.04419C5.78937 0.999977 6.45373 0.999988 7.2587 1ZM5.41104 3.03755C4.97262 3.07337 4.74842 3.1383 4.59202 3.21799C4.2157 3.40973 3.90973 3.7157 3.71799 4.09202C3.6383 4.24842 3.57337 4.47262 3.53755 4.91104C3.50078 5.36113 3.5 5.94342 3.5 6.8V17.2C3.5 18.0566 3.50078 18.6389 3.53755 19.089C3.56353 19.407 3.60483 19.6123 3.65597 19.7607C4.13035 17.9045 5.62992 16.4729 7.52455 16.0961C8.00935 15.9996 8.56664 15.9998 9.38424 16C9.42226 16 9.46084 16 9.5 16H15.5C15.5392 16 15.5777 16 15.6158 16C16.4334 15.9998 16.9907 15.9996 17.4755 16.0961C19.3701 16.4729 20.8697 17.9045 21.344 19.7607C21.3952 19.6123 21.4365 19.407 21.4624 19.089C21.4992 18.6389 21.5 18.0566 21.5 17.2V6.8C21.5 5.94342 21.4992 5.36113 21.4624 4.91104C21.4266 4.47262 21.3617 4.24842 21.282 4.09202C21.0903 3.7157 20.7843 3.40973 20.408 3.21799C20.2516 3.1383 20.0274 3.07337 19.589 3.03755C19.1389 3.00078 18.5566 3 17.7 3H7.3C6.44342 3 5.86113 3.00078 5.41104 3.03755ZM19.4918 20.9701C19.484 20.7089 19.4693 20.5503 19.4424 20.4147C19.2056 19.2247 18.2753 18.2944 17.0853 18.0576C16.8198 18.0048 16.4772 18 15.5 18H9.5C8.52276 18 8.18018 18.0048 7.91473 18.0576C6.72466 18.2944 5.79436 19.2247 5.55765 20.4147C5.53068 20.5503 5.51596 20.7089 5.50817 20.9701C5.91515 20.9965 6.47445 21 7.3 21H17.7C18.5256 21 19.0848 20.9965 19.4918 20.9701ZM12.5 6.5C10.8431 6.5 9.5 7.84315 9.5 9.5C9.5 11.1569 10.8431 12.5 12.5 12.5C14.1569 12.5 15.5 11.1569 15.5 9.5C15.5 7.84315 14.1569 6.5 12.5 6.5ZM7.5 9.5C7.5 6.73858 9.73858 4.5 12.5 4.5C15.2614 4.5 17.5 6.73858 17.5 9.5C17.5 12.2614 15.2614 14.5 12.5 14.5C9.73858 14.5 7.5 12.2614 7.5 9.5Z" fill="white"/>
</svg>
