<svg width="12" height="14" viewBox="0 0 12 14" fill="none" xmlns="http://www.w3.org/2000/svg">
    <path d="M2.25 11.6483L6 10.0358L9.75 11.6483V1.93579H2.25V11.6483ZM1.8 13.4858C1.55 13.5858 1.3125 13.5638 1.0875 13.4198C0.8625 13.2763 0.75 13.067 0.75 12.792V1.93579C0.75 1.52329 0.897 1.17004 1.191 0.876041C1.4845 0.582541 1.8375 0.435791 2.25 0.435791H9.75C10.1625 0.435791 10.5157 0.582541 10.8097 0.876041C11.1033 1.17004 11.25 1.52329 11.25 1.93579V12.792C11.25 13.067 11.1375 13.2763 10.9125 13.4198C10.6875 13.5638 10.45 13.5858 10.2 13.4858L6 11.6858L1.8 13.4858ZM2.25 1.93579H9.75H6H2.25Z" fill="white"/>
</svg>
