<svg width="18" height="12" viewBox="0 0 18 12" fill="none" xmlns="http://www.w3.org/2000/svg">
<path d="M8.8019 8.06352C9.50858 7.46952 10.0155 6.67255 10.2538 5.78069C10.4922 4.88883 10.4505 3.94524 10.1344 3.07789C9.81829 2.21053 9.24307 1.46139 8.48675 0.932043C7.73043 0.402699 6.8296 0.118774 5.90644 0.118774C4.98327 0.118774 4.08245 0.402699 3.32612 0.932043C2.5698 1.46139 1.99458 2.21053 1.67847 3.07789C1.36236 3.94524 1.32066 4.88883 1.55903 5.78069C1.79739 6.67255 2.30429 7.46952 3.01097 8.06352C1.90747 8.56248 0.951174 9.3374 0.234327 10.3135C0.101926 10.4939 0.0466188 10.7196 0.0805732 10.9408C0.114528 11.162 0.234962 11.3606 0.415381 11.493C0.595801 11.6254 0.821427 11.6807 1.04263 11.6468C1.26382 11.6128 1.46247 11.4924 1.59487 11.312C2.0911 10.6342 2.7401 10.083 3.48921 9.70308C4.23833 9.32313 5.06647 9.12512 5.90644 9.12512C6.7464 9.12512 7.57454 9.32313 8.32366 9.70308C9.07278 10.083 9.72177 10.6342 10.218 11.312C10.3504 11.4925 10.5491 11.613 10.7703 11.647C10.9916 11.681 11.2173 11.6258 11.3978 11.4934C11.5784 11.361 11.6989 11.1623 11.7329 10.941C11.7669 10.7197 11.7116 10.494 11.5792 10.3135C10.862 9.33753 9.90549 8.56265 8.8019 8.06352ZM3.09394 4.62242C3.09394 4.06616 3.25889 3.5224 3.56793 3.05988C3.87697 2.59737 4.31622 2.23688 4.83014 2.02401C5.34406 1.81114 5.90956 1.75544 6.45513 1.86397C7.0007 1.97249 7.50184 2.24035 7.89517 2.63369C8.28851 3.02702 8.55637 3.52816 8.6649 4.07373C8.77342 4.6193 8.71772 5.1848 8.50485 5.69872C8.29198 6.21264 7.93149 6.65189 7.46898 6.96093C7.00646 7.26997 6.4627 7.43492 5.90644 7.43492C5.16051 7.43492 4.44514 7.13861 3.9177 6.61116C3.39025 6.08372 3.09394 5.36835 3.09394 4.62242ZM17.5853 11.4898C17.496 11.5555 17.3946 11.6029 17.287 11.6293C17.1793 11.6558 17.0675 11.6607 16.958 11.644C16.8484 11.6272 16.7432 11.589 16.6484 11.5315C16.5536 11.4741 16.4711 11.3985 16.4055 11.3091C15.908 10.6327 15.2588 10.0825 14.5099 9.70268C13.7611 9.32289 12.9336 9.12414 12.0939 9.12242C11.8702 9.12242 11.6555 9.03353 11.4973 8.8753C11.3391 8.71706 11.2502 8.50245 11.2502 8.27867C11.2502 8.0549 11.3391 7.84029 11.4973 7.68205C11.6555 7.52382 11.8702 7.43492 12.0939 7.43492C12.508 7.43444 12.9169 7.34251 13.2914 7.16571C13.6659 6.9889 13.9967 6.73159 14.2602 6.41214C14.5237 6.09268 14.7135 5.71898 14.8158 5.31772C14.9182 4.91646 14.9307 4.49755 14.8525 4.09089C14.7742 3.68424 14.6071 3.29989 14.3631 2.96529C14.1191 2.6307 13.8042 2.35411 13.441 2.15529C13.0777 1.95646 12.675 1.84031 12.2617 1.81513C11.8483 1.78995 11.4345 1.85636 11.0498 2.00961C10.9467 2.05181 10.8364 2.07319 10.725 2.07252C10.6136 2.07185 10.5035 2.04914 10.401 2.00571C10.2984 1.96227 10.2055 1.89897 10.1276 1.81945C10.0496 1.73993 9.98816 1.64577 9.94677 1.54239C9.90538 1.43901 9.88487 1.32845 9.88641 1.21711C9.88795 1.10576 9.91152 0.995819 9.95575 0.893624C9.99998 0.791428 10.064 0.699 10.1441 0.621668C10.2243 0.544335 10.3189 0.48363 10.4226 0.44305C11.4156 0.0454637 12.5178 0.0146157 13.5315 0.356037C14.5453 0.697458 15.4042 1.38882 15.9544 2.30616C16.5045 3.22349 16.7099 4.30681 16.5338 5.36187C16.3576 6.41693 15.8113 7.37472 14.9929 8.06352C16.0964 8.56248 17.0527 9.3374 17.7696 10.3135C17.9006 10.4941 17.9549 10.7193 17.9203 10.9397C17.8858 11.1602 17.7654 11.358 17.5853 11.4898Z" fill="white"/>
</svg>
