<svg width="22" height="22" viewBox="0 0 22 22" fill="none" xmlns="http://www.w3.org/2000/svg">
<path d="M6.56698 12.5187C7.11857 13.266 7.7524 13.927 8.5712 14.3946C9.49838 14.9246 10.4967 15.0844 11.5496 15.0357C12.0414 15.0121 12.1894 14.8838 12.2121 14.3937C12.2273 14.0579 12.2662 13.7231 12.4315 13.4213C12.5939 13.1254 12.8404 13.0694 13.1248 13.2535C13.2664 13.3465 13.3856 13.4629 13.4985 13.5875C13.7756 13.8899 14.0439 14.2032 14.3309 14.4958C14.6919 14.8632 15.12 15.0798 15.657 15.0357L17.7379 15.0366C18.0728 15.0139 18.247 14.6033 18.0548 14.2284C17.9194 13.9666 17.7417 13.7339 17.5539 13.5079C17.1286 12.9971 16.6275 12.5617 16.1537 12.0996C15.7267 11.6827 15.6996 11.4406 16.0426 10.9596C16.4181 10.434 16.8207 9.9294 17.199 9.40666C17.5519 8.91835 17.9141 8.43072 18.0989 7.8467C18.2173 7.47388 18.1125 7.30963 17.7318 7.24372C17.6659 7.23292 17.5973 7.23292 17.5305 7.23292L15.2661 7.23007C14.9873 7.22562 14.8338 7.34755 14.7353 7.59477C14.6017 7.92889 14.4645 8.26293 14.3054 8.58431C13.9463 9.31562 13.5444 10.0224 12.9811 10.6201C12.8565 10.7517 12.7183 10.9188 12.5108 10.8503C12.2518 10.7555 12.1751 10.3277 12.1795 10.1833L12.1775 7.56959C12.1272 7.19695 12.0439 7.0298 11.6731 6.95736H9.32125C9.00812 6.95736 8.85008 7.07947 8.68211 7.27525C8.5864 7.38919 8.55646 7.46218 8.75528 7.5001C9.14511 7.57399 9.36642 7.82683 9.42417 8.21789C9.5172 8.84355 9.51081 9.47171 9.45678 10.0991C9.44136 10.2824 9.40983 10.4649 9.33735 10.6364C9.22376 10.9062 9.03951 10.9604 8.79851 10.7944C8.58109 10.6445 8.42764 10.4334 8.27668 10.2212C7.71252 9.42385 7.263 8.56463 6.89548 7.66172C6.78988 7.40071 6.60667 7.24281 6.33042 7.23823C5.65142 7.22739 4.97173 7.2258 4.29186 7.23914C3.8838 7.2464 3.76187 7.44499 3.92898 7.81604C4.66836 9.46177 5.49179 11.0615 6.56698 12.5187Z" fill="black"/>
<path d="M4 0C2 0 0 2 0 4C0 6 0 16 0 18C0 20 2 22 4 22C6 22 16 22 18 22C20 22 22 20 22 18C22 16 22 6 22 4C22 2 20 0 18 0C16 0 6 0 4 0ZM20 18C20 19 19 20 18 20C17 20 5 20 4 20C3 20 2 19 2 18C2 17 2 5 2 4C2 3 3 2 4 2C5 2 17 2 18 2C19 2 20 3 20 4C20 5 20 17 20 18Z" fill="black"/>
</svg>
