<svg width="24" height="24" viewBox="0 0 24 24" fill="none" xmlns="http://www.w3.org/2000/svg">
<g clip-path="url(#clip0_2021_18253)">
<g clip-path="url(#clip1_2021_18253)">
<path d="M1.5 21.75V2.25001C1.5 1.83578 1.83577 1.50001 2.25 1.50001H13.5V4.50001C13.5 5.32843 14.1716 6.00001 15 6.00001H18V8.25001H19.5V5.25001C19.5006 5.15131 19.4817 5.05346 19.4443 4.96208C19.407 4.8707 19.352 4.78759 19.2825 4.71751L14.7825 0.217512C14.7124 0.148003 14.6293 0.0930109 14.5379 0.0556876C14.4466 0.0183643 14.3487 -0.000555682 14.25 1.24242e-05H2.25C1.00734 1.24242e-05 0 1.0074 0 2.25001V21.75C0 22.9927 1.00734 24 2.25 24H7.5V22.5H2.25C1.83581 22.5 1.5 22.1642 1.5 21.75Z" fill="#006EFF"/>
<path d="M9.8325 12.4125L9 14.07L8.1675 12.4125C8.10518 12.2888 8.00982 12.1848 7.892 12.112C7.77418 12.0392 7.6385 12.0004 7.5 12H6V13.5H7.035L8.16 15.75L7.035 18H6V19.5H7.5C7.6385 19.4996 7.77418 19.4608 7.892 19.388C8.00982 19.3152 8.10518 19.2112 8.1675 19.0875L9 17.43L9.8325 19.0875C9.89482 19.2112 9.99018 19.3152 10.108 19.388C10.2258 19.4608 10.3615 19.4996 10.5 19.5H12V18H10.965L9.84 15.75L10.965 13.5H12V12H10.5C10.3615 12.0004 10.2258 12.0392 10.108 12.112C9.99019 12.1848 9.89483 12.2888 9.8325 12.4125ZM21 18V12H19.5V18.75C19.5 19.1642 19.8358 19.5 20.25 19.5H24V18H21ZM18.285 12.06C18.1477 12.0035 17.9967 11.989 17.8512 12.0184C17.7057 12.0478 17.5721 12.1197 17.4675 12.225L15.75 13.9425L14.0325 12.225C13.7408 11.9309 13.266 11.9289 12.9719 12.2206C12.8306 12.3607 12.7508 12.5511 12.75 12.75V19.5H14.25V14.5575L15.2175 15.525C15.51 15.8158 15.9825 15.8158 16.275 15.525L17.25 14.5575V19.5H18.75V12.75C18.7493 12.6019 18.7047 12.4574 18.622 12.3346C18.5392 12.2118 18.422 12.1163 18.285 12.06Z" fill="#006EFF"/>
</g>
</g>
<defs>
<clipPath id="clip0_2021_18253">
<rect width="24" height="24" fill="white"/>
</clipPath>
<clipPath id="clip1_2021_18253">
<rect width="24" height="24" fill="white"/>
</clipPath>
</defs>
</svg>
