<svg width="24" height="25" viewBox="0 0 24 25" fill="none" xmlns="http://www.w3.org/2000/svg">
<g clip-path="url(#clip0_1447_6432)">
<path d="M12 0.5C5.38298 0.5 0 5.88327 0 12.5C0 19.1167 5.38298 24.5 12 24.5C18.617 24.5 24 19.1167 24 12.5C24 5.88327 18.617 0.5 12 0.5ZM17.6362 11.1641L12.0632 16.7371C11.4518 17.3485 10.4613 17.3485 9.84984 16.7371L6.62466 13.5119C6.01322 12.9007 6.01322 11.9097 6.62466 11.2985C7.23609 10.6871 8.22656 10.6871 8.838 11.2985L10.9565 13.4168L15.4229 8.95067C16.0343 8.33923 17.0248 8.33923 17.6362 8.95067C18.2476 9.56192 18.2476 10.5529 17.6362 11.1641Z" fill="#4B5563"/>
</g>
<defs>
<clipPath id="clip0_1447_6432">
<rect width="24" height="24" fill="white" transform="translate(0 0.5)"/>
</clipPath>
</defs>
</svg>
