<svg width="36" height="36" viewBox="0 0 36 36" fill="none" xmlns="http://www.w3.org/2000/svg">
<path d="M31.1133 19.5675C30.0968 19.8374 29.0495 19.9741 27.9978 19.974C24.7953 19.974 21.7878 18.729 19.5288 16.47C18.0454 14.978 16.9789 13.1233 16.4357 11.0906C15.8925 9.05805 15.8915 6.91856 16.4328 4.88546C16.5004 4.63126 16.5 4.36375 16.4316 4.10977C16.3631 3.85578 16.2291 3.62426 16.043 3.43841C15.8568 3.25257 15.6251 3.11894 15.371 3.05094C15.1169 2.98293 14.8494 2.98294 14.5953 3.05096C12.05 3.72923 9.7279 5.0649 7.86181 6.92396C2.01481 12.771 2.01481 22.2885 7.86181 28.1385C9.2516 29.536 10.9048 30.644 12.7256 31.3984C14.5465 32.1528 16.4989 32.5386 18.4698 32.5335C20.4402 32.539 22.3922 32.1535 24.2125 31.3994C26.0329 30.6452 27.6856 29.5373 29.0748 28.14C30.9353 26.2735 32.2715 23.9501 32.9493 21.4035C33.0166 21.1494 33.0161 20.8821 32.9477 20.6282C32.8793 20.3744 32.7455 20.143 32.5596 19.9571C32.3737 19.7713 32.1423 19.6375 31.8885 19.5691C31.6347 19.5007 31.3674 19.5001 31.1133 19.5675ZM26.9553 26.019C25.8438 27.1366 24.5216 28.0227 23.0653 28.626C21.609 29.2292 20.0476 29.5377 18.4713 29.5335C16.8945 29.5374 15.3326 29.2287 13.8758 28.6252C12.419 28.0216 11.0964 27.1353 9.98431 26.0175C5.30731 21.339 5.30731 13.725 9.98431 9.04646C10.8881 8.14372 11.9315 7.39258 13.0743 6.82196C12.907 8.98055 13.2077 11.1498 13.9559 13.1815C14.7041 15.2132 15.882 17.0594 17.4093 18.594C18.9405 20.126 20.7862 21.3073 22.8187 22.056C24.8512 22.8047 27.0221 23.1031 29.1813 22.9305C28.6076 24.0714 27.8562 25.1139 26.9553 26.019Z" fill="#F1C40F"/>
</svg>
