<svg width="31" height="30" viewBox="0 0 31 30" fill="none" xmlns="http://www.w3.org/2000/svg">
<path d="M8.48859 15C8.48859 19.1415 11.8576 22.5105 15.9991 22.5105C20.1406 22.5105 23.5096 19.1415 23.5096 15C23.5096 10.8585 20.1406 7.4895 15.9991 7.4895C11.8576 7.4895 8.48859 10.8585 8.48859 15ZM15.9991 10.4895C18.4861 10.4895 20.5096 12.513 20.5096 15C20.5096 17.487 18.4861 19.5105 15.9991 19.5105C13.5121 19.5105 11.4886 17.487 11.4886 15C11.4886 12.513 13.5121 10.4895 15.9991 10.4895ZM14.4961 27C14.4961 26.1716 15.1677 25.5 15.9961 25.5C16.8245 25.5 17.4961 26.1716 17.4961 27V28.5C17.4961 29.3284 16.8245 30 15.9961 30C15.1677 30 14.4961 29.3284 14.4961 28.5V27ZM14.4961 1.5C14.4961 0.671573 15.1677 0 15.9961 0C16.8245 0 17.4961 0.671573 17.4961 1.5V3C17.4961 3.82843 16.8245 4.5 15.9961 4.5C15.1677 4.5 14.4961 3.82843 14.4961 3V1.5ZM0.996094 15C0.996094 14.1716 1.66767 13.5 2.49609 13.5H3.99609C4.82452 13.5 5.49609 14.1716 5.49609 15C5.49609 15.8284 4.82452 16.5 3.99609 16.5H2.49609C1.66767 16.5 0.996094 15.8284 0.996094 15ZM26.4961 15C26.4961 14.1716 27.1677 13.5 27.9961 13.5H29.4961C30.3245 13.5 30.9961 14.1716 30.9961 15C30.9961 15.8284 30.3245 16.5 29.4961 16.5H27.9961C27.1677 16.5 26.4961 15.8284 26.4961 15ZM5.38872 25.6049C4.80265 25.0192 4.80226 24.0694 5.38784 23.4833L6.44709 22.423C7.03277 21.8368 7.98281 21.8364 8.56897 22.4221C9.15503 23.0078 9.15542 23.9576 8.56984 24.5438L7.51059 25.604C6.92491 26.1902 5.97488 26.1906 5.38872 25.6049ZM23.4196 7.5765C22.8339 6.9908 22.8339 6.0412 23.4196 5.4555L24.4816 4.3935C25.0673 3.8078 26.0169 3.8078 26.6026 4.3935C27.1883 4.9792 27.1883 5.9288 26.6026 6.5145L25.5406 7.5765C24.9549 8.1622 24.0053 8.1622 23.4196 7.5765ZM8.57247 7.57737C7.9869 8.16336 7.03712 8.16353 6.45134 7.57775L5.39009 6.5165C4.80418 5.93059 4.80435 4.98058 5.39047 4.39488C5.97649 3.80927 6.9263 3.80966 7.51184 4.39575L8.57259 5.4575C9.1576 6.04306 9.15755 6.99188 8.57247 7.57737ZM26.6026 23.4855C27.1883 24.0712 27.1883 25.0208 26.6026 25.6065C26.0169 26.1922 25.0673 26.1922 24.4816 25.6065L23.4196 24.5445C22.8339 23.9588 22.8339 23.0092 23.4196 22.4235C24.0053 21.8378 24.9549 21.8378 25.5406 22.4235L26.6026 23.4855Z" fill="white"/>
</svg>
